<?xml version="1.0" encoding="UTF-8"?>
<svg id="Layer_2" data-name="Layer 2" xmlns="http://www.w3.org/2000/svg" viewBox="0 0 470.46 83.85">
  <defs>
    <style>
      .cls-1 {
        fill: #d6ffe0;
        stroke-width: 0px;
      }
    </style>
  </defs>
  <g id="Layer_1-2" data-name="Layer 1">
    <g>
      <path class="cls-1" d="m16.65,45.96c-2.07,2.26-2.72,5.11-2.72,8.67v2.97c.65,1.54.65,3.68,2.07,5.11.65,1.43,1.96,2.85,3.16,4.51.76.48,2.18.48,2.83,1.31,1.85.71,4.57.71,6.64.71.98-.12,1.74-.71,3.92-.71.76-.24,1.09.83,1.52,2.02.44.83.87,2.14,1.2,3.09.33.59.76,1.07.76,2.02-.22.12-.76.71-1.31.95-.22.71-1.63.83-2.18,1.43-2.61,1.42-5.33,2.14-7.94,2.14-1.31,0-2.29.12-4.03,0-.65,0-1.63-.24-2.61-.59-.87,0-3.05,0-3.92-.12-.76-.12-1.31-.71-2.07-1.07-.65-.36-1.41-.59-2.18-.95-1.52-.71-2.72-2.73-4.13-4.16-1.31-1.31-3.26-3.8-3.48-5.23-.54-1.78-1.85-3.92-1.96-6.06-.22-.95-.22-1.54-.22-2.14v-5.23c0-3.56,0-6.41,1.31-9.26.76-1.54,1.2-3.68,2.61-5.23,0-.71.76-1.54,1.41-2.02l1.85-2.26c1.52-.83,2.18-1.43,3.37-2.26,1.96-.71,4.03-1.43,5.44-1.43,2.29-.48,3.48-1.19,5.88-.24,1.31.12,2.83.36,3.92.95,1.09.24,1.52.36,2.39.71,1.41.24,2.94,1.31,4.03,2.02l.76.24c.11,0,0,1.43-.22,2.73-.22.83-.22,1.54-.22,3.09v2.14c0,.71-.54.71-.54.71-.76,0-1.31-.36-1.96-.36-.98-.36-2.72-1.07-3.7-1.07-1.85,0-3.48-.12-5.22.36-1.74.36-3.16.71-4.46,2.49Z"/>
      <path class="cls-1" d="m56.47,31.23c1.85,0,3.37-.12,5.22-.12,1.41,0,2.83,0,4.03.48.22,0,.76.12,1.41.83,2.94.83,5.22,4.99,6.64,8.08.76,1.31.76,3.68,1.2,4.99,0,2.26.33,4.28.33,6.41,0,3.56-.22,6.77-.22,10.45l-.22,3.92c0,.59-.87,2.73-.98,3.44-.44,1.54-1.31,4.28-1.63,4.63-1.41,1.54-.76,2.61-2.5,3.56-.65.36-1.85,1.19-2.72,1.78-.65.36-.33.48-1.31.83l-1.96.48c-1.74.36-2.61,0-3.92,0-1.96,0-4.13-.48-6.09-1.31-1.31,0-2.72-.83-3.26-1.54-.65-.59-1.41-1.31-2.18-2.14-1.2-1.43-1.85-2.85-2.5-4.39-.65-1.78-1.74-3.56-2.07-5.7-.33-3.56-.54-6.53-.54-9.5v-4.87c-.11-.24-.11-1.66,0-1.9,0-.83.11-1.66.22-2.49.11-1.31-.11-2.61.65-3.8-.22.48,1.63-4.04,1.52-3.68l.76-1.54c.98-1.07,1.31-2.14,6.09-5.7.98-.36,2.61-1.19,4.03-1.19Zm2.61,22.21c-.54,1.31-.76,2.26-.76,2.97,0,2.26.76,3.56,2.07,4.28.65,0,1.31-.71,1.31-1.31,0-1.54.76-3.68,0-5.94-.65-.71-.65-1.31-1.31-1.31-.54,0-1.2.83-1.31,1.31Z"/>
      <path class="cls-1" d="m104.67,61.52c.76,0,.76-.83,1.41-1.78,1.85-4.04,3.05-6.53,4.9-10.33l2.07-5.46c.54-1.07,2.07-3.56,2.29-4.63.22-.95.44-1.19.76-2.26.11-.48,1.63-3.33,1.85-3.8,2.83.71,5.01,1.54,7.73,3.09-.76,1.42-.98,2.14-1.31,3.09-.87,1.9-2.5,4.27-2.72,4.87l-1.96,5.11c-.54,1.19-1.2,2.38-1.96,3.56-.11.36-.33.95-.65,1.31-1.31,2.38-4.68,10.69-6.09,12.59-1.09,2.38-1.85,3.8-2.83,6.18-.11.83-.54,1.54-.87,2.26-.22.71-.54,1.54-1.2,2.38-.54.24-4.57.83-5.33.59-.65-.24-1.63-2.97-1.96-3.33l-1.85-2.73c-.44-.83-1.74-3.92-3.37-6.18l-2.18-4.51c-.44-1.07-1.52-3.33-2.18-4.28-.54-.71-.65-1.66-1.31-3.33-.76-.71-1.74-3.92-3.16-5.46-.22-.48-1.2-2.02-1.85-2.97-.76-1.66-1.52-3.09-2.72-5.34,0,0,.22-.59.87-.95.87-.83,1.74-1.78,3.7-2.73l3.81-3.21c.76,0,1.31.71,1.31.71,1.85,2.02,2.28,4.39,3.81,6.53.87,1.66,2.72,6.18,3.7,7.72,2.28,3.33,4.68,8.55,6.53,11.88.11.24.54,1.31.76,1.42Z"/>
      <path class="cls-1" d="m162.99,55.82c-.44.48-1.52.59-2.18.59-.98.24-2.72.24-3.7.24-1.96,0-2.5.12-4.79.36l-6.53.59v1.43c0,1.78.33,3.44,1.52,5.11.65,1.19,1.85,2.49,2.83,2.85,0,0,2.18,1.07,3.16.95,3.92,0,5.01-1.07,7.62-2.49.54,0,1.31-.95,1.63-1.07.65-.24,2.5-2.02,3.16-2.38.44.36.11,2.61.33,4.16,0,0,.11,2.14,0,3.68-1.52,1.78-.87,1.31-2.72,3.21-1.41,1.54-2.72,2.38-4.13,2.85-1.63.95-3.81,1.19-4.9,1.66-1.2.24-2.72.24-2.72.24-2.72,0-5.33.24-8.16-1.31-.98.12-3.37-.95-3.92-1.66-1.52-.95-2.72-2.61-4.13-3.68-1.96-1.54-2.61-3.33-3.37-5.23-.76-1.42-1.31-3.33-1.85-4.99,0-1.66-.11-3.33-.11-4.87v-4.39c0-2.85,1.31-7.36,2.83-10.21,0,0,1.2-1.42,2.61-2.97.44-.12.87-.48,1.85-1.07.44-.24,1.09-1.31,2.18-1.66,1.63-.59,3.16-1.54,3.92-1.54.98,0,4.13.24,6.64.36,1.31.12,2.18.59,2.61.59,1.09.12,1.85.24,2.72.59,2.61.95,3.59,2.02,4.46,3.09.54.71,1.09,2.02,1.63,2.73.65.95,1.41,2.85,1.74,4.39.33,1.31.44,3.68.44,5.23s-.11,2.02-.11,3.44c0,.36-.22.83-.54,1.19Zm-9.03-9.86c-1.2-2.02-3.7-2.26-5.22-1.9-.98.24-1.09.71-1.63,1.66-.22.24-.33.59-.65.95-.22.36-.33.95-.44,1.42-.22.71-.22.83,0,2.02,1.09.71,7.51.71,8.6,0,.11-.12-.44-.83-.44-2.38,0-.36,0-1.43-.22-1.78Z"/>
      <path class="cls-1" d="m173.43,54.63c.11-1.43.11-2.85.11-4.39l-.33-9.62v-5.34c1.52,0,3.26-.12,5.44.12,0,0,1.63.12,2.39.12.98.24.65.12,1.09.36,0,.71-.22.95-.22,1.78v3.8c.54-.83.54-1.19,1.31-2.02l.65-.24c1.85-2.02,4.9-2.49,7.62-2.26.54,0,2.07.59,3.37,1.43,1.2.24,1.63.83,1.63.83,1.41,1.43,2.94,2.26,3.48,3.8,1.41,2.26,2.18,4.75,2.94,7.72,0,.83,0,1.54-.76,1.54-2.18.83-3.59.48-6.64.71h-1.2c-.22-.12-.33-.59-.33-.71-.11-.95-.44-1.66-.44-2.14,0-.83-.65-1.78-.65-1.78-1.41-1.54-2.61-2.26-4.03-2.26-.33,0-.87,0-1.31.24-.65.24-2.5,1.19-2.94,1.66-.76.83-1.63,1.66-2.07,2.73-.11.59-.22,2.61-.22,2.97-.22,1.42-.65,4.28-.65,5.94,0,1.07-.33,3.09-.33,4.51,0,1.07-.11,2.02-.11,2.97v4.51c0,.95-.11,2.14-.11,3.21v2.61c-3.59.83-6.09.83-7.51,0-.33-1.07-.44-3.21-.33-3.56.33-2.85,0-5.7,0-8.67-.11-1.54.11-3.44.11-4.87,0-1.07.11-3.68,0-5.7Z"/>
      <path class="cls-1" d="m247.09,47.5c-.22.83-.22,1.43-.22,2.26,0,.95.22,4.39.22,5.46v2.61c0,1.43.11,2.85.11,4.28,0,1.07-.22,2.14-.11,3.21,0,.95.22,1.78.22,2.73v10.81c0,.83.44,1.78,0,1.66-1.41,0-3.59.59-5.11.59-1.31,0-2.07,0-3.59-.83v-1.54c-.65-2.97-.65-5.34-.65-7.6,0-1.66-.11-3.21.22-4.75,0-.24,0-.59-.22-.95-.11-.36-.11-3.21-.11-3.68v-4.99c0-1.9-.11-3.8.11-5.7.22-.24.54-6.41.54-7.13.11-2.49,0-5.11.11-7.48,0-4.51-.11-8.91,0-13.3,0-2.85,0-5.58-.11-8.31-.22-2.97.33-2.61.11-5.7,0-1.54.22-3.09.22-4.51,0-1.54-.11-2.49-.11-4.04l.54-.59c1.41,0,3.37.24,4.68.12,1.2-.12,1.41-.12,2.61-.12.33,0,.76.24.87.36.33,5.23-.22,10.09-.22,15.68v8.31c-.11,5.7-.44,10.45-.44,15.2,0,1.66.22,3.68.22,5.34.11.36.11,2.02.11,2.61Z"/>
      <path class="cls-1" d="m289.2,55.82c-.44.48-1.52.59-2.18.59-.98.24-2.72.24-3.7.24-1.96,0-2.5.12-4.79.36l-6.53.59v1.43c0,1.78.33,3.44,1.52,5.11.65,1.19,1.85,2.49,2.83,2.85,0,0,2.18,1.07,3.16.95,3.92,0,5.01-1.07,7.62-2.49.54,0,1.31-.95,1.63-1.07.65-.24,2.5-2.02,3.16-2.38.44.36.11,2.61.33,4.16,0,0,.11,2.14,0,3.68-1.52,1.78-.87,1.31-2.72,3.21-1.41,1.54-2.72,2.38-4.14,2.85-1.63.95-3.81,1.19-4.9,1.66-1.2.24-2.72.24-2.72.24-2.72,0-5.33.24-8.16-1.31-.98.12-3.37-.95-3.92-1.66-1.52-.95-2.72-2.61-4.13-3.68-1.96-1.54-2.61-3.33-3.37-5.23-.76-1.42-1.31-3.33-1.85-4.99,0-1.66-.11-3.33-.11-4.87v-4.39c0-2.85,1.31-7.36,2.83-10.21,0,0,1.2-1.42,2.61-2.97.44-.12.87-.48,1.85-1.07.44-.24,1.09-1.31,2.18-1.66,1.63-.59,3.16-1.54,3.92-1.54.98,0,4.13.24,6.64.36,1.31.12,2.18.59,2.61.59,1.09.12,1.85.24,2.72.59,2.61.95,3.59,2.02,4.46,3.09.54.71,1.09,2.02,1.63,2.73.65.95,1.41,2.85,1.74,4.39.33,1.31.44,3.68.44,5.23s-.11,2.02-.11,3.44c0,.36-.22.83-.54,1.19Zm-9.03-9.86c-1.2-2.02-3.7-2.26-5.22-1.9-.98.24-1.09.71-1.63,1.66-.22.24-.33.59-.65.95-.22.36-.33.95-.44,1.42-.22.71-.22.83,0,2.02,1.09.71,7.51.71,8.6,0,.11-.12-.44-.83-.44-2.38,0-.36,0-1.43-.22-1.78Z"/>
      <path class="cls-1" d="m321.73,78.02c0,.95,0,3.21-.11,4.16.11.59-.54,1.31-.76,1.54h-2.83c-.76,0-1.74-.12-2.5-.12-1.09.48-4.68.12-5.11.12q-.65-.83-.65-1.54v-11.4l-.22-7.01.22-7.96-.11-6.89-.44-5.7c-1.74,0-4.68.36-5.98,0-2.5-.47-3.48,0-5.44,0v-7.6h.65c.65,0,1.31-.12,1.52,0,.76.59,2.61.12,2.5-.12,1.63-.12,1.41-.12,2.72-.12,1.2,0,4.03.12,4.79,0,.11,0,0-4.39,0-6.06.33-2.97.33-5.23.44-8.31.11-2.14.11-4.16.11-6.41s.33-5.94.22-8.43c0-.83-.33-.83-.33-1.54s0-1.19.76-1.19c1.31,0,2.83.24,4.13.24,2.18,0,4.13,0,5.22.12.98.12,1.74.24,2.5.48.11,0,0,3.21-.11,4.99-.11,3.92-.11,6.41,0,10.33,0,1.78-.11,3.68,0,5.46,0,.95-.44,7.24-.54,8.19,0,.83.44,1.54.65,1.54.76,0,2.07.36,2.83.36.65,0,1.41.36,2.83.36,1.31,0,2.72.12,4.24.12.65,0,1.31.12,1.31.12.65,2.38.65,5.94,0,7.48h-.65c-2.83.36-5.66.59-8.49.59-.65,0-1.85.12-2.61.12,0,.71-.11,1.54-.11,1.54v1.07c0,1.42.11,2.49,0,3.8l.22,6.29-.44,5.34c.11,1.66-.33,8.91-.44,10.57,0,1.78-.11,3.68,0,5.46Z"/>
      <path class="cls-1" d="m363.07,78.02c0,.95,0,3.21-.11,4.16.11.59-.54,1.31-.76,1.54h-2.83c-.76,0-1.74-.12-2.5-.12-1.09.48-4.68.12-5.11.12q-.65-.83-.65-1.54v-11.4l-.22-7.01.22-7.96-.11-6.89-.44-5.7c-1.74,0-4.68.36-5.98,0-2.5-.47-3.48,0-5.44,0v-7.6h.65c.65,0,1.31-.12,1.52,0,.76.59,2.61.12,2.5-.12,1.63-.12,1.41-.12,2.72-.12,1.2,0,4.03.12,4.79,0,.11,0,0-4.39,0-6.06.33-2.97.33-5.23.44-8.31.11-2.14.11-4.16.11-6.41s.33-5.94.22-8.43c0-.83-.33-.83-.33-1.54s0-1.19.76-1.19c1.31,0,2.83.24,4.13.24,2.18,0,4.13,0,5.22.12.98.12,1.74.24,2.5.48.11,0,0,3.21-.11,4.99-.11,3.92-.11,6.41,0,10.33,0,1.78-.11,3.68,0,5.46,0,.95-.44,7.24-.54,8.19,0,.83.44,1.54.65,1.54.76,0,2.07.36,2.83.36.65,0,1.41.36,2.83.36,1.31,0,2.72.12,4.24.12.65,0,1.31.12,1.31.12.65,2.38.65,5.94,0,7.48h-.65c-2.83.36-5.66.59-8.49.59-.65,0-1.85.12-2.61.12,0,.71-.11,1.54-.11,1.54v1.07c0,1.42.11,2.49,0,3.8l.22,6.29-.44,5.34c.11,1.66-.33,8.91-.44,10.57,0,1.78-.11,3.68,0,5.46Z"/>
      <path class="cls-1" d="m414.54,55.82c-.44.48-1.52.59-2.18.59-.98.24-2.72.24-3.7.24-1.96,0-2.5.12-4.79.36l-6.53.59v1.43c0,1.78.33,3.44,1.52,5.11.65,1.19,1.85,2.49,2.83,2.85,0,0,2.18,1.07,3.16.95,3.92,0,5.01-1.07,7.62-2.49.54,0,1.31-.95,1.63-1.07.65-.24,2.5-2.02,3.16-2.38.44.36.11,2.61.33,4.16,0,0,.11,2.14,0,3.68-1.52,1.78-.87,1.31-2.72,3.21-1.41,1.54-2.72,2.38-4.13,2.85-1.63.95-3.81,1.19-4.9,1.66-1.2.24-2.72.24-2.72.24-2.72,0-5.33.24-8.16-1.31-.98.12-3.37-.95-3.92-1.66-1.52-.95-2.72-2.61-4.13-3.68-1.96-1.54-2.61-3.33-3.37-5.23-.76-1.42-1.31-3.33-1.85-4.99,0-1.66-.11-3.33-.11-4.87v-4.39c0-2.85,1.31-7.36,2.83-10.21,0,0,1.2-1.42,2.61-2.97.44-.12.87-.48,1.85-1.07.44-.24,1.09-1.31,2.18-1.66,1.63-.59,3.16-1.54,3.92-1.54.98,0,4.13.24,6.64.36,1.31.12,2.18.59,2.61.59,1.09.12,1.85.24,2.72.59,2.61.95,3.59,2.02,4.46,3.09.54.71,1.09,2.02,1.63,2.73.65.95,1.41,2.85,1.74,4.39.33,1.31.44,3.68.44,5.23s-.11,2.02-.11,3.44c0,.36-.22.83-.54,1.19Zm-9.03-9.86c-1.2-2.02-3.7-2.26-5.22-1.9-.98.24-1.09.71-1.63,1.66-.22.24-.33.59-.65.95-.22.36-.33.95-.44,1.42-.22.71-.22.83,0,2.02,1.09.71,7.51.71,8.6,0,.11-.12-.44-.83-.44-2.38,0-.36,0-1.43-.22-1.78Z"/>
      <path class="cls-1" d="m424.98,54.63c.11-1.43.11-2.85.11-4.39l-.33-9.62v-5.34c1.52,0,3.26-.12,5.44.12,0,0,1.63.12,2.39.12.98.24.65.12,1.09.36,0,.71-.22.95-.22,1.78v3.8c.54-.83.54-1.19,1.31-2.02l.65-.24c1.85-2.02,4.9-2.49,7.62-2.26.54,0,2.07.59,3.37,1.43,1.2.24,1.63.83,1.63.83,1.41,1.43,2.94,2.26,3.48,3.8,1.41,2.26,2.18,4.75,2.94,7.72,0,.83,0,1.54-.76,1.54-2.18.83-3.59.48-6.64.71h-1.2c-.22-.12-.33-.59-.33-.71-.11-.95-.44-1.66-.44-2.14,0-.83-.65-1.78-.65-1.78-1.41-1.54-2.61-2.26-4.03-2.26-.33,0-.87,0-1.31.24-.65.24-2.5,1.19-2.94,1.66-.76.83-1.63,1.66-2.07,2.73-.11.59-.22,2.61-.22,2.97-.22,1.42-.65,4.28-.65,5.94,0,1.07-.33,3.09-.33,4.51,0,1.07-.11,2.02-.11,2.97v4.51c0,.95-.11,2.14-.11,3.21v2.61c-3.59.83-6.09.83-7.51,0-.33-1.07-.44-3.21-.33-3.56.33-2.85,0-5.7,0-8.67-.11-1.54.11-3.44.11-4.87,0-1.07.11-3.68,0-5.7Z"/>
      <path class="cls-1" d="m467.63,28.38c-.87,0-1.74-.24-3.05-.24-.65,0-1.41-.12-2.39.12-.54.12-1.2.12-1.52-.12l-.44-.48c-.44-.59-.22-1.43-.22-1.9,0-2.85.44-5.46,0-7.84,0-.95.11-1.54.44-1.9.54-.12,1.31-.36,2.39-.36.44,0,2.18.12,2.61.12,1.31,0,2.18.24,3.26.24.87,0,1.31,0,1.74.48,0,3.33-.33,6.53-.33,9.98.11.48.11,1.19-.11,1.9-.33.36-1.41.24-2.39,0Zm0,40.85c-1.74,0-3.7.48-6.09.48-.44,0-1.31,0-1.31-.48v-1.42c0-1.9.22-3.92-.22-5.46v-1.9c0-.95,0-1.9.44-3.09,1.31-.48,3.26,0,4.57,0h4.57c.87,4.04.44,7.6.44,10.93-.44.95-1.31.95-2.39.95Z"/>
    </g>
  </g>
</svg>