<?xml version="1.0" encoding="UTF-8"?>
<svg id="Layer_2" data-name="Layer 2" xmlns="http://www.w3.org/2000/svg" viewBox="0 0 1052.09 674">
  <defs>
    <style>
      .cls-1 {
        opacity: .16;
      }

      .cls-2 {
        fill: #ffcc02;
        stroke-width: 0px;
      }
    </style>
  </defs>
  <g id="Layer_1-2" data-name="Layer 1">
    <g>
      <g class="cls-1">
        <g>
          <path class="cls-2" d="m172.92,93.7v49.51c0,10.23-3.62,18.96-10.84,26.19-7.09,7.09-15.75,10.64-25.98,10.64H60.8c-10.1,0-18.82-3.55-26.19-10.64-7.23-7.23-10.84-15.96-10.84-26.19v-49.51c0-10.09,3.61-18.75,10.84-25.98,7.37-7.23,16.09-10.84,26.19-10.84h75.29c10.23,0,18.89,3.62,25.98,10.84,7.23,7.23,10.84,15.89,10.84,25.98Zm-42.15,52.58c2.32,0,4.23-.68,5.73-2.05,1.5-1.5,2.25-3.27,2.25-5.32v-40.92c0-2.18-.75-4.02-2.25-5.52-1.5-1.5-3.41-2.25-5.73-2.25h-65.06c-2.32,0-4.23.75-5.73,2.25-1.5,1.5-2.25,3.34-2.25,5.52v40.92c0,2.05.75,3.82,2.25,5.32,1.5,1.36,3.41,2.05,5.73,2.05h65.06Zm51.15,76.93c0,5.59-2.39,10.91-7.16,15.96-4.64,5.04-8.73,7.57-12.28,7.57-1.5,0-2.53-.68-3.07-2.05l-.82-10.64c-.55-6.96-5.39-10.57-14.53-10.84l-48.69.2c-10.37,0-19.1-3.21-26.19-9.62-7.09-6.41-10.64-14.66-10.64-24.76l87.77.2c9.82,0,18.07,2.86,24.76,8.59,7.23,6.27,10.84,14.73,10.84,25.37v-.2.2Z"/>
          <path class="cls-2" d="m340.08,67.31c7.09,7.23,10.64,15.89,10.64,25.98l-.2,48.9c-.82,7.77,1.43,14.32,6.75,19.64,2.86,2.86,5.52,4.78,7.98,5.73l6.14,1.43c2.18.68,3.27,2.86,3.27,6.55,0,2.86-1.09,4.3-3.27,4.3h-20.87c-9.14,0-17.12-3.61-23.94-10.84-6.82-7.09-10.23-15.35-10.23-24.76v-46.24c0-2.18-.75-4.02-2.25-5.52-1.5-1.5-3.34-2.25-5.52-2.25h-66.29c-2.18,0-4.09.75-5.73,2.25-1.5,1.5-2.25,3.34-2.25,5.52v40.31c0,2.18.75,3.96,2.25,5.32,1.64,1.36,3.48,2.05,5.52,2.05h33.76c9.68,0,18.07,3.34,25.17,10.03,6.96,6.68,10.77,14.8,11.46,24.35l-75.29-.2c-10.37,0-19.1-3.34-26.19-10.03-7.09-6.68-10.64-15.62-10.64-26.8v-49.72c0-10.09,3.61-18.75,10.84-25.98,7.23-7.23,15.89-10.84,25.98-10.84h76.52c10.36,0,19.16,3.61,26.39,10.84v-.2.2Z"/>
          <path class="cls-2" d="m450.56,175.54c0,3-1.16,4.5-3.48,4.5h-20.87c-9.14,0-17.19-3.61-24.14-10.84-6.82-7.23-10.23-15.62-10.23-25.17V12.47c10.09,0,18.34,3.62,24.76,10.84,6.55,7.23,9.82,16.03,9.82,26.39v92.28c-.27,8.32,1.91,14.94,6.55,19.85,2.73,3,5.45,4.91,8.18,5.73l6.14,1.64c2.18.55,3.27,2.66,3.27,6.34v-.2.2Z"/>
          <path class="cls-2" d="m526.67,175.54c0,3-1.16,4.5-3.48,4.5h-20.87c-9.14,0-17.19-3.61-24.14-10.84-6.82-7.23-10.23-15.62-10.23-25.17V12.47c10.09,0,18.34,3.62,24.76,10.84,6.55,7.23,9.82,16.03,9.82,26.39v92.28c-.27,8.32,1.91,14.94,6.55,19.85,2.73,3,5.45,4.91,8.18,5.73l6.14,1.64c2.18.55,3.27,2.66,3.27,6.34v-.2.2Z"/>
          <path class="cls-2" d="m684.01,67.31c7.09,7.23,10.64,15.89,10.64,25.98l-.2,48.9c-.82,7.77,1.43,14.32,6.75,19.64,2.86,2.86,5.52,4.78,7.98,5.73l6.14,1.43c2.18.68,3.27,2.86,3.27,6.55,0,2.86-1.09,4.3-3.27,4.3h-20.87c-9.14,0-17.12-3.61-23.94-10.84-6.82-7.09-10.23-15.35-10.23-24.76v-46.24c0-2.18-.75-4.02-2.25-5.52-1.5-1.5-3.34-2.25-5.52-2.25h-66.29c-2.18,0-4.09.75-5.73,2.25-1.5,1.5-2.25,3.34-2.25,5.52v40.31c0,2.18.75,3.96,2.25,5.32,1.64,1.36,3.48,2.05,5.52,2.05h33.76c9.68,0,18.07,3.34,25.17,10.03,6.96,6.68,10.77,14.8,11.46,24.35l-75.29-.2c-10.37,0-19.1-3.34-26.19-10.03-7.09-6.68-10.64-15.62-10.64-26.8v-49.72c0-10.09,3.61-18.75,10.84-25.98,7.23-7.23,15.89-10.84,25.98-10.84h76.52c10.36,0,19.16,3.61,26.39,10.84v-.2.2Z"/>
          <path class="cls-2" d="m776.9,56.46h60.56c-.68,9.55-4.64,17.46-11.87,23.73-7.09,6.41-15.48,9.62-25.17,9.62h-18.62l.2.2c-2.18,0-4.09.75-5.73,2.25-1.5,1.5-2.25,3.34-2.25,5.52v46.65c0,9.41-3.41,17.73-10.23,24.96-6.82,7.09-14.8,10.64-23.94,10.64h-20.87c-2.18,0-3.27-1.43-3.27-4.3,0-3.55,1.16-5.73,3.48-6.55l5.52-1.43c2.05-.54,4.5-2.25,7.37-5.11,5.32-5.32,7.84-12.21,7.57-20.67v-48.69c0-10.23,3.61-19.03,10.84-26.39,7.23-7.23,15.96-10.84,26.19-10.84l.2.41v-.21.21Z"/>
          <path class="cls-2" d="m1041.66,61.17c0,3.55-1.02,5.66-3.07,6.34l-6.14,1.84c-2.46.82-5.12,2.59-7.98,5.32-5.32,5.32-7.5,11.87-6.55,19.64l.2,48.7c0,10.23-3.62,18.89-10.84,25.98-7.23,7.23-15.96,10.84-26.19,10.84h-75.09c-10.23,0-18.96-3.61-26.19-10.84-7.23-7.09-10.84-15.75-10.84-25.98v-49.51c0-9.55,3.27-17.94,9.82-25.17,6.55-7.09,14.59-10.98,24.14-11.66v81.64c0,2.32.82,4.23,2.46,5.73,1.5,1.36,3.34,2.05,5.52,2.05h65.06c2.18,0,4.02-.68,5.52-2.05,1.64-1.5,2.46-3.41,2.46-5.73v-46.24c0-9.14,3.34-17.32,10.03-24.55,6.82-7.23,14.8-10.84,23.94-10.84h20.66c2.05,0,3.07,1.5,3.07,4.5Zm2.66,178.21c-4.78,4.91-8.87,7.37-12.28,7.37-1.5,0-2.25-.68-2.25-2.05l-.61.21-.41-3.48.2-7.16c-.55-7.09-5.39-10.84-14.53-11.25l-48.49.2c-10.37,0-19.1-3.14-26.19-9.41-7.23-6.41-10.84-14.66-10.84-24.76h87.57c9.96,0,18.21,2.86,24.76,8.59,7.23,6.27,10.84,14.73,10.84,25.37,0,5.45-2.59,10.91-7.77,16.37v-.2.2Z"/>
        </g>
        <g>
          <path class="cls-2" d="m172.92,307.33v49.51c0,10.23-3.62,18.96-10.84,26.19-7.09,7.09-15.75,10.64-25.98,10.64H60.8c-10.1,0-18.82-3.55-26.19-10.64-7.23-7.23-10.84-15.96-10.84-26.19v-49.51c0-10.09,3.61-18.75,10.84-25.98,7.37-7.23,16.09-10.84,26.19-10.84h75.29c10.23,0,18.89,3.62,25.98,10.84,7.23,7.23,10.84,15.89,10.84,25.98Zm-42.15,52.58c2.32,0,4.23-.68,5.73-2.05,1.5-1.5,2.25-3.27,2.25-5.32v-40.92c0-2.18-.75-4.02-2.25-5.52-1.5-1.5-3.41-2.25-5.73-2.25h-65.06c-2.32,0-4.23.75-5.73,2.25-1.5,1.5-2.25,3.34-2.25,5.52v40.92c0,2.05.75,3.82,2.25,5.32,1.5,1.36,3.41,2.05,5.73,2.05h65.06Zm51.15,76.93c0,5.59-2.39,10.91-7.16,15.96-4.64,5.04-8.73,7.57-12.28,7.57-1.5,0-2.53-.68-3.07-2.05l-.82-10.64c-.55-6.96-5.39-10.57-14.53-10.84l-48.69.2c-10.37,0-19.1-3.21-26.19-9.62-7.09-6.41-10.64-14.66-10.64-24.76l87.77.2c9.82,0,18.07,2.86,24.76,8.59,7.23,6.27,10.84,14.73,10.84,25.37v-.2.2Z"/>
          <path class="cls-2" d="m340.08,280.94c7.09,7.23,10.64,15.89,10.64,25.98l-.2,48.9c-.82,7.77,1.43,14.32,6.75,19.64,2.86,2.86,5.52,4.78,7.98,5.73l6.14,1.43c2.18.68,3.27,2.86,3.27,6.55,0,2.86-1.09,4.3-3.27,4.3h-20.87c-9.14,0-17.12-3.61-23.94-10.84-6.82-7.09-10.23-15.35-10.23-24.76v-46.24c0-2.18-.75-4.02-2.25-5.52-1.5-1.5-3.34-2.25-5.52-2.25h-66.29c-2.18,0-4.09.75-5.73,2.25-1.5,1.5-2.25,3.34-2.25,5.52v40.31c0,2.18.75,3.96,2.25,5.32,1.64,1.36,3.48,2.05,5.52,2.05h33.76c9.68,0,18.07,3.34,25.17,10.03,6.96,6.68,10.77,14.8,11.46,24.35l-75.29-.2c-10.37,0-19.1-3.34-26.19-10.03-7.09-6.68-10.64-15.62-10.64-26.8v-49.72c0-10.09,3.61-18.75,10.84-25.98,7.23-7.23,15.89-10.84,25.98-10.84h76.52c10.36,0,19.16,3.61,26.39,10.84v-.2.2Z"/>
          <path class="cls-2" d="m450.56,389.17c0,3-1.16,4.5-3.48,4.5h-20.87c-9.14,0-17.19-3.61-24.14-10.84-6.82-7.23-10.23-15.62-10.23-25.17v-131.56c10.09,0,18.34,3.62,24.76,10.84,6.55,7.23,9.82,16.03,9.82,26.39v92.28c-.27,8.32,1.91,14.94,6.55,19.85,2.73,3,5.45,4.91,8.18,5.73l6.14,1.64c2.18.55,3.27,2.66,3.27,6.34v-.2.2Z"/>
          <path class="cls-2" d="m526.67,389.17c0,3-1.16,4.5-3.48,4.5h-20.87c-9.14,0-17.19-3.61-24.14-10.84-6.82-7.23-10.23-15.62-10.23-25.17v-131.56c10.09,0,18.34,3.62,24.76,10.84,6.55,7.23,9.82,16.03,9.82,26.39v92.28c-.27,8.32,1.91,14.94,6.55,19.85,2.73,3,5.45,4.91,8.18,5.73l6.14,1.64c2.18.55,3.27,2.66,3.27,6.34v-.2.2Z"/>
          <path class="cls-2" d="m684.01,280.94c7.09,7.23,10.64,15.89,10.64,25.98l-.2,48.9c-.82,7.77,1.43,14.32,6.75,19.64,2.86,2.86,5.52,4.78,7.98,5.73l6.14,1.43c2.18.68,3.27,2.86,3.27,6.55,0,2.86-1.09,4.3-3.27,4.3h-20.87c-9.14,0-17.12-3.61-23.94-10.84-6.82-7.09-10.23-15.35-10.23-24.76v-46.24c0-2.18-.75-4.02-2.25-5.52-1.5-1.5-3.34-2.25-5.52-2.25h-66.29c-2.18,0-4.09.75-5.73,2.25-1.5,1.5-2.25,3.34-2.25,5.52v40.31c0,2.18.75,3.96,2.25,5.32,1.64,1.36,3.48,2.05,5.52,2.05h33.76c9.68,0,18.07,3.34,25.17,10.03,6.96,6.68,10.77,14.8,11.46,24.35l-75.29-.2c-10.37,0-19.1-3.34-26.19-10.03-7.09-6.68-10.64-15.62-10.64-26.8v-49.72c0-10.09,3.61-18.75,10.84-25.98,7.23-7.23,15.89-10.84,25.98-10.84h76.52c10.36,0,19.16,3.61,26.39,10.84v-.2.2Z"/>
          <path class="cls-2" d="m776.9,270.09h60.56c-.68,9.55-4.64,17.46-11.87,23.73-7.09,6.41-15.48,9.62-25.17,9.62h-18.62l.2.2c-2.18,0-4.09.75-5.73,2.25-1.5,1.5-2.25,3.34-2.25,5.52v46.65c0,9.41-3.41,17.73-10.23,24.96-6.82,7.09-14.8,10.64-23.94,10.64h-20.87c-2.18,0-3.27-1.43-3.27-4.3,0-3.55,1.16-5.73,3.48-6.55l5.52-1.43c2.05-.54,4.5-2.25,7.37-5.11,5.32-5.32,7.84-12.21,7.57-20.67v-48.69c0-10.23,3.61-19.03,10.84-26.39,7.23-7.23,15.96-10.84,26.19-10.84l.2.41v-.21.21Z"/>
          <path class="cls-2" d="m1041.66,274.8c0,3.55-1.02,5.66-3.07,6.34l-6.14,1.84c-2.46.82-5.12,2.59-7.98,5.32-5.32,5.32-7.5,11.87-6.55,19.64l.2,48.7c0,10.23-3.62,18.89-10.84,25.98-7.23,7.23-15.96,10.84-26.19,10.84h-75.09c-10.23,0-18.96-3.61-26.19-10.84-7.23-7.09-10.84-15.75-10.84-25.98v-49.51c0-9.55,3.27-17.94,9.82-25.17,6.55-7.09,14.59-10.98,24.14-11.66v81.64c0,2.32.82,4.23,2.46,5.73,1.5,1.36,3.34,2.05,5.52,2.05h65.06c2.18,0,4.02-.68,5.52-2.05,1.64-1.5,2.46-3.41,2.46-5.73v-46.24c0-9.14,3.34-17.32,10.03-24.55,6.82-7.23,14.8-10.84,23.94-10.84h20.66c2.05,0,3.07,1.5,3.07,4.5Zm2.66,178.21c-4.78,4.91-8.87,7.37-12.28,7.37-1.5,0-2.25-.68-2.25-2.05l-.61.21-.41-3.48.2-7.16c-.55-7.09-5.39-10.84-14.53-11.25l-48.49.2c-10.37,0-19.1-3.14-26.19-9.41-7.23-6.41-10.84-14.66-10.84-24.76h87.57c9.96,0,18.21,2.86,24.76,8.59,7.23,6.27,10.84,14.73,10.84,25.37,0,5.45-2.59,10.91-7.77,16.37v-.2.2Z"/>
        </g>
        <g>
          <path class="cls-2" d="m172.92,520.96v49.51c0,10.23-3.62,18.96-10.84,26.19-7.09,7.09-15.75,10.64-25.98,10.64H60.8c-10.1,0-18.82-3.55-26.19-10.64-7.23-7.23-10.84-15.96-10.84-26.19v-49.51c0-10.09,3.61-18.75,10.84-25.98,7.37-7.23,16.09-10.84,26.19-10.84h75.29c10.23,0,18.89,3.62,25.98,10.84,7.23,7.23,10.84,15.89,10.84,25.98Zm-42.15,52.58c2.32,0,4.23-.68,5.73-2.05,1.5-1.5,2.25-3.27,2.25-5.32v-40.92c0-2.18-.75-4.02-2.25-5.52-1.5-1.5-3.41-2.25-5.73-2.25h-65.06c-2.32,0-4.23.75-5.73,2.25-1.5,1.5-2.25,3.34-2.25,5.52v40.92c0,2.05.75,3.82,2.25,5.32,1.5,1.36,3.41,2.05,5.73,2.05h65.06Zm51.15,76.93c0,5.59-2.39,10.91-7.16,15.96-4.64,5.04-8.73,7.57-12.28,7.57-1.5,0-2.53-.68-3.07-2.05l-.82-10.64c-.55-6.96-5.39-10.57-14.53-10.84l-48.69.2c-10.37,0-19.1-3.21-26.19-9.62-7.09-6.41-10.64-14.66-10.64-24.76l87.77.2c9.82,0,18.07,2.86,24.76,8.59,7.23,6.27,10.84,14.73,10.84,25.37v-.2.2Z"/>
          <path class="cls-2" d="m340.08,494.56c7.09,7.23,10.64,15.89,10.64,25.98l-.2,48.9c-.82,7.77,1.43,14.32,6.75,19.64,2.86,2.86,5.52,4.78,7.98,5.73l6.14,1.43c2.18.68,3.27,2.86,3.27,6.55,0,2.86-1.09,4.3-3.27,4.3h-20.87c-9.14,0-17.12-3.61-23.94-10.84-6.82-7.09-10.23-15.35-10.23-24.76v-46.24c0-2.18-.75-4.02-2.25-5.52-1.5-1.5-3.34-2.25-5.52-2.25h-66.29c-2.18,0-4.09.75-5.73,2.25-1.5,1.5-2.25,3.34-2.25,5.52v40.31c0,2.18.75,3.96,2.25,5.32,1.64,1.36,3.48,2.05,5.52,2.05h33.76c9.68,0,18.07,3.34,25.17,10.03,6.96,6.68,10.77,14.8,11.46,24.35l-75.29-.2c-10.37,0-19.1-3.34-26.19-10.03-7.09-6.68-10.64-15.62-10.64-26.8v-49.72c0-10.09,3.61-18.75,10.84-25.98,7.23-7.23,15.89-10.84,25.98-10.84h76.52c10.36,0,19.16,3.61,26.39,10.84v-.2.2Z"/>
          <path class="cls-2" d="m450.56,602.8c0,3-1.16,4.5-3.48,4.5h-20.87c-9.14,0-17.19-3.61-24.14-10.84-6.82-7.23-10.23-15.62-10.23-25.17v-131.56c10.09,0,18.34,3.62,24.76,10.84,6.55,7.23,9.82,16.03,9.82,26.39v92.28c-.27,8.32,1.91,14.94,6.55,19.85,2.73,3,5.45,4.91,8.18,5.73l6.14,1.64c2.18.55,3.27,2.66,3.27,6.34v-.2.2Z"/>
          <path class="cls-2" d="m526.67,602.8c0,3-1.16,4.5-3.48,4.5h-20.87c-9.14,0-17.19-3.61-24.14-10.84-6.82-7.23-10.23-15.62-10.23-25.17v-131.56c10.09,0,18.34,3.62,24.76,10.84,6.55,7.23,9.82,16.03,9.82,26.39v92.28c-.27,8.32,1.91,14.94,6.55,19.85,2.73,3,5.45,4.91,8.18,5.73l6.14,1.64c2.18.55,3.27,2.66,3.27,6.34v-.2.2Z"/>
          <path class="cls-2" d="m684.01,494.56c7.09,7.23,10.64,15.89,10.64,25.98l-.2,48.9c-.82,7.77,1.43,14.32,6.75,19.64,2.86,2.86,5.52,4.78,7.98,5.73l6.14,1.43c2.18.68,3.27,2.86,3.27,6.55,0,2.86-1.09,4.3-3.27,4.3h-20.87c-9.14,0-17.12-3.61-23.94-10.84-6.82-7.09-10.23-15.35-10.23-24.76v-46.24c0-2.18-.75-4.02-2.25-5.52-1.5-1.5-3.34-2.25-5.52-2.25h-66.29c-2.18,0-4.09.75-5.73,2.25-1.5,1.5-2.25,3.34-2.25,5.52v40.31c0,2.18.75,3.96,2.25,5.32,1.64,1.36,3.48,2.05,5.52,2.05h33.76c9.68,0,18.07,3.34,25.17,10.03,6.96,6.68,10.77,14.8,11.46,24.35l-75.29-.2c-10.37,0-19.1-3.34-26.19-10.03-7.09-6.68-10.64-15.62-10.64-26.8v-49.72c0-10.09,3.61-18.75,10.84-25.98,7.23-7.23,15.89-10.84,25.98-10.84h76.52c10.36,0,19.16,3.61,26.39,10.84v-.2.2Z"/>
          <path class="cls-2" d="m776.9,483.72h60.56c-.68,9.55-4.64,17.46-11.87,23.73-7.09,6.41-15.48,9.62-25.17,9.62h-18.62l.2.2c-2.18,0-4.09.75-5.73,2.25-1.5,1.5-2.25,3.34-2.25,5.52v46.65c0,9.41-3.41,17.73-10.23,24.96-6.82,7.09-14.8,10.64-23.94,10.64h-20.87c-2.18,0-3.27-1.43-3.27-4.3,0-3.55,1.16-5.73,3.48-6.55l5.52-1.43c2.05-.54,4.5-2.25,7.37-5.11,5.32-5.32,7.84-12.21,7.57-20.67v-48.69c0-10.23,3.61-19.03,10.84-26.39,7.23-7.23,15.96-10.84,26.19-10.84l.2.41v-.21.21Z"/>
          <path class="cls-2" d="m1041.66,488.43c0,3.55-1.02,5.66-3.07,6.34l-6.14,1.84c-2.46.82-5.12,2.59-7.98,5.32-5.32,5.32-7.5,11.87-6.55,19.64l.2,48.7c0,10.23-3.62,18.89-10.84,25.98-7.23,7.23-15.96,10.84-26.19,10.84h-75.09c-10.23,0-18.96-3.61-26.19-10.84-7.23-7.09-10.84-15.75-10.84-25.98v-49.51c0-9.55,3.27-17.94,9.82-25.17,6.55-7.09,14.59-10.98,24.14-11.66v81.64c0,2.32.82,4.23,2.46,5.73,1.5,1.36,3.34,2.05,5.52,2.05h65.06c2.18,0,4.02-.68,5.52-2.05,1.64-1.5,2.46-3.41,2.46-5.73v-46.24c0-9.14,3.34-17.32,10.03-24.55,6.82-7.23,14.8-10.84,23.94-10.84h20.66c2.05,0,3.07,1.5,3.07,4.5Zm2.66,178.21c-4.78,4.91-8.87,7.37-12.28,7.37-1.5,0-2.25-.68-2.25-2.05l-.61.21-.41-3.48.2-7.16c-.55-7.09-5.39-10.84-14.53-11.25l-48.49.2c-10.37,0-19.1-3.14-26.19-9.41-7.23-6.41-10.84-14.66-10.84-24.76h87.57c9.96,0,18.21,2.86,24.76,8.59,7.23,6.27,10.84,14.73,10.84,25.37,0,5.45-2.59,10.91-7.77,16.37v-.2.2Z"/>
        </g>
      </g>
      <g>
        <g>
          <path class="cls-2" d="m149.15,81.23v49.51c0,10.23-3.62,18.96-10.84,26.19-7.09,7.09-15.75,10.64-25.98,10.64H37.03c-10.1,0-18.82-3.55-26.19-10.64-7.23-7.23-10.84-15.96-10.84-26.19v-49.51c0-10.09,3.61-18.75,10.84-25.98,7.37-7.23,16.09-10.84,26.19-10.84h75.29c10.23,0,18.89,3.62,25.98,10.84,7.23,7.23,10.84,15.89,10.84,25.98Zm-42.15,52.58c2.32,0,4.23-.68,5.73-2.05,1.5-1.5,2.25-3.27,2.25-5.32v-40.92c0-2.18-.75-4.02-2.25-5.52-1.5-1.5-3.41-2.25-5.73-2.25H41.94c-2.32,0-4.23.75-5.73,2.25-1.5,1.5-2.25,3.34-2.25,5.52v40.92c0,2.05.75,3.82,2.25,5.32,1.5,1.36,3.41,2.05,5.73,2.05h65.06Zm51.15,76.93c0,5.59-2.39,10.91-7.16,15.96-4.64,5.04-8.73,7.57-12.28,7.57-1.5,0-2.53-.68-3.07-2.05l-.82-10.64c-.55-6.96-5.39-10.57-14.53-10.84l-48.69.2c-10.37,0-19.1-3.21-26.19-9.62-7.09-6.41-10.64-14.66-10.64-24.76l87.77.2c9.82,0,18.07,2.86,24.76,8.59,7.23,6.27,10.84,14.73,10.84,25.37v-.2.2Z"/>
          <path class="cls-2" d="m316.31,54.83c7.09,7.23,10.64,15.89,10.64,25.98l-.2,48.9c-.82,7.77,1.43,14.32,6.75,19.64,2.86,2.86,5.52,4.78,7.98,5.73l6.14,1.43c2.18.68,3.27,2.86,3.27,6.55,0,2.86-1.09,4.3-3.27,4.3h-20.87c-9.14,0-17.12-3.61-23.94-10.84-6.82-7.09-10.23-15.35-10.23-24.76v-46.24c0-2.18-.75-4.02-2.25-5.52-1.5-1.5-3.34-2.25-5.52-2.25h-66.29c-2.18,0-4.09.75-5.73,2.25-1.5,1.5-2.25,3.34-2.25,5.52v40.31c0,2.18.75,3.96,2.25,5.32,1.64,1.36,3.48,2.05,5.52,2.05h33.76c9.68,0,18.07,3.34,25.17,10.03,6.96,6.68,10.77,14.8,11.46,24.35l-75.29-.2c-10.37,0-19.1-3.34-26.19-10.03-7.09-6.68-10.64-15.62-10.64-26.8v-49.72c0-10.09,3.61-18.75,10.84-25.98,7.23-7.23,15.89-10.84,25.98-10.84h76.52c10.36,0,19.16,3.61,26.39,10.84v-.2.2Z"/>
          <path class="cls-2" d="m426.8,163.07c0,3-1.16,4.5-3.48,4.5h-20.87c-9.14,0-17.19-3.61-24.14-10.84-6.82-7.23-10.23-15.62-10.23-25.17V0c10.09,0,18.34,3.62,24.76,10.84,6.55,7.23,9.82,16.03,9.82,26.39v92.28c-.27,8.32,1.91,14.94,6.55,19.85,2.73,3,5.45,4.91,8.18,5.73l6.14,1.64c2.18.55,3.27,2.66,3.27,6.34v-.2.2Z"/>
          <path class="cls-2" d="m502.91,163.07c0,3-1.16,4.5-3.48,4.5h-20.87c-9.14,0-17.19-3.61-24.14-10.84-6.82-7.23-10.23-15.62-10.23-25.17V0c10.09,0,18.34,3.62,24.76,10.84,6.55,7.23,9.82,16.03,9.82,26.39v92.28c-.27,8.32,1.91,14.94,6.55,19.85,2.73,3,5.45,4.91,8.18,5.73l6.14,1.64c2.18.55,3.27,2.66,3.27,6.34v-.2.2Z"/>
          <path class="cls-2" d="m660.25,54.83c7.09,7.23,10.64,15.89,10.64,25.98l-.2,48.9c-.82,7.77,1.43,14.32,6.75,19.64,2.86,2.86,5.52,4.78,7.98,5.73l6.14,1.43c2.18.68,3.27,2.86,3.27,6.55,0,2.86-1.09,4.3-3.27,4.3h-20.87c-9.14,0-17.12-3.61-23.94-10.84-6.82-7.09-10.23-15.35-10.23-24.76v-46.24c0-2.18-.75-4.02-2.25-5.52-1.5-1.5-3.34-2.25-5.52-2.25h-66.29c-2.18,0-4.09.75-5.73,2.25-1.5,1.5-2.25,3.34-2.25,5.52v40.31c0,2.18.75,3.96,2.25,5.32,1.64,1.36,3.48,2.05,5.52,2.05h33.76c9.68,0,18.07,3.34,25.17,10.03,6.96,6.68,10.77,14.8,11.46,24.35l-75.29-.2c-10.37,0-19.1-3.34-26.19-10.03-7.09-6.68-10.64-15.62-10.64-26.8v-49.72c0-10.09,3.61-18.75,10.84-25.98,7.23-7.23,15.89-10.84,25.98-10.84h76.52c10.36,0,19.16,3.61,26.39,10.84v-.2.2Z"/>
          <path class="cls-2" d="m753.14,43.99h60.56c-.68,9.55-4.64,17.46-11.87,23.73-7.09,6.41-15.48,9.62-25.17,9.62h-18.62l.2.2c-2.18,0-4.09.75-5.73,2.25-1.5,1.5-2.25,3.34-2.25,5.52v46.65c0,9.41-3.41,17.73-10.23,24.96-6.82,7.09-14.8,10.64-23.94,10.64h-20.87c-2.18,0-3.27-1.43-3.27-4.3,0-3.55,1.16-5.73,3.48-6.55l5.52-1.43c2.05-.54,4.5-2.25,7.37-5.11,5.32-5.32,7.84-12.21,7.57-20.67v-48.69c0-10.23,3.61-19.03,10.84-26.39,7.23-7.23,15.96-10.84,26.19-10.84l.2.41v-.21.21Z"/>
          <path class="cls-2" d="m1017.89,48.7c0,3.55-1.02,5.66-3.07,6.34l-6.14,1.84c-2.46.82-5.12,2.59-7.98,5.32-5.32,5.32-7.5,11.87-6.55,19.64l.2,48.7c0,10.23-3.62,18.89-10.84,25.98-7.23,7.23-15.96,10.84-26.19,10.84h-75.09c-10.23,0-18.96-3.61-26.19-10.84-7.23-7.09-10.84-15.75-10.84-25.98v-49.51c0-9.55,3.27-17.94,9.82-25.17,6.55-7.09,14.59-10.98,24.14-11.66v81.64c0,2.32.82,4.23,2.46,5.73,1.5,1.36,3.34,2.05,5.52,2.05h65.06c2.18,0,4.02-.68,5.52-2.05,1.64-1.5,2.46-3.41,2.46-5.73v-46.24c0-9.14,3.34-17.32,10.03-24.55,6.82-7.23,14.8-10.84,23.94-10.84h20.66c2.05,0,3.07,1.5,3.07,4.5Zm2.66,178.21c-4.78,4.91-8.87,7.37-12.28,7.37-1.5,0-2.25-.68-2.25-2.05l-.61.21-.41-3.48.2-7.16c-.55-7.09-5.39-10.84-14.53-11.25l-48.49.2c-10.37,0-19.1-3.14-26.19-9.41-7.23-6.41-10.84-14.66-10.84-24.76h87.57c9.96,0,18.21,2.86,24.76,8.59,7.23,6.27,10.84,14.73,10.84,25.37,0,5.45-2.59,10.91-7.77,16.37v-.2.2Z"/>
        </g>
        <g>
          <path class="cls-2" d="m149.15,294.86v49.51c0,10.23-3.62,18.96-10.84,26.19-7.09,7.09-15.75,10.64-25.98,10.64H37.03c-10.1,0-18.82-3.55-26.19-10.64-7.23-7.23-10.84-15.96-10.84-26.19v-49.51c0-10.09,3.61-18.75,10.84-25.98,7.37-7.23,16.09-10.84,26.19-10.84h75.29c10.23,0,18.89,3.62,25.98,10.84,7.23,7.23,10.84,15.89,10.84,25.98Zm-42.15,52.58c2.32,0,4.23-.68,5.73-2.05,1.5-1.5,2.25-3.27,2.25-5.32v-40.92c0-2.18-.75-4.02-2.25-5.52-1.5-1.5-3.41-2.25-5.73-2.25H41.94c-2.32,0-4.23.75-5.73,2.25-1.5,1.5-2.25,3.34-2.25,5.52v40.92c0,2.05.75,3.82,2.25,5.32,1.5,1.36,3.41,2.05,5.73,2.05h65.06Zm51.15,76.93c0,5.59-2.39,10.91-7.16,15.96-4.64,5.04-8.73,7.57-12.28,7.57-1.5,0-2.53-.68-3.07-2.05l-.82-10.64c-.55-6.96-5.39-10.57-14.53-10.84l-48.69.2c-10.37,0-19.1-3.21-26.19-9.62-7.09-6.41-10.64-14.66-10.64-24.76l87.77.2c9.82,0,18.07,2.86,24.76,8.59,7.23,6.27,10.84,14.73,10.84,25.37v-.2.2Z"/>
          <path class="cls-2" d="m316.31,268.46c7.09,7.23,10.64,15.89,10.64,25.98l-.2,48.9c-.82,7.77,1.43,14.32,6.75,19.64,2.86,2.86,5.52,4.78,7.98,5.73l6.14,1.43c2.18.68,3.27,2.86,3.27,6.55,0,2.86-1.09,4.3-3.27,4.3h-20.87c-9.14,0-17.12-3.61-23.94-10.84-6.82-7.09-10.23-15.35-10.23-24.76v-46.24c0-2.18-.75-4.02-2.25-5.52-1.5-1.5-3.34-2.25-5.52-2.25h-66.29c-2.18,0-4.09.75-5.73,2.25-1.5,1.5-2.25,3.34-2.25,5.52v40.31c0,2.18.75,3.96,2.25,5.32,1.64,1.36,3.48,2.05,5.52,2.05h33.76c9.68,0,18.07,3.34,25.17,10.03,6.96,6.68,10.77,14.8,11.46,24.35l-75.29-.2c-10.37,0-19.1-3.34-26.19-10.03-7.09-6.68-10.64-15.62-10.64-26.8v-49.72c0-10.09,3.61-18.75,10.84-25.98,7.23-7.23,15.89-10.84,25.98-10.84h76.52c10.36,0,19.16,3.61,26.39,10.84v-.2.2Z"/>
          <path class="cls-2" d="m426.8,376.7c0,3-1.16,4.5-3.48,4.5h-20.87c-9.14,0-17.19-3.61-24.14-10.84-6.82-7.23-10.23-15.62-10.23-25.17v-131.56c10.09,0,18.34,3.62,24.76,10.84,6.55,7.23,9.82,16.03,9.82,26.39v92.28c-.27,8.32,1.91,14.94,6.55,19.85,2.73,3,5.45,4.91,8.18,5.73l6.14,1.64c2.18.55,3.27,2.66,3.27,6.34v-.2.2Z"/>
          <path class="cls-2" d="m502.91,376.7c0,3-1.16,4.5-3.48,4.5h-20.87c-9.14,0-17.19-3.61-24.14-10.84-6.82-7.23-10.23-15.62-10.23-25.17v-131.56c10.09,0,18.34,3.62,24.76,10.84,6.55,7.23,9.82,16.03,9.82,26.39v92.28c-.27,8.32,1.91,14.94,6.55,19.85,2.73,3,5.45,4.91,8.18,5.73l6.14,1.64c2.18.55,3.27,2.66,3.27,6.34v-.2.2Z"/>
          <path class="cls-2" d="m660.25,268.46c7.09,7.23,10.64,15.89,10.64,25.98l-.2,48.9c-.82,7.77,1.43,14.32,6.75,19.64,2.86,2.86,5.52,4.78,7.98,5.73l6.14,1.43c2.18.68,3.27,2.86,3.27,6.55,0,2.86-1.09,4.3-3.27,4.3h-20.87c-9.14,0-17.12-3.61-23.94-10.84-6.82-7.09-10.23-15.35-10.23-24.76v-46.24c0-2.18-.75-4.02-2.25-5.52-1.5-1.5-3.34-2.25-5.52-2.25h-66.29c-2.18,0-4.09.75-5.73,2.25-1.5,1.5-2.25,3.34-2.25,5.52v40.31c0,2.18.75,3.96,2.25,5.32,1.64,1.36,3.48,2.05,5.52,2.05h33.76c9.68,0,18.07,3.34,25.17,10.03,6.96,6.68,10.77,14.8,11.46,24.35l-75.29-.2c-10.37,0-19.1-3.34-26.19-10.03-7.09-6.68-10.64-15.62-10.64-26.8v-49.72c0-10.09,3.61-18.75,10.84-25.98s15.89-10.84,25.98-10.84h76.52c10.36,0,19.16,3.61,26.39,10.84v-.2.2Z"/>
          <path class="cls-2" d="m753.14,257.62h60.56c-.68,9.55-4.64,17.46-11.87,23.73-7.09,6.41-15.48,9.62-25.17,9.62h-18.62l.2.2c-2.18,0-4.09.75-5.73,2.25-1.5,1.5-2.25,3.34-2.25,5.52v46.65c0,9.41-3.41,17.73-10.23,24.96-6.82,7.09-14.8,10.64-23.94,10.64h-20.87c-2.18,0-3.27-1.43-3.27-4.3,0-3.55,1.16-5.73,3.48-6.55l5.52-1.43c2.05-.54,4.5-2.25,7.37-5.11,5.32-5.32,7.84-12.21,7.57-20.67v-48.69c0-10.23,3.61-19.03,10.84-26.39,7.23-7.23,15.96-10.84,26.19-10.84l.2.41v-.21.21Z"/>
          <path class="cls-2" d="m1017.89,262.32c0,3.55-1.02,5.66-3.07,6.34l-6.14,1.84c-2.46.82-5.12,2.59-7.98,5.32-5.32,5.32-7.5,11.87-6.55,19.64l.2,48.7c0,10.23-3.62,18.89-10.84,25.98-7.23,7.23-15.96,10.84-26.19,10.84h-75.09c-10.23,0-18.96-3.61-26.19-10.84-7.23-7.09-10.84-15.75-10.84-25.98v-49.51c0-9.55,3.27-17.94,9.82-25.17,6.55-7.09,14.59-10.98,24.14-11.66v81.64c0,2.32.82,4.23,2.46,5.73,1.5,1.36,3.34,2.05,5.52,2.05h65.06c2.18,0,4.02-.68,5.52-2.05,1.64-1.5,2.46-3.41,2.46-5.73v-46.24c0-9.14,3.34-17.32,10.03-24.55,6.82-7.23,14.8-10.84,23.94-10.84h20.66c2.05,0,3.07,1.5,3.07,4.5Zm2.66,178.21c-4.78,4.91-8.87,7.37-12.28,7.37-1.5,0-2.25-.68-2.25-2.05l-.61.21-.41-3.48.2-7.16c-.55-7.09-5.39-10.84-14.53-11.25l-48.49.2c-10.37,0-19.1-3.14-26.19-9.41-7.23-6.41-10.84-14.66-10.84-24.76h87.57c9.96,0,18.21,2.86,24.76,8.59,7.23,6.27,10.84,14.73,10.84,25.37,0,5.45-2.59,10.91-7.77,16.37v-.2.2Z"/>
        </g>
        <g>
          <path class="cls-2" d="m149.15,508.48v49.51c0,10.23-3.62,18.96-10.84,26.19-7.09,7.09-15.75,10.64-25.98,10.64H37.03c-10.1,0-18.82-3.55-26.19-10.64-7.23-7.23-10.84-15.96-10.84-26.19v-49.51c0-10.09,3.61-18.75,10.84-25.98,7.37-7.23,16.09-10.84,26.19-10.84h75.29c10.23,0,18.89,3.62,25.98,10.84,7.23,7.23,10.84,15.89,10.84,25.98Zm-42.15,52.58c2.32,0,4.23-.68,5.73-2.05,1.5-1.5,2.25-3.27,2.25-5.32v-40.92c0-2.18-.75-4.02-2.25-5.52-1.5-1.5-3.41-2.25-5.73-2.25H41.94c-2.32,0-4.23.75-5.73,2.25-1.5,1.5-2.25,3.34-2.25,5.52v40.92c0,2.05.75,3.82,2.25,5.32,1.5,1.36,3.41,2.05,5.73,2.05h65.06Zm51.15,76.93c0,5.59-2.39,10.91-7.16,15.96-4.64,5.04-8.73,7.57-12.28,7.57-1.5,0-2.53-.68-3.07-2.05l-.82-10.64c-.55-6.96-5.39-10.57-14.53-10.84l-48.69.2c-10.37,0-19.1-3.21-26.19-9.62-7.09-6.41-10.64-14.66-10.64-24.76l87.77.2c9.82,0,18.07,2.86,24.76,8.59,7.23,6.27,10.84,14.73,10.84,25.37v-.2.2Z"/>
          <path class="cls-2" d="m316.31,482.09c7.09,7.23,10.64,15.89,10.64,25.98l-.2,48.9c-.82,7.77,1.43,14.32,6.75,19.64,2.86,2.86,5.52,4.78,7.98,5.73l6.14,1.43c2.18.68,3.27,2.86,3.27,6.55,0,2.86-1.09,4.3-3.27,4.3h-20.87c-9.14,0-17.12-3.61-23.94-10.84-6.82-7.09-10.23-15.35-10.23-24.76v-46.24c0-2.18-.75-4.02-2.25-5.52-1.5-1.5-3.34-2.25-5.52-2.25h-66.29c-2.18,0-4.09.75-5.73,2.25-1.5,1.5-2.25,3.34-2.25,5.52v40.31c0,2.18.75,3.96,2.25,5.32,1.64,1.36,3.48,2.05,5.52,2.05h33.76c9.68,0,18.07,3.34,25.17,10.03,6.96,6.68,10.77,14.8,11.46,24.35l-75.29-.2c-10.37,0-19.1-3.34-26.19-10.03-7.09-6.68-10.64-15.62-10.64-26.8v-49.72c0-10.09,3.61-18.75,10.84-25.98,7.23-7.23,15.89-10.84,25.98-10.84h76.52c10.36,0,19.16,3.61,26.39,10.84v-.2.2Z"/>
          <path class="cls-2" d="m426.8,590.32c0,3-1.16,4.5-3.48,4.5h-20.87c-9.14,0-17.19-3.61-24.14-10.84-6.82-7.23-10.23-15.62-10.23-25.17v-131.56c10.09,0,18.34,3.62,24.76,10.84,6.55,7.23,9.82,16.03,9.82,26.39v92.28c-.27,8.32,1.91,14.94,6.55,19.85,2.73,3,5.45,4.91,8.18,5.73l6.14,1.64c2.18.55,3.27,2.66,3.27,6.34v-.2.2Z"/>
          <path class="cls-2" d="m502.91,590.32c0,3-1.16,4.5-3.48,4.5h-20.87c-9.14,0-17.19-3.61-24.14-10.84-6.82-7.23-10.23-15.62-10.23-25.17v-131.56c10.09,0,18.34,3.62,24.76,10.84,6.55,7.23,9.82,16.03,9.82,26.39v92.28c-.27,8.32,1.91,14.94,6.55,19.85,2.73,3,5.45,4.91,8.18,5.73l6.14,1.64c2.18.55,3.27,2.66,3.27,6.34v-.2.2Z"/>
          <path class="cls-2" d="m660.25,482.09c7.09,7.23,10.64,15.89,10.64,25.98l-.2,48.9c-.82,7.77,1.43,14.32,6.75,19.64,2.86,2.86,5.52,4.78,7.98,5.73l6.14,1.43c2.18.68,3.27,2.86,3.27,6.55,0,2.86-1.09,4.3-3.27,4.3h-20.87c-9.14,0-17.12-3.61-23.94-10.84-6.82-7.09-10.23-15.35-10.23-24.76v-46.24c0-2.18-.75-4.02-2.25-5.52-1.5-1.5-3.34-2.25-5.52-2.25h-66.29c-2.18,0-4.09.75-5.73,2.25-1.5,1.5-2.25,3.34-2.25,5.52v40.31c0,2.18.75,3.96,2.25,5.32,1.64,1.36,3.48,2.05,5.52,2.05h33.76c9.68,0,18.07,3.34,25.17,10.03,6.96,6.68,10.77,14.8,11.46,24.35l-75.29-.2c-10.37,0-19.1-3.34-26.19-10.03-7.09-6.68-10.64-15.62-10.64-26.8v-49.72c0-10.09,3.61-18.75,10.84-25.98,7.23-7.23,15.89-10.84,25.98-10.84h76.52c10.36,0,19.16,3.61,26.39,10.84v-.2.2Z"/>
          <path class="cls-2" d="m753.14,471.25h60.56c-.68,9.55-4.64,17.46-11.87,23.73-7.09,6.41-15.48,9.62-25.17,9.62h-18.62l.2.2c-2.18,0-4.09.75-5.73,2.25-1.5,1.5-2.25,3.34-2.25,5.52v46.65c0,9.41-3.41,17.73-10.23,24.96-6.82,7.09-14.8,10.64-23.94,10.64h-20.87c-2.18,0-3.27-1.43-3.27-4.3,0-3.55,1.16-5.73,3.48-6.55l5.52-1.43c2.05-.54,4.5-2.25,7.37-5.11,5.32-5.32,7.84-12.21,7.57-20.67v-48.69c0-10.23,3.61-19.03,10.84-26.39,7.23-7.23,15.96-10.84,26.19-10.84l.2.41v-.21.21Z"/>
          <path class="cls-2" d="m1017.89,475.95c0,3.55-1.02,5.66-3.07,6.34l-6.14,1.84c-2.46.82-5.12,2.59-7.98,5.32-5.32,5.32-7.5,11.87-6.55,19.64l.2,48.7c0,10.23-3.62,18.89-10.84,25.98-7.23,7.23-15.96,10.84-26.19,10.84h-75.09c-10.23,0-18.96-3.61-26.19-10.84-7.23-7.09-10.84-15.75-10.84-25.98v-49.51c0-9.55,3.27-17.94,9.82-25.17,6.55-7.09,14.59-10.98,24.14-11.66v81.64c0,2.32.82,4.23,2.46,5.73,1.5,1.36,3.34,2.05,5.52,2.05h65.06c2.18,0,4.02-.68,5.52-2.05,1.64-1.5,2.46-3.41,2.46-5.73v-46.24c0-9.14,3.34-17.32,10.03-24.55,6.82-7.23,14.8-10.84,23.94-10.84h20.66c2.05,0,3.07,1.5,3.07,4.5Zm2.66,178.21c-4.78,4.91-8.87,7.37-12.28,7.37-1.5,0-2.25-.68-2.25-2.05l-.61.21-.41-3.48.2-7.16c-.55-7.09-5.39-10.84-14.53-11.25l-48.49.2c-10.37,0-19.1-3.14-26.19-9.41-7.23-6.41-10.84-14.66-10.84-24.76h87.57c9.96,0,18.21,2.86,24.76,8.59,7.23,6.27,10.84,14.73,10.84,25.37,0,5.45-2.59,10.91-7.77,16.37v-.2.2Z"/>
        </g>
      </g>
    </g>
  </g>
</svg>