<?xml version="1.0" encoding="UTF-8"?>
<svg id="Layer_2" data-name="Layer 2" xmlns="http://www.w3.org/2000/svg" viewBox="0 0 605.76 554.08">
  <defs>
    <style>
      .cls-1 {
        fill: #c4dec4;
        stroke-width: 0px;
      }
    </style>
  </defs>
  <g id="Layer_1-2" data-name="Layer 1">
    <g>
      <path class="cls-1" d="m381.25,234.25c4.99,4.79,9.83,9.43,14.53,13.95,8.99-11.29,16.98-14.6,28.05-11.13,9.19,2.89,15.45,10.97,15.15,19.56-.31,8.77-6.81,16.29-16.26,18.78-10.74,2.84-18.81-.7-27.06-11.73-3.94,4.21-7.94,8.48-11.92,12.72,3.67,3.79,7.83,8.09,12.42,12.83,7.37-8.97,17.08-14.49,30.24-8.88,8.55,3.64,13,10.31,12.59,18.84-.5,10.55-7.52,16.77-18.02,19.6,4.45,3.03,10.03,5.3,12.88,9.21,2.85,3.91,4.17,9.51,3.99,14.3-.32,8.41-7.66,14.86-16.64,16.48-11.05,1.98-18.45-1.93-25.3-12.58-5.27,4.92-10.84,10.11-16.02,14.94,2.86,2.47,8.18,5.37,10.61,9.64,2.37,4.15,3.03,9.88,2.21,14.6-1.49,8.63-9.58,14.3-19.16,15.19-9.95.92-18.24-4.43-23.78-15.66-4.84,11.11-12.98,17.69-26.49,16.08-9.74-1.17-16.02-6.7-18.63-15.13-3.31-10.68,2.28-18.31,11.77-24.33-4.1-3.32-7.94-6.44-11.82-9.59-3.97,3.15-8.14,6.45-12.66,10.03,9.06,6.67,14.2,14.91,9.68,25.84-3.18,7.7-9.41,12.37-18.47,13.34-12.76,1.37-20.66-4.74-25.93-15.37-5.04,10.46-12.94,16.11-25.11,14.9-9.3-.92-16.58-7.38-18.85-15.86-2.39-8.92,1.97-16.48,9.67-21.37-4.48-4.09-9.58-8.74-14.05-12.82-5.89,7.77-14.28,11.41-25.05,8.35-9.77-2.78-16.2-10.62-16.1-19.64.1-9.26,6.8-16.88,17.26-19.63,9.92-2.61,18.61,1.41,26.3,12.11,3.97-4.19,7.98-8.42,11.72-12.37-4.1-3.25-8.75-6.93-13.41-10.62-12.16,11.21-27.14,12.43-37.02,1.71-9.88-10.72-6.13-23.71,9.84-34.07-23.64-12.55-17.13-35.06,2-41-3.91-2.86-9.21-5.2-11.8-9.05-2.71-4.03-4.14-9.61-3.76-14.35.74-9.09,8.47-15.31,18.42-16.68,10.11-1.39,18.06,3.23,23.69,12.99,5.71-5.06,11.73-10.39,17.32-15.33-11.89-5.66-16.78-13.35-14-23.89,2.28-8.65,11.3-14.79,21.41-14.57,9.76.21,18.28,6.43,20.34,14.86,2.57,10.51-2.39,18.25-14.58,23.74,5.48,4.27,11.25,8.76,17.02,13.25-1.32-.71-2.64-1.42-3.96-2.13,5.14-4.29,10.29-8.57,15.33-12.78-7.09-4.25-13.58-12.51-8.78-24.55,3.12-7.82,9.83-12.34,18.78-12.96,12.28-.85,19.77,5.56,24.48,16.57,4.91-11.38,12.66-17.65,25.36-16.34,9.65.99,16.56,6.99,18.57,15.93,2.46,10.93-3.64,18.1-13.18,22.91,5.12,4.32,10.2,8.61,15.58,13.15,5.79-8.67,14.66-14.34,27.47-11.01,9.32,2.42,14.99,8.5,16.22,17.29,1.43,10.23-4.21,17.2-13.09,21.71Zm2.22,87.11c-.75-1.03-1.5-2.07-2.25-3.1,4.9,5.07,9.81,10.14,13.53,13.99,5.36-4.24,11.38-9.01,16.21-12.84-5.03-3.86-10.93-8.38-14.33-10.99-3.98,3.91-8.57,8.43-13.17,12.94Zm-174.14-77.03c4.32-3.63,8.78-7.38,12.9-10.84-2.57-2.89-6.82-7.68-10.05-11.32-4.92,4.23-10.51,9.04-15.42,13.26,4.02,2.85,9.4,6.66,12.56,8.9Zm95.02-40.08c4.61-3.55,9.42-7.25,13.26-10.2-4.62-4.87-9.3-9.8-13.29-14-4.16,4.41-8.72,9.24-12.98,13.76,4.06,3.26,8.7,6.98,13,10.44Zm35.39,158.67c2.55,2.97,6.63,7.71,9.63,11.19,4.87-4.57,10.03-9.41,14.51-13.61-4.03-3-9.1-6.76-12.27-9.11-3.8,3.69-7.89,7.67-11.86,11.53Zm-84.11-11.1c-2.48,1.94-7.24,5.67-11.26,8.83,4.13,4.12,8.77,8.76,12.93,12.92,3.84-4.12,8.08-8.65,10.89-11.67-4.03-3.23-8.37-6.72-12.56-10.08Zm-57.4-75.28c4.31,3.34,8.67,6.73,13.06,10.14,3.39-3.39,6.9-6.9,10.33-10.32-3.4-3.55-6.82-7.12-10.07-10.51-4.29,3.44-8.81,7.06-13.33,10.69Zm68.91-42.59c-3.22-3.84-6.2-7.4-9.08-10.84-3.95,3.97-7.97,8.01-11.81,11.87,3.48,2.76,7.32,5.79,9.85,7.8,3.86-3.09,7.4-5.92,11.03-8.83Zm95.27,1.14c-.7.74-1.39,1.48-2.09,2.22-4.33-3.97-8.66-7.93-12.99-11.9.88-.67,1.76-1.33,2.64-2-3.27,3.72-6.54,7.44-8.42,9.58,3.45,3.54,6.71,6.9,9.88,10.16,3.21-2.36,7.09-5.22,10.98-8.07Zm-21.87,84.39c3.44,3.49,6.66,6.77,9.53,9.69,4.45-3.69,8.68-7.19,12.72-10.54-3.92-2.7-7.86-5.41-11.86-8.17-3.4,2.95-6.81,5.92-10.38,9.02Zm-81.62,8.81c2.06-2.21,4.99-5.36,6.8-7.29-3.22-3.27-6.42-6.52-9.65-9.8-2.82,2.21-6.38,5-8.67,6.79,3.86,3.45,7.6,6.79,11.52,10.3Zm45.46-103.16c-2.97,3.15-5.66,6-8.55,9.06,3.07,2.57,5.93,4.96,8.87,7.43,3.06-2.5,5.93-4.83,8.81-7.19-3.06-3.11-5.85-5.95-9.14-9.3Zm46.13,42.89c-2.7,2.88-5.18,5.53-7.26,7.74,2.92,2.98,5.48,5.6,7.99,8.17,3.32-2.7,6.26-5.08,9.28-7.54-3.24-2.71-6.31-5.28-10.01-8.37Zm-86.06,7.88c-2.64-2.76-5.03-5.25-6.86-7.16-3.2,2.68-6.11,5.12-9.24,7.74,2.75,2.35,5.59,4.78,8.49,7.25,2.51-2.58,4.81-4.95,7.61-7.83Zm40.28,37.05c-3.13,2.61-5.71,4.77-8.55,7.15,3,2.71,5.58,5.04,7.25,6.54,3.18-2.73,6.08-5.24,9.03-7.78-2.18-1.67-4.79-3.66-7.73-5.91Zm-.51-42.32c-1.82,1.92-3.47,3.66-5.35,5.65,2.31,1.84,4.21,3.34,5.85,4.65,2.38-1.69,4.26-3.03,6.69-4.76-2.56-1.97-4.55-3.5-7.19-5.54Z"/>
      <path class="cls-1" d="m437.84,214.83c.15,10.74-8.72,19.23-20.37,19.51-11.96.29-21.83-8.17-22.04-18.9-.2-10.7,9.47-19.53,21.37-19.51,11.74.02,20.89,8.24,21.04,18.9Z"/>
      <path class="cls-1" d="m371.76,154.95c11.74,0,20.91,8.21,21.08,18.86.16,10.88-9.33,19.76-21.1,19.75-11.78,0-21.25-8.9-21.08-19.78.17-10.65,9.36-18.85,21.1-18.84Z"/>
      <path class="cls-1" d="m144.79,316.13c-11.58-.15-20.74-8.77-20.56-19.35.18-10.54,9.66-18.88,21.27-18.7,11.38.17,21.06,9.17,20.81,19.35-.25,10.29-10.1,18.85-21.52,18.7Z"/>
      <path class="cls-1" d="m301.07,421.71c-.11,10.54-9.39,18.89-20.98,18.86-11.58-.02-20.83-8.41-20.88-18.95-.06-10.65,9.99-19.81,21.38-19.51,11.25.3,20.59,9.23,20.48,19.6Z"/>
      <path class="cls-1" d="m347.62,422.11c-.36,10.44-10.08,18.75-21.54,18.41-11.46-.34-20.58-9.2-20.19-19.64.38-10.28,10.49-19.01,21.54-18.59,11.29.43,20.55,9.51,20.2,19.81Z"/>
      <path class="cls-1" d="m211.09,380.25c.15,10.61-8.88,19.16-20.45,19.38-11.98.22-21.52-8.29-21.48-19.17.04-10.58,9.24-18.97,20.86-19.01,11.64-.05,20.93,8.24,21.08,18.81Z"/>
      <path class="cls-1" d="m145.21,275.06c-11.39.05-20.95-8.67-20.88-19.05.07-10.1,9.23-18.58,20.32-18.82,11.28-.25,21.2,8.41,21.4,18.68.19,10.17-9.55,19.14-20.84,19.19Z"/>
      <path class="cls-1" d="m235.41,402.89c11.02.17,20.37,8.92,20.18,18.88-.19,10.04-9.79,18.55-20.74,18.38-11.02-.17-20.37-8.92-20.18-18.88.19-10.04,9.79-18.55,20.74-18.38Z"/>
      <path class="cls-1" d="m165.58,339.87c-.24,10.05-9.87,18.53-20.81,18.31-11.03-.22-20.35-8.99-20.11-18.95.24-10.05,9.87-18.53,20.81-18.31,11.03.22,20.35,8.99,20.11,18.95Z"/>
      <path class="cls-1" d="m190.09,155.6c11.06-.02,20.53,8.65,20.42,18.7-.11,10.1-9.73,18.63-20.74,18.41-10.8-.22-19.86-8.51-20.02-18.34-.16-10.05,9.27-18.75,20.34-18.77Z"/>
      <path class="cls-1" d="m416.48,399.22c-11.04-.17-20.43-8.96-20.25-18.94.19-10.05,9.84-18.61,20.8-18.44,11.04.17,20.43,8.96,20.25,18.94-.19,10.05-9.84,18.61-20.8,18.44Z"/>
      <path class="cls-1" d="m463.67,280.58c11.17.13,19.59,8.04,19.45,18.27-.15,10.18-8.83,17.84-20.06,17.71-11.17-.13-19.59-8.04-19.45-18.27.15-10.18,8.83-17.84,20.06-17.71Z"/>
      <path class="cls-1" d="m145.16,197.15c11.22.02,19.74,7.8,19.72,18.02-.02,10.21-8.57,17.97-19.79,17.95-11.22-.02-19.73-7.81-19.72-18.02.02-10.22,8.57-17.97,19.79-17.95Z"/>
      <path class="cls-1" d="m371.4,439.59c-11.16-.16-19.67-8.2-19.49-18.39.18-10.16,9-17.91,20.2-17.75,11.16.16,19.67,8.19,19.49,18.39-.18,10.16-9,17.91-20.2,17.75Z"/>
      <path class="cls-1" d="m301.42,131.56c.08,10.27-8.46,18.09-19.72,18.07-11.26-.02-19.76-7.86-19.64-18.14.11-9.95,8.41-17.56,19.32-17.71,11.3-.16,19.97,7.53,20.05,17.77Z"/>
      <path class="cls-1" d="m482.98,256.17c-.02,10.22-8.61,17.92-19.87,17.82-11.19-.1-19.57-8.01-19.37-18.28.2-9.89,8.57-17.39,19.47-17.45,11.27-.06,19.79,7.66,19.77,17.91Z"/>
      <path class="cls-1" d="m436.26,173.89c.13,10.24-8.38,18.07-19.61,18.02-10.89-.04-19.26-7.6-19.39-17.49-.13-10.24,8.38-18.07,19.61-18.03,10.89.05,19.26,7.6,19.39,17.49Z"/>
      <path class="cls-1" d="m346.3,131.97c-.13,10.15-8.81,17.74-20.05,17.55-11.11-.2-19.37-8.19-19.07-18.44.3-9.82,8.76-17.22,19.65-17.18,11.18.04,19.6,7.86,19.47,18.08Z"/>
      <path class="cls-1" d="m463.3,357.15c-10.73-.03-19.3-7.88-19.27-17.66.03-9.77,8.66-17.57,19.39-17.55,10.73.03,19.3,7.88,19.27,17.66-.03,9.77-8.66,17.57-19.39,17.55Z"/>
      <path class="cls-1" d="m190.37,438.98c-10.52.13-19.52-8.03-19.42-17.61.09-9.31,8.7-17.19,18.93-17.32,10.52-.13,19.51,8.03,19.42,17.61-.09,9.31-8.7,17.19-18.93,17.32Z"/>
      <path class="cls-1" d="m234.82,114.16c10.6-.16,19.51,7.78,19.57,17.44.06,9.65-8.75,17.69-19.35,17.64-10.28-.04-18.9-7.72-19.17-17.08-.28-9.65,8.35-17.85,18.95-18.01Z"/>
      <path class="cls-1" d="m144.88,363.12c10.44-.14,19.47,8.05,19.37,17.57-.1,9.25-8.72,17.14-18.89,17.27-10.44.14-19.47-8.05-19.36-17.57.1-9.25,8.72-17.14,18.89-17.27Z"/>
      <path class="cls-1" d="m482.39,214.99c.11,9.26-8.64,17.37-18.86,17.47-10.17.1-19.07-7.87-19.18-17.17-.11-9.28,8.62-17.37,18.86-17.47,10.17-.1,19.07,7.87,19.18,17.17Z"/>
      <path class="cls-1" d="m371.73,148.96c-10.18-.01-18.95-8.02-18.93-17.28.02-9.27,8.8-17.25,18.97-17.24,10.18.01,18.95,8.02,18.93,17.28-.02,9.27-8.8,17.25-18.97,17.24Z"/>
      <path class="cls-1" d="m416.89,404.84c10.3.07,18.26,7.42,18.19,16.8-.07,9.38-8.15,16.63-18.45,16.56-10.3-.07-18.26-7.42-18.19-16.8.07-9.38,8.15-16.63,18.45-16.56Z"/>
      <path class="cls-1" d="m145.47,157.64c10.3.15,18.05,7.57,17.79,17.02-.26,9.36-8.5,16.34-18.89,16.01-9.95-.32-17.46-7.51-17.39-16.65.07-9.41,8.12-16.54,18.49-16.38Z"/>
      <path class="cls-1" d="m298.19,463.79c.09,9.43-7.72,16.62-18.06,16.61-10.34,0-18.14-7.19-18.04-16.63.09-9.1,7.69-16.09,17.66-16.25,10.36-.17,18.35,6.88,18.44,16.27Z"/>
      <path class="cls-1" d="m463.73,396.85c-10.37.15-18.3-6.94-18.28-16.35.02-9.12,7.58-16.14,17.56-16.28,10.37-.15,18.3,6.94,18.28,16.35-.02,9.12-7.58,16.14-17.56,16.28Z"/>
      <path class="cls-1" d="m190.49,115.48c9.89.15,17.53,7.32,17.45,16.37-.08,9.32-8.27,16.4-18.58,16.07-9.84-.32-17.31-7.65-17.05-16.73.26-8.98,8.22-15.86,18.18-15.71Z"/>
      <path class="cls-1" d="m326.82,447.65c10.31.03,18.06,7.31,17.85,16.75-.21,9.08-7.96,15.92-17.99,15.89-10.31-.03-18.06-7.31-17.85-16.75.21-9.08,7.96-15.92,17.99-15.89Z"/>
      <path class="cls-1" d="m116.32,256.2c-.04,9.04-7.77,16.1-17.7,16.14-10.26.05-18.16-7.29-17.93-16.67.22-8.99,8.15-15.9,18.1-15.78,9.91.12,17.57,7.24,17.53,16.3Z"/>
      <path class="cls-1" d="m98.14,313.42c-10.29-.15-17.9-7.54-17.54-17.02.34-9.02,8.24-15.77,18.28-15.62,10.28.15,17.9,7.54,17.54,17.02-.34,9.02-8.24,15.77-18.28,15.62Z"/>
      <path class="cls-1" d="m98.75,355.54c-9.4.13-17.54-7-17.8-15.59-.27-8.83,8-16.48,17.72-16.39,9.45.09,17.37,7.35,17.39,15.96.02,8.6-7.86,15.89-17.32,16.02Z"/>
      <path class="cls-1" d="m234.5,480c-9.75-.34-17.55-8.15-16.95-16.97.59-8.61,8.81-15.41,18.22-15.09,9.75.34,17.55,8.15,16.95,16.97-.59,8.61-8.81,15.41-18.22,15.09Z"/>
      <path class="cls-1" d="m434.13,131.84c-.1,8.44-8.3,15.78-17.52,15.69-9.27-.09-17.33-7.55-17.23-15.96.1-8.44,8.29-15.78,17.52-15.69,9.27.09,17.33,7.55,17.23,15.96Z"/>
      <path class="cls-1" d="m389.05,463.66c.22,8.43-7.85,15.98-17.17,16.06-9.28.08-17.48-7.35-17.43-15.82.04-8.2,7.71-15.38,16.77-15.69,9.21-.32,17.61,6.96,17.83,15.45Z"/>
      <path class="cls-1" d="m480.75,173.8c.25,8.38-7.7,15.95-17,16.18-9.21.23-17.51-7.01-17.76-15.48-.25-8.38,7.7-15.95,17-16.18,9.21-.23,17.51,7.01,17.76,15.48Z"/>
      <path class="cls-1" d="m144.74,405.94c9.34-.22,17.5,7.05,17.49,15.59-.01,8.26-7.62,15.34-16.72,15.56-9.34.22-17.5-7.05-17.49-15.59.01-8.26,7.62-15.34,16.72-15.56Z"/>
      <path class="cls-1" d="m115.61,215.31c-.13,8.55-8.39,15.75-17.69,15.4-9.11-.34-16.63-7.52-16.51-15.75.13-8.55,8.39-15.75,17.69-15.4,9.11.34,16.63,7.52,16.51,15.75Z"/>
      <path class="cls-1" d="m508.56,283.22c9.3.1,16.77,7.06,16.66,15.52-.11,8.47-7.75,15.27-17.04,15.17-9.3-.1-16.77-7.06-16.66-15.52.11-8.47,7.75-15.27,17.04-15.17Z"/>
      <path class="cls-1" d="m524.97,256.31c-.11,8.6-7.53,15.11-17.01,14.92-9.42-.19-16.5-7.04-16.19-15.67.3-8.28,7.46-14.56,16.61-14.56,9.47,0,16.69,6.67,16.59,15.31Z"/>
      <path class="cls-1" d="m524.54,340.14c-.31,8.22-7.69,14.43-16.82,14.14-9.03-.29-15.84-7.01-15.53-15.32.31-8.22,7.7-14.43,16.82-14.14,9.03.29,15.84,7.01,15.53,15.32Z"/>
      <path class="cls-1" d="m343.25,90.55c.09,8.44-6.73,14.95-15.92,15.2-9.57.26-17-6.2-17.09-14.86-.09-8.73,7.13-15.3,16.72-15.2,9.2.09,16.2,6.48,16.29,14.86Z"/>
      <path class="cls-1" d="m298.34,91.09c-.2,8.58-7.72,15.03-17.2,14.75-9.4-.27-16.39-7.2-15.99-15.84.39-8.28,7.62-14.48,16.78-14.39,9.44.09,16.6,6.85,16.4,15.48Z"/>
      <path class="cls-1" d="m463.18,436.13c-8.91-.1-16.19-7.05-15.85-15.15.32-7.84,7.63-14.17,16.23-14.07,8.91.1,16.19,7.05,15.85,15.15-.32,7.84-7.63,14.17-16.23,14.07Z"/>
      <path class="cls-1" d="m206.25,463.7c.15,8.28-6.95,14.91-16.03,14.95-9.09.05-16.27-6.5-16.22-14.78.05-7.99,6.89-14.37,15.63-14.59,9.1-.23,16.47,6.16,16.62,14.41Z"/>
      <path class="cls-1" d="m235.03,76.08c9.06-.05,16.34,6.67,16.18,14.92-.16,7.95-7.24,14.32-15.98,14.37-9.06.05-16.34-6.67-16.18-14.92.16-7.95,7.24-14.32,15.98-14.37Z"/>
      <path class="cls-1" d="m114.63,380.72c-.1,8.26-7.43,14.69-16.53,14.5-9.05-.19-16.03-6.94-15.72-15.23.3-7.95,7.35-14.13,16.12-14.13,9.09,0,16.23,6.58,16.12,14.87Z"/>
      <path class="cls-1" d="m161.06,132.06c-.23,7.74-7.65,14.27-16.12,14.16-8.8-.11-16.22-7.28-15.74-15.23.47-7.74,8.1-14.12,16.51-13.8,8.51.32,15.58,7.17,15.35,14.87Z"/>
      <path class="cls-1" d="m508.41,200.68c8.49.02,15.86,6.77,15.84,14.49-.02,7.73-7.43,14.45-15.91,14.42-8.49-.02-15.86-6.77-15.84-14.49.02-7.73,7.43-14.44,15.91-14.42Z"/>
      <path class="cls-1" d="m371.37,76.33c8.46-.22,16.07,6.47,16.18,14.23.11,7.72-7.34,14.57-15.83,14.55-8.18-.01-15.42-6.38-15.78-13.86-.37-7.67,6.9-14.7,15.43-14.92Z"/>
      <path class="cls-1" d="m432.39,464.29c-.23,7.76-7.99,14.34-16.39,13.9-8.25-.43-15.1-7.13-14.88-14.54.23-7.76,7.99-14.34,16.39-13.9,8.25.43,15.1,7.13,14.88,14.54Z"/>
      <path class="cls-1" d="m98.35,160.14c8.32-.09,15.34,6.08,15.56,13.69.23,7.84-7,14.48-15.63,14.35-8.33-.13-15.18-6.47-15.16-14.05.02-7.58,6.89-13.89,15.23-13.98Z"/>
      <path class="cls-1" d="m523.15,380.66c-.07,7.62-6.35,13.31-14.72,13.33-8.67.03-15.1-6.02-14.84-13.96.25-7.55,6.74-13.11,15.13-12.97,8.32.15,14.51,5.97,14.44,13.59Z"/>
      <path class="cls-1" d="m463.12,145.03c-8.26-.11-14.51-5.99-14.39-13.55.12-7.52,6.58-13.21,14.88-13.11,8.26.11,14.51,5.99,14.39,13.55-.12,7.52-6.58,13.21-14.88,13.11Z"/>
      <path class="cls-1" d="m67.82,256.02c.07,7-6.5,13.07-14.2,13.14-7.68.06-14.36-5.92-14.43-12.93-.07-7,6.5-13.07,14.2-13.14,7.68-.06,14.36,5.92,14.43,12.93Z"/>
      <path class="cls-1" d="m204.7,90.6c.07,7.54-6.37,13.42-14.64,13.39-8.26-.03-14.64-5.97-14.51-13.52.13-7.21,6.33-12.89,14.24-13.03,8.28-.15,14.84,5.64,14.91,13.15Z"/>
      <path class="cls-1" d="m294.61,504.86c.05,7.4-6.65,13.42-14.78,13.27-7.81-.14-14.12-5.98-14.17-13.09-.05-7.4,6.65-13.42,14.78-13.27,7.81.14,14.12,5.98,14.17,13.09Z"/>
      <path class="cls-1" d="m326.46,491.81c7.79-.14,14.44,5.6,14.71,12.7.28,7.37-6.44,13.64-14.55,13.58-7.8-.06-14.26-5.96-14.31-13.06-.05-7.09,6.36-13.07,14.15-13.21Z"/>
      <path class="cls-1" d="m53.47,283.96c7.79-.02,14.33,5.83,14.46,12.93.13,7.38-6.69,13.54-14.8,13.35-7.79-.19-14.15-6.2-14.06-13.29.09-7.1,6.6-12.97,14.4-12.99Z"/>
      <path class="cls-1" d="m522.53,174.25c-.07,6.93-6.89,12.97-14.46,12.8-7.62-.17-14.17-6.48-13.86-13.35.31-6.67,6.77-12.38,14.06-12.44,7.58-.06,14.32,6.08,14.25,12.98Z"/>
      <path class="cls-1" d="m98.3,408.71c7.58-.12,14.39,6.08,14.27,12.98-.12,6.67-6.53,12.52-13.85,12.63-7.58.12-14.39-6.08-14.27-12.98.12-6.67,6.53-12.51,13.85-12.63Z"/>
      <path class="cls-1" d="m416.71,103.53c-7.61-.03-14.3-6.33-14.01-13.21.28-6.68,6.81-12.43,14.11-12.4,7.61.03,14.3,6.33,14.01,13.21-.28,6.68-6.81,12.43-14.11,12.4Z"/>
      <path class="cls-1" d="m159.18,464.03c-.05,6.93-6.98,13.02-14.53,12.74-7.34-.27-13.64-6.23-13.59-12.87.05-6.93,6.98-13.02,14.53-12.74,7.34.27,13.64,6.23,13.59,12.87Z"/>
      <path class="cls-1" d="m249.07,504.9c.03,6.7-6.31,12.6-13.69,12.74-7.67.15-14.41-6.03-14.19-13.01.21-6.73,6.73-12.46,14.09-12.38,7.38.08,13.76,5.93,13.79,12.65Z"/>
      <path class="cls-1" d="m67.15,339.85c-.19,6.92-6.6,12.4-14.18,12.13-7.6-.27-13.51-6.18-13.1-13.09.4-6.64,6.46-11.83,13.76-11.76,7.61.07,13.7,5.81,13.52,12.73Z"/>
      <path class="cls-1" d="m371.83,517c-7.49.04-13.18-5.01-13.32-11.8-.14-7.11,5.74-12.46,13.56-12.31,7.45.14,12.98,5.34,12.92,12.16-.06,6.8-5.69,11.91-13.16,11.95Z"/>
      <path class="cls-1" d="m66.56,215.24c-.06,6.85-5.82,11.93-13.38,11.78-7.53-.14-13-5.45-12.74-12.36.24-6.52,5.76-11.38,12.97-11.42,7.55-.04,13.2,5.12,13.14,12Z"/>
      <path class="cls-1" d="m463.33,452.29c6.93-.02,12.72,5.14,12.85,11.46.14,6.59-5.95,12.08-13.18,11.88-6.93-.19-12.55-5.52-12.45-11.82.09-6.32,5.85-11.5,12.78-11.52Z"/>
      <path class="cls-1" d="m553.41,310.18c-6.87.02-12.77-5.31-12.79-11.58-.02-6.26,5.83-11.63,12.71-11.65,6.87-.02,12.77,5.31,12.79,11.58.02,6.26-5.83,11.63-12.71,11.65Z"/>
      <path class="cls-1" d="m282.35,38.27c6.83.35,12.56,6.29,11.94,12.39-.61,5.96-6.74,10.87-13.16,10.55-6.83-.35-12.56-6.29-11.94-12.39.61-5.95,6.74-10.87,13.16-10.55Z"/>
      <path class="cls-1" d="m520.96,421.64c-.09,6.21-6.38,11.65-13.13,11.34-6.51-.29-12.14-5.7-12.06-11.59.09-6.21,6.38-11.65,13.13-11.34,6.51.29,12.14,5.71,12.06,11.59Z"/>
      <path class="cls-1" d="m565.97,256.39c-.18,6.21-6.56,11.58-13.29,11.19-6.51-.38-12.07-5.86-11.89-11.73.18-6.21,6.56-11.58,13.29-11.19,6.51.38,12.07,5.86,11.89,11.73Z"/>
      <path class="cls-1" d="m98.14,143.17c-6.82-.21-12.68-6.05-12.21-12.17.46-5.94,6.5-10.96,12.95-10.77,6.82.21,12.68,6.05,12.21,12.17-.46,5.94-6.5,10.96-12.95,10.77Z"/>
      <path class="cls-1" d="m339.13,49.8c-.04,5.89-5.77,11.14-12.25,11.21-6.77.08-12.81-5.57-12.51-11.7.29-5.92,6.21-11,12.65-10.85,6.49.15,12.16,5.45,12.11,11.34Z"/>
      <path class="cls-1" d="m145.49,102c-6.42.2-12.4-4.84-12.75-10.76-.36-6.12,5.63-11.81,12.41-11.8,6.47.01,12.25,5.22,12.35,11.12.11,5.87-5.52,11.23-12.01,11.43Z"/>
      <path class="cls-1" d="m202.35,504.78c.11,5.98-5.45,11.2-12.04,11.3-6.57.1-12.3-4.96-12.41-10.96-.11-5.98,5.45-11.2,12.04-11.3,6.57-.1,12.3,4.96,12.41,10.96Z"/>
      <path class="cls-1" d="m41.46,379.99c.33-6.11,6.13-10.8,12.84-10.4,6.73.41,11.75,5.71,11.19,11.84-.54,5.85-5.96,10.26-12.38,10.07-6.71-.2-11.98-5.41-11.65-11.51Z"/>
      <path class="cls-1" d="m565.22,339.61c-.04,6.27-5.42,10.95-12.31,10.72-6.54-.22-11.41-4.86-11.38-10.85.04-6.27,5.42-10.95,12.31-10.72,6.54.22,11.41,4.86,11.38,10.85Z"/>
      <path class="cls-1" d="m416.76,494.64c6.52,0,11.53,4.74,11.32,10.68-.2,5.63-5.13,9.95-11.33,9.95-6.52,0-11.53-4.74-11.32-10.68.2-5.63,5.13-9.95,11.33-9.95Z"/>
      <path class="cls-1" d="m246.71,50.34c-.32,6.02-5.53,10.25-12.24,9.95-6.61-.3-11.26-5.03-10.93-11.15.32-6.02,5.52-10.25,12.24-9.95,6.61.3,11.26,5.03,10.93,11.15Z"/>
      <path class="cls-1" d="m564.64,214.88c.15,5.57-4.68,10.28-10.78,10.52-6.43.25-11.81-4.5-11.75-10.36.06-5.58,5.05-10.11,11.18-10.15,6.12-.04,11.2,4.43,11.35,10Z"/>
      <path class="cls-1" d="m371.47,39.54c6.03-.15,11.33,4.44,11.49,9.94.16,5.49-4.87,10.32-10.92,10.46-6.03.15-11.33-4.44-11.49-9.94-.16-5.49,4.87-10.32,10.92-10.46Z"/>
      <path class="cls-1" d="m53.41,184.29c-6.03-.06-11.2-4.94-11.03-10.41.17-5.48,5.66-10.13,11.63-9.86,5.7.25,10.57,4.85,10.63,10.04.06,5.48-5.21,10.28-11.23,10.23Z"/>
      <path class="cls-1" d="m519.42,131.95c-.16,5.44-5.81,10.18-11.71,9.81-5.66-.35-10.53-5.18-10.38-10.29.16-5.45,5.81-10.18,11.71-9.81,5.66.35,10.53,5.18,10.38,10.29Z"/>
      <path class="cls-1" d="m463.23,80.66c5.96-.08,11.34,4.89,11.18,10.3-.15,5.16-5.25,9.75-10.91,9.82-5.95.08-11.34-4.89-11.18-10.3.15-5.16,5.25-9.75,10.91-9.82Z"/>
      <path class="cls-1" d="m108.57,464.07c-.06,5.26-4.38,9.11-10.18,9.05-5.78-.06-10.01-3.99-9.94-9.27.06-5.26,4.38-9.11,10.18-9.05,5.78.06,10,3.99,9.94,9.27Z"/>
      <path class="cls-1" d="m553.44,389.58c-5.8.03-10.07-3.89-10-9.17.07-5.26,4.48-9.2,10.27-8.89,5.95.31,9.26,3.35,9.57,8.78.3,5.27-4.05,9.25-9.83,9.28Z"/>
      <path class="cls-1" d="m190.67,40.85c4.98.28,8.64,2.9,9.15,8.38.49,5.21-4,9.53-9.73,9.34-6-.2-9.36-3.22-9.66-8.68-.28-4.93,3.93-8.84,10.23-9.04Z"/>
      <path class="cls-1" d="m62.97,421.56c-.78,4.98-3.74,8.09-9.33,8.46-5.05.33-10.05-4.36-9.47-8.92.64-5,4.01-8.17,9.59-8.03,5.56.14,8.5,3.5,9.2,8.49Z"/>
      <path class="cls-1" d="m155,502.98c-1.36,7.19-4.38,10.26-9.99,10.47-5.08.19-9.93-4.62-9.2-9.14.8-4.98,4.45-8.63,9.75-7.59,3.82.75,6.92,4.49,9.44,6.27Z"/>
      <path class="cls-1" d="m425.9,47.48c-.83,7.26-3.83,10.36-9.46,10.23-5.21-.13-8.44-3.14-8.43-7.89.02-5.12,3.61-8.66,9.01-7.83,3.56.55,6.58,3.98,8.88,5.5Z"/>
      <path class="cls-1" d="m289.29,545.83c-.87,5.28-3.97,8.48-9.54,8.24-5.53-.24-8.87-3.61-8.55-8.67.3-4.66,3.74-7.65,8.94-7.62,5.64.03,8.43,3.4,9.15,8.05Z"/>
      <path class="cls-1" d="m562.49,174c-.56,4.93-3.47,8.27-9.05,8.29-5.56.02-9.02-3.2-9.01-8.26.01-4.72,3.35-7.82,8.49-8.02,5.58-.22,8.7,2.91,9.57,7.99Z"/>
      <path class="cls-1" d="m8.58,289.26c5.38.46,8.5,3.05,8.42,7.96-.08,4.9-3.26,7.69-8.63,7.62-5.38-.06-8.43-2.96-8.37-7.85.06-4.93,3.32-7.39,8.58-7.73Z"/>
      <path class="cls-1" d="m516.83,463.79c-.3,4.84-2.96,7.78-8.43,7.78-5.43,0-8.42-2.82-8.37-7.76.05-4.57,2.9-7.27,7.92-7.44,5.41-.18,8.34,2.49,8.87,7.42Z"/>
      <path class="cls-1" d="m335.36,545.64c-.24,4.79-2.83,7.85-8.24,8.03-5.34.18-8.66-2.49-8.86-7.4-.2-4.86,2.73-7.88,8.13-8.07,5.36-.2,8.35,2.54,8.98,7.44Z"/>
      <path class="cls-1" d="m8.27,248.4c5.68.43,8.73,3.03,8.57,7.97-.16,4.97-3.44,7.54-8.81,7.34-5.02-.18-7.81-2.91-7.89-7.48-.08-5.05,3.17-7.38,8.13-7.83Z"/>
      <path class="cls-1" d="m243.33,545.51c-.63,4.89-3.15,7.72-8.21,7.69-5-.03-7.97-2.72-7.96-7.27,0-4.55,2.98-7.23,7.98-7.26,5.08-.03,7.44,2.94,8.19,6.84Z"/>
      <path class="cls-1" d="m107.79,88.74c-1.52,6.18-3.94,9.09-8.98,9.25-5,.15-8.08-2.44-8.27-6.99-.19-4.55,2.8-7.88,7.63-7.34,3.39.38,6.43,3.29,9.62,5.08Z"/>
      <path class="cls-1" d="m17.65,341.4c-3.17,1.8-6.21,4.8-9.55,5.12-4.76.45-8.4-3.18-7.2-7.41.76-2.69,4.89-6.28,7.61-6.35,3.02-.08,6.15,3.38,9.24,5.3-.03,1.11-.06,2.23-.09,3.34Z"/>
      <path class="cls-1" d="m380.54,547.59c-3,1.79-6.25,5.25-8.92,4.91-2.82-.36-7.08-4.4-7.01-6.74.07-2.34,4.57-6.17,7.39-6.39,2.7-.21,5.75,3.41,8.64,5.35-.03.96-.07,1.92-.1,2.87Z"/>
      <path class="cls-1" d="m463.14,515.11c-3.54-4.71-7.4-7.59-7.12-10.07.3-2.61,4.23-6.34,7.18-6.89,4.74-.88,8.51,2.67,7.71,7.08-.52,2.87-4.01,5.3-7.77,9.88Z"/>
      <path class="cls-1" d="m62.06,133.51c-3.01,1.68-6.37,5.02-8.94,4.58-2.75-.47-6.25-4.36-6.58-7.05-.22-1.79,4.53-5.73,7.05-5.73,2.87,0,5.74,3.32,8.61,5.2-.05,1-.1,2-.15,3Z"/>
      <path class="cls-1" d="m18.73,215.3c-4.71,2.98-7.27,5.8-10.2,6.17-4.63.59-8.03-2.73-6.93-6.75.67-2.46,4.6-5.61,7.26-5.77,2.52-.15,5.28,3.21,9.87,6.34Z"/>
      <path class="cls-1" d="m551.82,428.77c-1.79-2.48-5.28-5.19-4.91-7.36.4-2.33,4.2-5.37,6.93-5.77,1.77-.26,5.94,3.59,6.02,5.7.1,2.42-3.13,4.94-4.92,7.42h-3.13Z"/>
      <path class="cls-1" d="m199.08,546.18c-4.33,2.54-6.96,5.29-9.1,5.01-2.26-.3-5.65-3.55-5.58-5.43.07-1.88,3.69-4.92,5.96-5.08,2.17-.15,4.6,2.74,8.72,5.51Z"/>
      <path class="cls-1" d="m154.66,49.7c-4.42,2.86-7.25,6.03-9.22,5.63-2.65-.54-4.62-3.82-6.89-5.92,2.25-1.88,4.36-5.07,6.78-5.27,2.28-.19,4.89,2.75,9.33,5.57Z"/>
      <path class="cls-1" d="m599.71,290.41c3.05,3.76,6.22,5.98,6.05,7.94-.19,2.07-3.58,3.9-5.57,5.84-2.13-1.81-5.65-3.45-5.98-5.49-.31-1.96,2.72-4.35,5.5-8.28Z"/>
      <path class="cls-1" d="m508.54,82.32c2.96,3.98,6.19,6.47,5.76,8.19-.57,2.3-3.99,4.01-6.19,5.97-2.02-1.88-5.64-3.75-5.66-5.65-.03-2.25,3.04-4.53,6.09-8.52Z"/>
      <path class="cls-1" d="m326.22.79c3.09,3.71,6.01,5.7,6.12,7.81.09,1.77-3.29,5.32-4.77,5.17-2.41-.25-5.91-2.6-6.38-4.57-.44-1.85,2.44-4.36,5.04-8.41Z"/>
      <path class="cls-1" d="m17.25,380.17c-4.12,2.76-6.55,5.62-8.62,5.42-2.2-.21-5.18-3.1-5.69-5.24-.32-1.35,3.16-4.8,5.1-4.91,2.32-.13,4.81,2.31,9.21,4.73Z"/>
      <path class="cls-1" d="m281.77,0c2.61,3.32,5.66,5.57,5.25,7.05-.57,2.1-3.68,3.62-5.7,5.39-1.75-1.78-4.73-3.48-4.88-5.37-.14-1.79,2.69-3.78,5.33-7.07Z"/>
      <path class="cls-1" d="m591.1,256.35c4.35-2.72,6.96-5.59,8.97-5.28,2.16.34,4.57,3.46,5.26,5.76.33,1.1-3.2,4.5-4.8,4.41-2.52-.15-4.9-2.38-9.43-4.89Z"/>
      <path class="cls-1" d="m462.01,54.92c-1.22-1.8-3.35-3.58-3.37-5.39-.02-1.35,2.68-2.73,4.16-4.1,1.83,1.78,4.5,3.33,5.2,5.43.53,1.58-1.46,3.87-2.32,5.84-1.23-.59-2.45-1.18-3.68-1.77Z"/>
      <path class="cls-1" d="m552.29,125.18c2.64,3.19,4.99,4.98,5.52,7.13.25,1.03-3.13,4.02-4.57,3.86-1.86-.21-4.49-2.5-4.81-4.21-.3-1.62,1.94-3.64,3.86-6.78Z"/>
      <path class="cls-1" d="m601.24,335.24v10.78c-3.72-2.65-7.41-3.96-7.79-5.83-.89-4.4,2.41-5.93,7.79-4.94Z"/>
      <path class="cls-1" d="m54.28,468.47c-1.66-2.26-3.32-4.52-4.98-6.78.21-.64.43-1.28.64-1.92,2.52.52,6.11.32,7.26,1.75,1.14,1.42-.19,4.48-.44,6.81l-2.47.14Z"/>
      <path class="cls-1" d="m101.16,508.75c-2.49-1.46-4.99-2.91-7.48-4.37,0-.73-.02-1.45-.03-2.18,2.52-.34,5.81-1.69,7.34-.73,1.63,1.03,1.6,4.25,2.3,6.51-.71.25-1.42.51-2.13.76Z"/>
    </g>
  </g>
</svg>