<?xml version="1.0" encoding="UTF-8"?>
<svg id="Layer_2" data-name="Layer 2" xmlns="http://www.w3.org/2000/svg" viewBox="0 0 464.63 210.29">
  <defs>
    <style>
      .cls-1 {
        fill: #d6ffe0;
      }

      .cls-1, .cls-2 {
        stroke-width: 0px;
      }

      .cls-2 {
        fill: #eacee7;
      }
    </style>
  </defs>
  <g id="Layer_1-2" data-name="Layer 1">
    <g>
      <path class="cls-1" d="m55.14,91.48c1.72,0,1.72-1.87,3.19-4.01,4.17-9.09,6.86-14.71,11.03-23.27l4.66-12.3c1.23-2.41,4.66-8.02,5.15-10.43.49-2.14.98-2.67,1.72-5.08.25-1.07,3.68-7.49,4.17-8.56,6.37,1.6,11.27,3.48,17.4,6.95-1.72,3.21-2.21,4.81-2.94,6.95-1.96,4.28-5.64,9.63-6.13,10.97l-4.41,11.5c-1.23,2.67-2.7,5.35-4.41,8.02-.25.8-.73,2.14-1.47,2.94-2.94,5.35-10.54,24.07-13.72,28.35-2.45,5.35-4.17,8.56-6.37,13.91-.24,1.87-1.22,3.48-1.96,5.08-.49,1.6-1.23,3.48-2.7,5.35-1.22.53-10.29,1.87-12.01,1.34-1.47-.54-3.68-6.69-4.41-7.49l-4.17-6.15c-.98-1.87-3.92-8.83-7.6-13.91l-4.9-10.16c-.98-2.41-3.43-7.49-4.9-9.63-1.23-1.6-1.47-3.74-2.94-7.49-1.71-1.6-3.92-8.83-7.11-12.3-.49-1.07-2.7-4.55-4.17-6.69-1.71-3.74-3.43-6.95-6.13-12.04,0,0,.49-1.34,1.96-2.14,1.96-1.87,3.92-4.01,8.33-6.15l8.58-7.22c1.72,0,2.94,1.6,2.94,1.6,4.17,4.55,5.15,9.9,8.58,14.71,1.96,3.75,6.13,13.91,8.33,17.39,5.15,7.49,10.54,19.26,14.7,26.75.25.54,1.23,2.94,1.72,3.21Z"/>
      <path class="cls-1" d="m137.97,121.71c0,1.07-.25,1.87-.74,2.41-3.19.54-8.09,1.34-11.52,1.07-2.94-.27-6.37.54-7.6.54,0-2.14-.49-3.48-.24-6.69.24-2.94,0-6.42,0-9.09v-13.11c-.25-8.29-.25-18.19-.49-21.13-.25-3.21.49-6.42.49-9.63-.25-5.08,0-10.16,0-15.25,0-4.28-.49-12.57,0-16.85,2.7-.53,6.86-.53,11.27-.8,3.68-.27,7.84-.27,9.31-.27.49,0,.25,2.94.25,3.48-.25,8.83.24,14.71-.25,21.93.25,7.22,0,11.5-.49,18.46-.25,2.14.74,21.13.49,27.28.49,6.95,0,12.84-.49,17.65ZM117.63,6.15c0-1.6-.25-3.21-.25-4.55,0-.53.25-1.07.25-1.6h17.64q1.72,0,1.72,1.6v17.39c-3.68.54-18.87.54-19.12-.54-.25-.8-.25-1.6-.25-2.67-.25-1.87,0-5.88,0-9.63Z"/>
      <path class="cls-1" d="m232.81,78.64c-.98,1.07-3.43,1.34-4.9,1.34-2.21.54-6.13.54-8.33.54-4.41,0-5.64.27-10.78.8l-14.7,1.34v3.21c0,4.01.74,7.76,3.43,11.5,1.47,2.67,4.17,5.62,6.37,6.42,0,0,4.9,2.41,7.11,2.14,8.82,0,11.27-2.41,17.15-5.62,1.23,0,2.94-2.14,3.68-2.41,1.47-.54,5.64-4.55,7.11-5.35.98.8.25,5.88.74,9.36,0,0,.25,4.81,0,8.29-3.43,4.01-1.96,2.94-6.13,7.22-3.19,3.48-6.13,5.35-9.31,6.42-3.68,2.14-8.58,2.68-11.03,3.75-2.7.53-6.13.53-6.13.53-6.13,0-12.01.54-18.38-2.94-2.21.27-7.6-2.14-8.82-3.74-3.43-2.14-6.13-5.88-9.31-8.29-4.41-3.48-5.88-7.49-7.6-11.77-1.72-3.21-2.94-7.49-4.17-11.23,0-3.74-.25-7.49-.25-10.97v-9.9c0-6.42,2.94-16.58,6.37-23,0,0,2.7-3.21,5.88-6.69.98-.27,1.96-1.07,4.17-2.41.98-.53,2.45-2.94,4.9-3.74,3.68-1.34,7.11-3.48,8.82-3.48,2.21,0,9.31.54,14.95.8,2.94.27,4.9,1.34,5.88,1.34,2.45.27,4.17.53,6.13,1.34,5.88,2.14,8.09,4.55,10.05,6.95,1.23,1.6,2.45,4.55,3.68,6.15,1.47,2.14,3.19,6.42,3.92,9.9.74,2.94.98,8.29.98,11.77s-.25,4.55-.25,7.76c0,.8-.49,1.87-1.23,2.67Zm-20.34-22.2c-2.7-4.55-8.33-5.08-11.76-4.28-2.21.53-2.45,1.6-3.68,3.74-.49.54-.74,1.34-1.47,2.14-.49.8-.74,2.14-.98,3.21-.49,1.6-.49,1.87,0,4.55,2.45,1.6,16.91,1.6,19.36,0,.25-.27-.98-1.87-.98-5.35,0-.8,0-3.21-.49-4.01Z"/>
      <path class="cls-1" d="m310.99,104.85c.74-.27.25-2.14.74-4.01l3.92-12.57,1.96-4.28c1.47-3.21,2.94-6.42,4.17-11.77.49-1.34.74-2.94,1.23-4.55.49-1.6,1.47-3.48,1.71-4.28l1.96-8.56h13.48c2.94,0,2.21,0,3.92,3.48,0,1.6,1.72,3.48,3.19,6.95,1.72,5.08,3.19,10.43,6.37,15.25,1.22,2.67,4.66,13.91,8.09,20.86.49,1.34.98,2.67,1.96,3.75,1.47-.54.98-2.14,2.45-3.75,1.72-5.08,3.68-9.63,4.41-15.51,1.23-5.08,3.68-10.43,5.15-15.51,2.94-6.42,5.39-12.04,6.62-18.99,1.23-3.48,1.72-5.35,1.72-6.69,1.72-3.48,2.21-7.22,2.7-8.83,1.47-1.87.74-1.87,2.21-1.87.98-.27,1.96,0,3.43,0,2.94-.27,8.09,0,10.78,0,2.21,0,9.07-.27,12.5,0,.25.8-.49,1.6-.74,3.48l-7.35,18.72c-1.96,3.74-3.68,8.56-5.15,12.57-2.21,5.62-5.64,10.7-8.09,18.19-1.23,3.75-2.94,7.49-4.41,10.97-2.21,3.48-3.43,6.15-4.9,9.9l-1.47,3.74c-1.96,5.35-4.66,10.43-6.13,15.78-1.72,0-1.96-.27-3.19.27-1.23,0-1.23.53-4.17-.27,0,0-3.68-.27-8.09-.27-3.19,0-5.15.27-6.86.27-.73,0-4.17-9.9-5.15-11.5l-4.17-9.63-2.45-5.08c-1.72-4.01-3.43-6.95-5.64-11.77-.98-1.6-1.96-4.55-2.21-3.48l-1.47,5.08c0,1.87-2.7,5.88-2.94,7.76l-3.68,12.3c-.74,2.14-2.7,7.49-3.68,9.09l-.98,4.01c-.49,2.14-.49,2.94-1.23,3.21-3.68,0-5.64-.27-8.58-.54l-8.33.27c-3.68,0-8.58-1.34-10.29-1.34-.74-.27-.25-.8-.98-2.14-2.21-4.01-4.41-6.69-6.13-10.16-2.94-4.01-3.68-9.9-6.13-13.91-1.72-4.28-4.9-9.63-7.11-14.44-3.43-7.22-5.39-10.97-6.13-13.64l-5.64-13.11c-1.72-3.48-3.19-8.56-4.9-12.3-1.72-1.34-4.17-10.16-6.37-13.64-.74-1.07-1.22-2.94-1.22-2.94,0-.27,1.96-.54,3.43-.54,3.68-.54,8.33.8,12.01,0h7.6c2.21,0,5.88,0,7.35.27,1.22,4.01,4.66,10.16,5.39,11.77l3.43,9.09c.98,2.41,2.21,9.36,5.64,16.05,2.21,5.35,4.41,13.64,7.35,16.85,2.21,2.94,5.64,14.98,7.6,18.46,0,0,0,1.6,1.47,3.48Z"/>
    </g>
    <g>
      <path class="cls-2" d="m259.71,182.48c0,.36-.09.64-.27.82-1.19.18-3.01.46-4.29.36-1.09-.09-2.37.18-2.83.18,0-.73-.18-1.19-.09-2.28.09-1,0-2.19,0-3.1v-4.47c-.09-2.83-.09-6.2-.18-7.2-.09-1.09.18-2.19.18-3.28-.09-1.73,0-3.47,0-5.2,0-1.46-.18-4.29,0-5.75,1-.18,2.55-.18,4.2-.27,1.37-.09,2.92-.09,3.47-.09.18,0,.09,1,.09,1.19-.09,3.01.09,5.02-.09,7.48.09,2.46,0,3.92-.18,6.29-.09.73.27,7.21.18,9.3.18,2.37,0,4.38-.18,6.02Zm-7.57-39.4c0-.55-.09-1.09-.09-1.55,0-.18.09-.36.09-.55h6.57q.64,0,.64.55v5.93c-1.37.18-7.02.18-7.11-.18-.09-.27-.09-.55-.09-.91-.09-.64,0-2.01,0-3.28Z"/>
      <path class="cls-2" d="m269.29,150.74c.18-.09,1.28-.09,1.28-.09.64-.09,1.19,0,1.82-.09h2.74c.18,0,.55.36.64.46l.18.82s.27,1,.27,2.19c0,0,.09,1,.18,1.09.46-.46.64-1.19,1-1.37.82-.64.46-.36,1.92-1.28,1.09-.55,1.73-.73,3.65-1.73.73-.36,4.01-.91,5.65-.82,1.28.09,1.92.36,3.37.55.55.09,2.46.18,2.92.46,3.01,1.73,4.74,2.64,6.02,4.65.18.27.82.46,1.37,1.09.55.64,1.28,1.92,1.28,2.19.46,2.01,1.28,3.01,1.37,5.02.09.91.82,2.19.82,3.37s.27,2.46,0,5.29c0,.82.09,1.55.09,2.28v4.2c0,.82,0,1.55-.09,2.28,0,1,.09,1.55.09,2.55,0,.18,0,.64-.18.73s-.82.09-1,.09c-1.09,0-2.01.09-3.1,0l-2.74-.27c-.46-.09-1.64.18-1.82-.27-.09-2.83,0-3.56,0-4.56,0-.64-.18-1.46-.27-3.01l.27-4.83c-.09-2.55-.27-1.92-.27-4.47,0-2.19-.91-4.38-2.01-6.57-.64-1.19-1.55-2.19-3.1-2.92-.18-.09-.64-.27-.91-.27l-2.1-.18c-2.01-.09-4.74,1-5.2,1.82-.82,1.46-1.28,2.01-1.73,2.74-.18.64-1.28,4.19-1.28,6.48,0,.82,0,1.64-.09,2.37l-.18,2.55-.55,3.47c0,1.19,0,2.74-.09,3.92v2.1c-.27.18-.64.37-.91.37-1.37.18-1.46.55-2.92.46-1.28-.09-4.01.18-5.29,0-1.28-.18-1-.18-1-.73,0-1,.18-4.56.18-5.75,0-2.19-.18-3.28-.18-5.47,0-1.82-.09-2.65-.18-4.47,0-.91.18-2.55.18-4.29,0-2.01-.09-4.2-.09-5.2-.09-2.01-.09-3.92.09-5.84,0-.37-.18-.73-.09-1.09Z"/>
      <path class="cls-2" d="m341.6,184.21c1.55.27,3.19-.27,4.74.73.46.27.09.73.09,1.09-.09,1.73,0,3.37-.09,5.11-.09,1.28.46,3.37.27,3.83-.09.18-.46.09-.64.09-2.01-.18-4.01.09-5.93.27-.55.09-1,0-1.55-.18-.36-.09-.36-1.19-.36-1.73,0-2.65-.18-5.2-.27-7.84,0-.27,0-.55.09-.82.09-.27,2.46-.73,3.65-.55Z"/>
      <path class="cls-2" d="m363.67,153.02c.09-.55.55-.55.55-.55,2.37-2.28,4.74-3.47,7.66-4.1,1.73-.64,3.56-.64,5.2,0,1.28,0,1.82.64,3.01.64,2.92.55,4.65,2.28,6.47,4.56,2.28,3.01,2.92,5.93,4.1,9.49v4.1c-.55,2.37-.55,4.1-1.19,5.84-.64,1.82-1.73,3.56-3.56,4.74-1.19,1.19-2.92,2.28-4.65,2.92-2.37,1.19-4.2,1.82-6.48,2.28h-9.94v2.46c0,2.92,0,5.84-.64,8.85v14.32c0,1.09-.55,1.73-1.82,1.73h-5.2c-.64-4.2-.64-7.93-.64-12.04v-17.6c-.55-5.84.27-10.12-.18-16.05,0-.64.09-3.37.09-3.37,0-3.56-.18-4.92.37-8.39,0-.55.27-2.28,0-3.1,0-1.82.18-1.46.46-2.01.64-.09,2.37.46,3.47.55.73-.09,1.82-.18,2.92.09v4.65Zm15.23,5.93s0-.64-.55-.64c-1.28-1.09-3.56-1.73-5.29-.55-1.82,1.73-3.01,4.1-3.01,6.48v2.92c0,1.09.64,2.92,1.19,4.1,0,.64.64.64,1.28,1.19,2.28.55,5.2,0,6.38-2.92.64-1.73.55-3.01.91-5.11-.09-2.1-.27-3.65-.91-5.47Z"/>
      <path class="cls-2" d="m423.5,140.62c-.18-1.82.18-3.74.09-5.56,0-.73.09-1.55.09-2.28.64-2.92.36-5.84.91-9.48v-1.09c2.37.64,4.47,1.09,6.75,1.09-.64,1.82-.64,3.65-.64,5.38,0,3.47-.46,7.02-.46,10.49,0,.73-.18,1.55-.18,2.28.18,1.82-.18,6.29.27,8.21-.36,2.92,0,5.93-.09,8.85-.18,2.01,0,3.92,0,5.93s.09,4.1.09,6.2-.55,5.29-.46,7.39c0,2.92-.27,4.92-.27,7.3,0,1.09-.64,1.28-1.92,1.28-1.73.18-2.83,0-4.56,0-1.19,0-1.19-.64-1.19-1.09v-1.64s-.27-.55-.55-.64c-.64.64-1.82.64-2.92,1.28-1.82,1.19-4.1,1.64-6.57,1.64-1.73,0-2.92,0-4.01-.46-.64,0-.64-.64-1.19-.64-2.37-1.19-4.1-2.37-5.84-4.1-1.82-1.82-2.46-3.56-3.65-5.93-.46-1.73-.46-3.56-1.09-5.2,0-2.46,0-4.74,1.09-6.48.64-3.01,2.46-5.29,4.74-7.02,1.19-1.19,2.92-1.82,4.74-2.46,1.19,0,2.92,0,4.1-.55,1.73,0,2.92,0,4.74.55.46.64,1.73.64,2.28,1.28,1.09.55,2.37,1.19,3.56,1.64.55-.46.27-1.64.91-2.92,0-.55.27-1.64.27-2.92.09-2.92.55-7.39.91-10.31Zm-11.58,21.52c-2.28,1.19-3.47,4.1-3.47,6.38,0,1.28.55,1.82.55,2.92,0,1.82,1.19,2.92,2.92,4.2.64.55,1.82.55,3.01,0,1.09-1.28,2.92-2.37,2.92-4.65.64-2.46,0-4.1-.55-5.93-.64-1.73-2.37-2.92-4.2-2.92h-1.19Z"/>
      <path class="cls-2" d="m455.14,127.39c1.82-.64,4.1-.64,5.93-.64h3.56v4.74c-.64,0-1.19.09-1.19.09-.55,0-.64.36-1.28.36-1.73.64-2.92,1.28-4.1,1.82-.55.64-1.09,1.19-1.73,2.37-.55,1.19-1.19,2.37-1.19,3.47,0,1.82-.64,4.1-.64,5.93s-.46,2.92-.46,4.74v1.09l1.19.18c.36,0,1.64.36,2.83.36,1.09,0,2.37.09,2.55.09h1.55c0,1.19.09,1.46,0,2.55,0,.36-.18,1.19-.27,1.64-.09.27,0,0-.18.64-.09.09-.55-.09-1.55,0-.37,0-1.55.55-2.65.46-.46,0-1.19.18-1.64.27-.73.09-1.28.27-2.01.27-.27,2.46-.73,6.66-.82,9.12-.09,1.55.37,2.92.09,4.29,0,.36.18.73,0,1-.27,1.55,0,10.03,0,8.94.18.55.27,1.64.27,2.28.09,1.46,0,3.28,0,3.56,0,0-.55.55-1.19.55s-1.73.18-2.28.18c-.64,0-1.82.27-2.46.27-1.09,0-3.1.36-4.29.36,0-1.19-.36-1.64-.18-2.83,0-.18-.18-5.38-.18-5.56-.18-1.19-.09-3.65-.09-5.93,0-1.55.09-4.56.18-6.66,0-1,.09-3.74.18-4.83.09-1.28-.27-2.37-.27-3.56v-1.19c-1.64-.18-4.01-.36-5.56,0-.27-.18-.37-.36-.46-.55,0-1.19.09-2.37.09-3.47v-1.28q.64-.55,1.28-.55c1.19,0,3.56-.09,4.74,0,.91.09,0-.64.55-1.28,0-1.73.18-1.82.18-3.65,0-2.65.37-4.92.37-7.48,0-.82.27-1.19.36-1.73.09-.73.18-1.28.37-2.01l1.37-2.92c.91-1.73,1.92-2.46,2.74-3.37,1.09-1.28,1.46-1.19,1.64-1.19.27,0,.73-.36,1.55-.64.91-.27,2.19-.46,2.46-.36h.64Z"/>
    </g>
  </g>
</svg>