<?xml version="1.0" encoding="UTF-8"?>
<svg id="Layer_2" data-name="Layer 2" xmlns="http://www.w3.org/2000/svg" viewBox="0 0 729.83 158.15">
  <defs>
    <style>
      .cls-1 {
        stroke-width: 0px;
      }
    </style>
  </defs>
  <g id="Layer_1-2" data-name="Layer 1">
    <path class="cls-1" d="m126.55,59.18h-12.41v-16.15l6.65-6.15,14.7,22.43h8.97l-18.28-27.33,17.03-15.62h-9.47l-19.61,18.77V0h-7.06v59.18h-11.38V16.37h-7.06v42.81h-7.04s.04-.02.06-.03v-5.48c-.83.22-1.55.33-2.16.33-1.11,0-1.76-.38-1.95-1.16-.19-.78-.29-1.99-.29-3.65v-22.05c0-2.49-.47-4.5-1.41-6.05-.94-1.55-2.19-2.75-3.74-3.61-1.55-.85-3.28-1.42-5.19-1.7-1.91-.28-3.84-.42-5.77-.42-2.44,0-4.72.25-6.85.75-2.13.5-4.03,1.32-5.69,2.45-1.66,1.13-2.99,2.61-3.99,4.44-1,1.83-1.55,4.08-1.66,6.73h7.06c.16-3.16,1.24-5.3,3.24-6.43,1.99-1.14,4.49-1.71,7.48-1.71,1.11,0,2.23.09,3.36.25,1.13.16,2.16.5,3.07,1,.92.5,1.66,1.22,2.24,2.16.58.94.87,2.19.87,3.74,0,1.34-.39,2.35-1.16,3.04-.78.69-1.83,1.22-3.16,1.58-1.33.36-2.87.64-4.61.83-1.75.2-3.59.48-5.53.87-1.83.34-3.61.76-5.36,1.25-1.75.5-3.3,1.24-4.65,2.2-1.36.98-2.45,2.24-3.28,3.78-.83,1.56-1.24,3.54-1.24,5.98,0,2.16.37,4,1.12,5.52.75,1.52,1.76,2.75,3.03,3.69.95.7,2.03,1.27,3.25,1.69h-11.01v25.45h28.55v71.51h31.78v-71.51h28.55v-25.45Zm-76.58-15.63c.8-1.02,1.84-1.81,3.12-2.36,1.27-.56,2.72-.95,4.32-1.21,1.61-.24,3.2-.46,4.78-.66s3.08-.44,4.53-.75c1.44-.31,2.6-.79,3.49-1.45v7.19c0,1-.25,2.06-.75,3.19-.5,1.13-1.27,2.17-2.33,3.13-1.05.96-2.41,1.76-4.07,2.4-1.66.64-3.65.95-5.98.95-1.11,0-2.16-.11-3.16-.33s-1.87-.58-2.62-1.07c-.75-.5-1.36-1.15-1.83-1.95-.47-.8-.7-1.78-.7-2.93,0-1.76.4-3.16,1.2-4.18Zm12.45,15.63c.48-.15.96-.3,1.43-.49,2.58-1.02,4.83-2.7,6.77-5.02,0,2.32.54,4,1.62,5.02.2.19.42.34.64.49h-10.45Zm120.69,64.5c1.79,2.68,2.69,5.96,2.69,9.83,0,7.63-3.19,13.64-9.56,18.04-6.38,4.41-15.85,6.6-28.41,6.6-4.4,0-8.58-.38-12.52-1.14-3.95-.77-7.61-2.06-10.98-3.9s-6.11-4.34-8.21-7.47c-2.11-3.15-3.35-6.96-3.7-11.45h26.66c0,2.78.99,4.94,2.96,6.47,1.89,1.44,4.18,2.15,6.87,2.15,2.51,0,4.62-.48,6.33-1.48,1.7-.99,2.56-2.6,2.56-4.84,0-1.97-1.17-3.43-3.5-4.37-2.33-.94-6.06-1.96-11.18-3.04-4.22-.81-7.84-1.61-10.84-2.42-3.01-.81-5.86-1.99-8.55-3.57-2.69-1.57-4.9-3.68-6.6-6.32-1.71-2.65-2.56-5.95-2.56-9.9,0-4.32.99-7.99,2.96-11.05,1.97-3.05,4.6-5.48,7.88-7.28,3.28-1.79,6.87-3.07,10.77-3.84,3.91-.76,7.83-1.14,11.78-1.14,4.31,0,8.39.32,12.25.94,3.86.62,7.45,1.75,10.77,3.36,3.32,1.61,6.06,3.88,8.21,6.81,2.16,2.92,3.41,6.62,3.77,11.1h-25.45c-.27-2.15-1.17-3.86-2.69-5.12-1.44-1.16-3.32-1.74-5.65-1.74-2.52,0-4.47.39-5.86,1.21s-2.08,2.07-2.08,3.77,1.12,2.99,3.36,3.84c2.24.85,5.93,1.82,11.04,2.9,4.58.99,8.39,1.93,11.45,2.83,3.05.9,6.04,2.15,8.95,3.77,2.92,1.61,5.27,3.77,7.07,6.47Zm54.53-38.11h28.01v70.56h-25.99v-10.37c-3.41,4.67-7,7.9-10.78,9.7-3.77,1.79-8.66,2.69-14.68,2.69-7.9,0-14.1-2.47-18.58-7.41-4.49-4.93-6.73-12.34-6.73-22.21v-42.96h28.01v38.11c0,4.67.81,7.97,2.42,9.9,1.61,1.93,4.17,2.89,7.67,2.89,3.86,0,6.6-1.39,8.22-4.18,1.61-2.78,2.42-7.05,2.42-12.79v-33.94Zm86.45,27.34l29.49,43.22h-33.67l-15.08-25.05-5.25,5.26v19.79h-28.01V59.18h28.01v47.93l17.91-21.55h32.72l-26.13,27.34Zm104.56,38.04c-.4-1.22-.61-2.94-.61-5.18v-33c0-5.02-.34-9.17-1.01-12.45-.67-3.28-2.15-6.2-4.44-8.76-2.29-2.56-5.84-4.54-10.64-5.93-4.8-1.39-11.24-2.08-19.32-2.08-13.47,0-23.25,2.02-29.36,6.06-6.11,4.03-9.16,9.92-9.16,17.63h26.93c.27-2.69,1.35-4.5,3.23-5.45,1.88-.94,4.08-1.41,6.6-1.41,2.24,0,4.33.41,6.26,1.21,1.93.81,2.89,2.33,2.89,4.58s-1.32,3.93-3.97,4.78c-2.65.85-6.98,1.64-13,2.36-5.03.64-9.25,1.28-12.66,1.96-3.41.67-6.71,1.8-9.9,3.36-3.19,1.57-5.77,3.86-7.74,6.86-1.98,3.01-2.96,6.81-2.96,11.39,0,6.92,2.4,12.19,7.2,15.82,4.8,3.63,10.79,5.45,17.98,5.45,5.57,0,10.44-.71,14.61-2.15,4.18-1.44,8.15-3.91,11.92-7.41l1.35,7.54h28.95v-1.35c-1.7-1.35-2.76-2.62-3.16-3.84Zm-31.51-12.72c-2.02,2.68-5.19,4.03-9.49,4.03-2.79,0-4.96-.54-6.53-1.61-1.57-1.07-2.36-2.51-2.36-4.31,0-2.7.9-4.56,2.7-5.59,1.79-1.03,4.71-1.99,8.75-2.89,4.4-1,7.68-1.98,9.83-2.97v1.22l.14,1.21c0,4.58-1.01,8.22-3.03,10.92Zm107.73-46.94c4.53,5.16,6.8,12.69,6.8,22.56v42.28h-28.01v-37.3c0-4.03-.72-7.24-2.15-9.62-1.44-2.38-4-3.57-7.68-3.57-4.04,0-6.87,1.22-8.48,3.64-1.62,2.42-2.42,6.06-2.42,10.9v35.96h-28.01V59.18h28.01v35.28c2.96-3.68,6.13-6.42,9.49-8.21,3.37-1.8,7.34-2.7,11.92-2.7,9.16,0,16,2.58,20.54,7.74Zm87.8,59.66c-.4-1.22-.61-2.94-.61-5.18v-33c0-5.02-.34-9.17-1.01-12.45-.67-3.28-2.15-6.2-4.44-8.76-2.29-2.56-5.84-4.54-10.64-5.93-4.8-1.39-11.24-2.08-19.32-2.08-13.47,0-23.25,2.02-29.36,6.06-6.11,4.03-9.16,9.92-9.16,17.63h26.93c.27-2.69,1.35-4.5,3.23-5.45,1.88-.94,4.08-1.41,6.6-1.41,2.24,0,4.33.41,6.26,1.21,1.93.81,2.89,2.33,2.89,4.58s-1.32,3.93-3.97,4.78c-2.65.85-6.98,1.64-13,2.36-5.03.64-9.25,1.28-12.66,1.96-3.41.67-6.71,1.8-9.9,3.36-3.19,1.57-5.77,3.86-7.74,6.86-1.98,3.01-2.96,6.81-2.96,11.39,0,6.92,2.4,12.19,7.2,15.82,4.8,3.63,10.79,5.45,17.98,5.45,5.57,0,10.44-.71,14.61-2.15,4.18-1.44,8.15-3.91,11.92-7.41l1.35,7.54h28.95v-1.35c-1.7-1.35-2.76-2.62-3.16-3.84Zm-31.51-12.72c-2.02,2.68-5.19,4.03-9.49,4.03-2.79,0-4.96-.54-6.53-1.61-1.57-1.07-2.36-2.51-2.36-4.31,0-2.7.9-4.56,2.7-5.59,1.79-1.03,4.71-1.99,8.75-2.89,4.4-1,7.68-1.98,9.83-2.97v1.22l.14,1.21c0,4.58-1.01,8.22-3.03,10.92Zm87.46-26.53c-1.7-.36-3.01-.54-3.9-.54-5.93,0-10.28,1.57-13.06,4.71-2.78,3.15-4.17,8.44-4.17,15.89v24.37h-28.01v-70.56h25.45v14.28h.27c3.86-10.86,11.09-16.3,21.68-16.3.54,0,1.35.09,2.42.26l1.21.14v28.01c-.36-.1-.99-.19-1.89-.27Zm78.04,39.25c-.4-1.22-.61-2.94-.61-5.18v-33c0-5.02-.34-9.17-1.01-12.45-.67-3.28-2.15-6.2-4.44-8.76-2.29-2.56-5.84-4.54-10.64-5.93-4.8-1.39-11.24-2.08-19.32-2.08-13.47,0-23.25,2.02-29.36,6.06-6.11,4.03-9.16,9.92-9.16,17.63h26.93c.27-2.69,1.35-4.5,3.23-5.45,1.88-.94,4.08-1.41,6.6-1.41,2.24,0,4.33.41,6.26,1.21,1.93.81,2.89,2.33,2.89,4.58s-1.32,3.93-3.97,4.78c-2.65.85-6.98,1.64-13,2.36-5.03.64-9.25,1.28-12.66,1.96-3.41.67-6.71,1.8-9.9,3.36-3.19,1.57-5.77,3.86-7.74,6.86-1.98,3.01-2.96,6.81-2.96,11.39,0,6.92,2.4,12.19,7.2,15.82,4.8,3.63,10.79,5.45,17.98,5.45,5.57,0,10.44-.71,14.61-2.15,4.18-1.44,8.15-3.91,11.92-7.41l1.35,7.54h28.95v-1.35c-1.7-1.35-2.76-2.62-3.16-3.84Zm-31.51-12.72c-2.02,2.68-5.19,4.03-9.49,4.03-2.79,0-4.96-.54-6.53-1.61-1.57-1.07-2.36-2.51-2.36-4.31,0-2.7.9-4.56,2.7-5.59,1.79-1.03,4.71-1.99,8.75-2.89,4.4-1,7.68-1.98,9.83-2.97v1.22l.14,1.21c0,4.58-1.01,8.22-3.03,10.92ZM47.44,6.65h-19.77v52.67h-7.89V6.65H0V0h47.44v6.65Zm48.27,1.99h-7.06V0h7.06v8.65Zm61.56,0h-7.06V0h7.06v8.65Zm0,50.67h-7.06V16.37h7.06v42.95Z"/>
  </g>
</svg>