<?xml version="1.0" encoding="UTF-8"?>
<svg id="Layer_2" data-name="Layer 2" xmlns="http://www.w3.org/2000/svg" viewBox="0 0 840.92 326.37">
  <defs>
    <style>
      .cls-1 {
        fill: #b2b2b2;
      }

      .cls-1, .cls-2 {
        stroke-width: 0px;
      }

      .cls-2 {
        fill: #b80000;
      }
    </style>
  </defs>
  <g id="Layer_1-2" data-name="Layer 1">
    <g>
      <path class="cls-1" d="m.47,163.76c.24-3.93.24-7.86.24-12.12l-.71-26.53v-14.74c3.31,0,7.09-.33,11.82.33,0,0,3.55.33,5.2.33,2.13.66,1.42.33,2.36.98,0,1.96-.47,2.62-.47,4.91v10.48c1.18-2.29,1.18-3.28,2.84-5.57l1.42-.66c4.02-5.57,10.64-6.88,16.55-6.22,1.18,0,4.49,1.64,7.33,3.93,2.6.66,3.55,2.29,3.55,2.29,3.07,3.93,6.38,6.22,7.57,10.48,3.07,6.22,4.73,13.1,6.38,21.29,0,2.29,0,4.26-1.66,4.26-4.73,2.29-7.8,1.31-14.42,1.96h-2.6c-.47-.33-.71-1.64-.71-1.96-.24-2.62-.95-4.59-.95-5.9,0-2.29-1.42-4.91-1.42-4.91-3.07-4.26-5.68-6.22-8.75-6.22-.71,0-1.89,0-2.84.66-1.42.65-5.44,3.27-6.38,4.58-1.66,2.29-3.55,4.58-4.49,7.53-.24,1.64-.47,7.21-.47,8.19-.47,3.93-1.42,11.79-1.42,16.38,0,2.95-.71,8.51-.71,12.45,0,2.95-.24,5.57-.24,8.19v12.45c0,2.62-.24,5.89-.24,8.84v7.21c-7.8,2.29-13.24,2.29-16.32,0-.71-2.95-.95-8.84-.71-9.83.71-7.86,0-15.72,0-23.91-.24-4.26.24-9.5.24-13.43,0-2.95.24-10.15,0-15.72Z"/>
      <path class="cls-1" d="m101.21,219.76c0,1.31-.24,2.29-.71,2.95-3.07.66-7.8,1.64-11.11,1.31-2.84-.33-6.15.66-7.33.66,0-2.62-.47-4.26-.24-8.19.24-3.6,0-7.86,0-11.13v-16.05c-.24-10.15-.24-22.27-.47-25.87-.24-3.93.47-7.86.47-11.79-.24-6.22,0-12.45,0-18.67,0-5.24-.47-15.39,0-20.63,2.6-.65,6.62-.65,10.88-.98,3.55-.33,7.57-.33,8.99-.33.47,0,.24,3.6.24,4.26-.24,10.81.24,18.01-.24,26.86.24,8.84,0,14.08-.47,22.6-.24,2.62.71,25.87.47,33.41.47,8.51,0,15.72-.47,21.62Zm-19.63-141.49c0-1.96-.24-3.93-.24-5.57,0-.66.24-1.31.24-1.97h17.03q1.66,0,1.66,1.97v21.29c-3.55.66-18.21.66-18.44-.65-.24-.98-.24-1.97-.24-3.28-.24-2.29,0-7.21,0-11.79Z"/>
      <path class="cls-1" d="m124.61,129.7c.71-1.96.71-3.28,2.13-6.22,1.18-2.29,3.78-5.9,4.49-7.21.47-.98,1.18-2.29,2.13-3.6,1.18-1.97,4.49-4.26,5.91-6.55,4.49-1.64,7.57-3.93,10.64-3.93,6.15,0,12.3,0,16.79,2.29,4.73,0,7.57,1.64,10.64,3.93,1.66,4.26,4.49,6.55,6.15,8.52l1.42,1.96c2.13-2.29,1.18-4.91,1.89-7.21.71-2.62.47-4.91.95-5.57.95-.33,2.36,0,3.55,0,2.84,0,8.28-.66,10.41,0,.71.33,1.42,1.96,1.42,2.29v2.29c.24,5.24.24,17.36,0,22.27-.24,3.93-.47,24.89,0,25.87,0,4.26-.47,10.81-.24,12.77l.24,10.48c.24,2.95-.71,10.15,0,18.34.47,6.22-.71,25.87-.47,30.46,0,8.19-2.84,17.03-4.26,25.22-1.66,4.26-2.84,8.19-5.91,12.77-1.18,1.96-2.84,5.9-4.49,8.19-1.66,2.95-6.62,7.21-8.28,10.48-1.42,2.62-6.38,4.58-8.04,4.91l-8.28,3.93c-2.84,2.29-5.44,3.93-9.93,4.26-.71,0-1.42-.33-1.89,0-3.07,0-4.73,1.64-7.8,1.64h-1.42c-4.49,0-4.02-.65-9.46,0-.24,0-2.6.98-2.6,0,0-8.19-.71-15.06-.71-21.62l1.66-1.96h8.04c4.49-2.29,7.57-1.64,12.3-3.93,4.49-3.93,7.57-8.19,12.06-10.48,3.07-3.93,6.15-8.19,7.8-12.45,2.84-3.93,2.84-8.52,4.49-12.77,0-3.93,1.42-8.19,1.42-12.45v-8.52c0-1.96-1.42,0-1.42,0-4.49,3.93-10.88,3.93-16.79,3.93h-1.66c-2.13-.33-4.26-.98-6.38-1.96-4.02-1.31-6.38-2.29-9.93-4.91-.95-.66-2.6-1.31-6.86-4.91l-2.84-4.58-5.2-7.86c-.95-2.29-1.66-5.57-2.84-10.48-.71-2.62-1.89-5.57-2.36-9.17v-27.51c0-2.29,1.18-6.88,1.18-8.52,0,0,.47-1.96.47-4.26,0-.66,1.66-7.86,1.89-8.19Zm39.02,41.92c.71-1.64.24-4.26.71-4.91,1.66-3.28.71-3.28.71-5.57s-1.42-6.22-2.84-8.19q-1.42-2.29-4.73,0c-1.42,1.97-1.66,4.91-1.66,9.5,0,.98-.47,4.58.24,7.21,0,.98,2.13,4.26,3.07,4.26,1.66,0,3.07,0,4.49-2.29Z"/>
      <path class="cls-1" d="m225.35,187.99c.24-3.93-.71-18.34-.71-22.27.24-13.43-.24-28.49.71-41.59,0-2.29.24-8.52.24-10.81s-.71-6.55,0-8.84c-.24-7.86.24-24.56,0-26.86-.24-1.97-.24-12.45.47-19.32.71-3.6-.24-7.86.24-11.46.95-6.55.71-13.1.71-19.98,0-9.17.24-17.69.24-26.86h16.79c-.24,5.24,1.42,14.08,1.42,19.32l1.42,43.23c-.24,5.9,0,12.45,0,19-.24,6.88,0,14.41,0,21.62,0,6.55,0,12.77,1.66,19.32,1.66-2.29,3.55-4.59,5.44-4.91,4.49-4.26,9.7-6.55,15.61-6.55,1.66,0,4.73-1.31,7.8-1.31,1.42,0,3.07,0,6.15,2.29,4.73,1.64,8.99,5.9,13.48,8.19,6.86,6.88,8.04,10.81,12.3,17.03,4.73,8.19,6.15,14.74,6.15,22.93,1.42,12.77,1.42,23.25,1.42,36.03,0,10.81-.24,21.94-1.18,29.48-.24,2.62,0,4.26-.24,4.26-7.8,0-15.37,0-24.36,2.29-.47-2.62,0-6.88,0-8.84-.24-2.95.47-7.21.47-12.45,0-7.86-.47-17.69-.47-25.22,0-8.51,0-17.03-1.66-27.51,0-3.93-1.18-8.52-1.18-12.77-.95-2.29-1.42-4.91-2.6-5.57-.95-.65-2.36-2.29-3.55-4.26-2.13-2.62-9.22-4.91-12.53-2.62-2.84,1.96-5.91,4.26-7.57,6.22-3.07,1.96-5.91,8.52-5.91,15.07-3.07,10.48-4.73,22.93-4.73,35.7-.71,7.86-.47,15.07-.47,21.94,0,3.93-.71,7.53-.71,11.46v12.77c-3.78,0-7.8.33-11.59.98-2.36.33-4.49.98-6.86,2.29-1.66.98-3.07,1.97-4.49,1.64-1.18-1.97.24-7.21,0-10.81-.24-3.6,0-5.89-.24-8.19-.47-7.21-2.13-30.46-1.66-34.06Z"/>
      <path class="cls-1" d="m380.71,228.28c0,2.62,0,8.84-.24,11.46.24,1.64-1.18,3.6-1.66,4.26h-6.15c-1.66,0-3.78-.33-5.44-.33-2.36,1.31-10.17.33-11.11.33q-1.42-2.29-1.42-4.26v-31.44l-.47-19.32.47-21.94-.24-19-.95-15.72c-3.78,0-10.17.98-13.01,0-5.44-1.31-7.57,0-11.82,0v-20.96h1.42c1.42,0,2.84-.33,3.31,0,1.66,1.64,5.68.33,5.44-.33,3.55-.33,3.07-.33,5.91-.33,2.6,0,8.75.33,10.41,0,.24,0,0-12.12,0-16.7.71-8.19.71-14.41.95-22.93.24-5.9.24-11.46.24-17.69s.71-16.38.47-23.25c0-2.29-.71-2.29-.71-4.26s0-3.27,1.66-3.27c2.84,0,6.15.65,8.99.65,4.73,0,8.99,0,11.35.33,2.13.33,3.78.65,5.44,1.31.24,0,0,8.84-.24,13.76-.24,10.81-.24,17.69,0,28.49,0,4.91-.24,10.15,0,15.07,0,2.62-.95,19.98-1.18,22.6,0,2.29.95,4.26,1.42,4.26,1.65,0,4.49.98,6.15.98,1.42,0,3.07.98,6.15.98,2.84,0,5.91.33,9.22.33,1.42,0,2.84.33,2.84.33,1.42,6.55,1.42,16.38,0,20.63h-1.42c-6.15.98-12.3,1.64-18.44,1.64-1.42,0-4.02.33-5.68.33,0,1.97-.24,4.26-.24,4.26v2.95c0,3.93.24,6.88,0,10.48l.47,17.36-.95,14.74c.24,4.59-.71,24.56-.95,29.15,0,4.91-.24,10.15,0,15.07Z"/>
      <path class="cls-1" d="m484.99,105.79c.47-.33,3.31-.33,3.31-.33,1.66-.33,3.07,0,4.73-.33h7.09c.47,0,1.42,1.31,1.66,1.64l.47,2.95s.71,3.6.71,7.86c0,0,.24,3.6.47,3.93,1.18-1.64,1.66-4.26,2.6-4.91,2.13-2.29,1.18-1.31,4.97-4.58,2.84-1.97,4.49-2.62,9.46-6.22,1.89-1.31,10.4-3.27,14.66-2.95,3.31.33,4.97,1.31,8.75,1.97,1.42.33,6.39.65,7.57,1.64,7.8,6.22,12.3,9.5,15.61,16.7.47.98,2.13,1.64,3.55,3.93,1.42,2.29,3.31,6.88,3.31,7.86,1.18,7.21,3.31,10.81,3.55,18.01.24,3.28,2.13,7.86,2.13,12.12s.71,8.84,0,19c0,2.95.24,5.57.24,8.19v15.07c0,2.95,0,5.57-.24,8.19,0,3.6.24,5.57.24,9.17,0,.66,0,2.29-.47,2.62-.47.33-2.13.33-2.6.33-2.84,0-5.2.33-8.04,0l-7.09-.98c-1.18-.33-4.26.66-4.73-.98-.24-10.15,0-12.77,0-16.38,0-2.29-.47-5.24-.71-10.81l.71-17.36c-.24-9.17-.71-6.88-.71-16.05,0-7.86-2.37-15.72-5.2-23.58-1.65-4.26-4.02-7.86-8.04-10.48-.47-.33-1.65-.98-2.36-.98l-5.44-.66c-5.2-.33-12.3,3.6-13.48,6.55-2.13,5.24-3.31,7.21-4.49,9.83-.47,2.29-3.31,15.06-3.31,23.25,0,2.95,0,5.9-.24,8.52l-.47,9.17-1.42,12.45c0,4.26,0,9.83-.24,14.08v7.53c-.71.66-1.65,1.31-2.36,1.31-3.55.65-3.78,1.96-7.57,1.64-3.31-.33-10.4.66-13.71,0-3.31-.65-2.6-.65-2.6-2.62,0-3.6.47-16.38.47-20.63,0-7.86-.47-11.79-.47-19.65,0-6.55-.24-9.5-.47-16.05,0-3.27.47-9.17.47-15.39,0-7.21-.24-15.07-.24-18.67-.24-7.21-.24-14.08.24-20.96,0-1.31-.47-2.62-.24-3.93Z"/>
      <path class="cls-1" d="m629.23,99.24c4.02,0,7.33-.33,11.35-.33,3.07,0,6.15,0,8.75,1.31.47,0,1.66.33,3.07,2.29,6.38,2.29,11.35,13.76,14.42,22.27,1.66,3.6,1.66,10.15,2.6,13.76,0,6.22.71,11.79.71,17.69,0,9.82-.47,18.67-.47,28.82l-.47,10.81c0,1.64-1.89,7.53-2.13,9.5-.95,4.26-2.84,11.79-3.55,12.77-3.07,4.26-1.66,7.21-5.44,9.83-1.42.98-4.02,3.28-5.91,4.91-1.42.98-.71,1.31-2.84,2.29l-4.26,1.31c-3.78.98-5.68,0-8.51,0-4.26,0-8.99-1.31-13.24-3.6-2.84,0-5.91-2.29-7.09-4.26-1.42-1.64-3.07-3.6-4.73-5.9-2.6-3.93-4.02-7.86-5.44-12.12-1.42-4.91-3.78-9.83-4.49-15.72-.71-9.83-1.18-18.01-1.18-26.2v-13.43c-.24-.66-.24-4.58,0-5.24,0-2.29.24-4.58.47-6.88.24-3.6-.24-7.21,1.42-10.48-.47,1.31,3.55-11.14,3.31-10.15l1.65-4.26c2.13-2.95,2.84-5.9,13.24-15.72,2.13-.98,5.68-3.28,8.75-3.28Zm5.68,61.25c-1.18,3.6-1.66,6.22-1.66,8.19,0,6.22,1.66,9.83,4.49,11.79,1.42,0,2.84-1.96,2.84-3.6,0-4.26,1.66-10.15,0-16.38-1.42-1.96-1.42-3.6-2.84-3.6-1.18,0-2.6,2.29-2.84,3.6Z"/>
      <path class="cls-1" d="m739.9,199.13c.71-.33.24-2.62.71-4.91l3.78-15.39,1.89-5.24c1.42-3.93,2.84-7.86,4.02-14.41.47-1.64.71-3.6,1.18-5.57.47-1.97,1.42-4.26,1.66-5.24l1.89-10.48h13.01c2.84,0,2.13,0,3.78,4.26,0,1.97,1.65,4.26,3.07,8.52,1.65,6.22,3.07,12.77,6.15,18.67,1.18,3.28,4.49,17.03,7.8,25.55.47,1.64.95,3.28,1.89,4.58,1.42-.66.95-2.62,2.37-4.58,1.65-6.22,3.55-11.79,4.26-19,1.18-6.22,3.55-12.77,4.97-19,2.84-7.86,5.2-14.74,6.38-23.25,1.18-4.26,1.66-6.55,1.66-8.19,1.65-4.26,2.13-8.84,2.6-10.81,1.42-2.29.71-2.29,2.13-2.29.95-.33,1.89,0,3.31,0,2.84-.33,7.8,0,10.4,0,2.13,0,8.75-.33,12.06,0,.24.98-.47,1.97-.71,4.26l-7.09,22.93c-1.89,4.59-3.55,10.48-4.97,15.39-2.13,6.88-5.44,13.1-7.8,22.27-1.18,4.58-2.84,9.17-4.26,13.43-2.13,4.26-3.31,7.53-4.73,12.12l-1.42,4.59c-1.89,6.55-4.49,12.77-5.91,19.32-1.65,0-1.89-.33-3.07.33-1.18,0-1.18.66-4.02-.33,0,0-3.55-.33-7.8-.33-3.07,0-4.97.33-6.62.33-.71,0-4.02-12.12-4.97-14.08l-4.02-11.79-2.36-6.22c-1.66-4.91-3.31-8.52-5.44-14.41-.94-1.96-1.89-5.57-2.13-4.26l-1.42,6.22c0,2.29-2.6,7.21-2.84,9.5l-3.55,15.07c-.71,2.62-2.6,9.17-3.55,11.14l-.95,4.91c-.47,2.62-.47,3.6-1.18,3.93-3.55,0-5.44-.33-8.28-.66l-8.04.33c-3.55,0-8.28-1.64-9.93-1.64-.71-.33-.24-.98-.95-2.62-2.13-4.91-4.26-8.19-5.91-12.45-2.84-4.91-3.55-12.12-5.91-17.03-1.65-5.24-4.73-11.79-6.86-17.69-3.31-8.84-5.2-13.43-5.91-16.7l-5.44-16.05c-1.65-4.26-3.07-10.48-4.73-15.07-1.66-1.64-4.02-12.45-6.15-16.7-.71-1.31-1.18-3.6-1.18-3.6,0-.33,1.89-.66,3.31-.66,3.55-.66,8.04.98,11.59,0h7.33c2.13,0,5.68,0,7.09.33,1.18,4.91,4.49,12.45,5.2,14.41l3.31,11.14c.95,2.95,2.13,11.46,5.44,19.65,2.13,6.55,4.26,16.7,7.09,20.63,2.13,3.6,5.44,18.34,7.33,22.6,0,0,0,1.96,1.42,4.26Z"/>
    </g>
    <g>
      <path class="cls-2" d="m162.31,287.44c.35-.14.12-1.16.35-2.17l1.88-6.79.94-2.31c.7-1.73,1.41-3.47,1.99-6.36.23-.72.35-1.59.59-2.46.23-.87.7-1.88.82-2.31l.94-4.62h6.45c1.41,0,1.06,0,1.88,1.88,0,.87.82,1.88,1.52,3.76.82,2.75,1.52,5.63,3.05,8.24.59,1.44,2.23,7.51,3.87,11.27.23.72.47,1.44.94,2.02.7-.29.47-1.16,1.17-2.02.82-2.75,1.76-5.2,2.11-8.38.59-2.75,1.76-5.64,2.46-8.38,1.41-3.47,2.58-6.5,3.17-10.26.59-1.88.82-2.89.82-3.61.82-1.88,1.06-3.9,1.29-4.77.7-1.01.35-1.01,1.06-1.01.47-.14.94,0,1.64,0,1.41-.14,3.87,0,5.16,0,1.06,0,4.34-.14,5.98,0,.12.43-.23.87-.35,1.88l-3.52,10.11c-.94,2.02-1.76,4.62-2.46,6.79-1.06,3.03-2.7,5.78-3.87,9.82-.59,2.02-1.41,4.05-2.11,5.92-1.06,1.88-1.64,3.32-2.35,5.35l-.7,2.02c-.94,2.89-2.23,5.63-2.93,8.52-.82,0-.94-.14-1.52.14-.59,0-.59.29-1.99-.14,0,0-1.76-.14-3.87-.14-1.52,0-2.46.14-3.28.14-.35,0-1.99-5.35-2.46-6.21l-1.99-5.2-1.17-2.75c-.82-2.17-1.64-3.76-2.7-6.36-.47-.87-.94-2.46-1.06-1.88l-.7,2.75c0,1.01-1.29,3.18-1.41,4.19l-1.76,6.65c-.35,1.16-1.29,4.05-1.76,4.91l-.47,2.17c-.23,1.16-.23,1.59-.59,1.73-1.76,0-2.7-.14-4.1-.29l-3.99.14c-1.76,0-4.1-.72-4.92-.72-.35-.14-.12-.43-.47-1.16-1.06-2.17-2.11-3.61-2.93-5.49-1.41-2.17-1.76-5.35-2.93-7.51-.82-2.31-2.35-5.2-3.4-7.8-1.64-3.9-2.58-5.92-2.93-7.37l-2.7-7.08c-.82-1.88-1.52-4.62-2.35-6.65-.82-.72-1.99-5.49-3.05-7.37-.35-.58-.59-1.59-.59-1.59,0-.14.94-.29,1.64-.29,1.76-.29,3.99.43,5.75,0h3.64c1.06,0,2.81,0,3.52.14.59,2.17,2.23,5.49,2.58,6.36l1.64,4.91c.47,1.3,1.06,5.06,2.7,8.67,1.06,2.89,2.11,7.37,3.52,9.1,1.06,1.59,2.7,8.09,3.64,9.97,0,0,0,.87.7,1.88Z"/>
      <path class="cls-2" d="m219.3,273.1c.12-1.28-.35-5.98-.35-7.26.12-4.38-.12-9.29.35-13.57,0-.75.12-2.78.12-3.53s-.35-2.14,0-2.88c-.12-2.56.12-8.01,0-8.76-.12-.64-.12-4.06.23-6.3.35-1.17-.12-2.56.12-3.74.47-2.14.35-4.27.35-6.52,0-2.99.12-5.77.12-8.76h8.33c-.12,1.71.7,4.59.7,6.3l.7,14.1c-.12,1.92,0,4.06,0,6.2-.12,2.24,0,4.7,0,7.05,0,2.14,0,4.17.82,6.3.82-.75,1.76-1.5,2.7-1.6,2.23-1.39,4.81-2.14,7.74-2.14.82,0,2.35-.43,3.87-.43.7,0,1.52,0,3.05.75,2.35.53,4.46,1.92,6.68,2.67,3.4,2.24,3.99,3.53,6.1,5.56,2.35,2.67,3.05,4.81,3.05,7.48.7,4.17.7,7.58.7,11.75,0,3.53-.12,7.16-.59,9.61-.12.85,0,1.39-.12,1.39-3.87,0-7.62,0-12.08.75-.23-.85,0-2.24,0-2.88-.12-.96.23-2.35.23-4.06,0-2.56-.23-5.77-.23-8.23,0-2.78,0-5.55-.82-8.97,0-1.28-.59-2.78-.59-4.17-.47-.75-.7-1.6-1.29-1.82-.47-.21-1.17-.75-1.76-1.39-1.06-.85-4.57-1.6-6.21-.85-1.41.64-2.93,1.39-3.75,2.03-1.52.64-2.93,2.78-2.93,4.91-1.52,3.42-2.35,7.48-2.35,11.64-.35,2.56-.23,4.91-.23,7.16,0,1.28-.35,2.46-.35,3.74v4.17c-1.88,0-3.87.11-5.75.32-1.17.11-2.23.32-3.4.75-.82.32-1.52.64-2.23.53-.59-.64.12-2.35,0-3.53s0-1.92-.12-2.67c-.23-2.35-1.06-9.93-.82-11.11Z"/>
      <path class="cls-2" d="m314.99,286.56l-.82.11c-.82.11-.7,0-1.88,0-.35.11-3.4.75-4.81.11-.82,0-.82-.21-1.64-.21-.7-.53-.7-1.92-.7-2.67v-2.67l-.94,1.18-2.11,1.82c-1.52.96-2.35,1.6-3.75,2.24-2.35,1.28-5.28,1.6-7.62,1.6s-5.16-1.17-7.15-1.82c-.59-.11-1.17-.53-1.64-.85-.94-.75-2.23-1.5-3.05-2.14-.47-.32-.82-.75-1.41-.96-.47-.21-.82-.64-1.06-1.07-.82-1.5-2.23-2.88-2.93-4.91-.47-1.5-1.52-2.99-1.52-4.27,0-.64-.23-2.99-.23-3.63,0-1.28.12-1.71.12-3.1,0-.64.23-1.39.59-2.67.23-1.5.35-3.63.7-4.7,1.06-1.82,1.29-1.82,1.64-2.88.35-.85.82-2.56,1.88-3.2.82-.53,4.22-3.42,4.69-3.53l2.11-.85c1.29-.43,2.93-.64,4.34-.64l3.63-.11c.82,0,1.99,0,2.35.11.7,0,1.52.64,2.35.64.7,0,2.11.64,2.93,1.28,1.52.53,2.35,1.5,3.05,2.14.7.75,1.52,1.28,2.23,2.03.12.43.82.75.82.75.23-.32.23-1.28.7-2.03.12-2.03.23-3.85.35-4.38-.12-.53.12-2.03.94-1.82.7-.21,4.92.64,7.04.64.12,0,.12.96,0,1.39l.7,10.26v11.54c0,.43-.12.85-.12,1.28.12,1.28.12,2.67.12,4.06.12.96,0,2.03,0,3.2,0,1.82.23,6.3.12,8.23v.53Zm-15.13-16.45c0-.85.94-3.95-.82-8.23-.47-1.07-1.29-2.67-3.28-3.31-1.06-.21-1.99-.75-3.05-.64-1.06.32-3.05,1.39-4.1,2.78-.7.75-.82,1.5-.94,2.67-.47,1.82-.7,2.56-.7,4.06,0,2.78,2.58,5.23,3.05,5.88.47.43.7.21,1.52.96,1.52.64,2.93,0,4.57-.75h.7c1.41-.64,2.23-1.28,3.05-2.67.12-.11,0-.75,0-.75Z"/>
      <path class="cls-2" d="m348.53,286.24c0,.85,0,2.88-.12,3.74.12.53-.59,1.18-.82,1.39h-3.05c-.82,0-1.88-.11-2.7-.11-1.17.43-5.04.11-5.51.11q-.7-.75-.7-1.39v-10.26l-.23-6.3.23-7.16-.12-6.2-.47-5.13c-1.88,0-5.04.32-6.45,0-2.7-.43-3.75,0-5.86,0v-6.84h.7c.7,0,1.41-.11,1.64,0,.82.53,2.81.11,2.7-.11,1.76-.11,1.52-.11,2.93-.11,1.29,0,4.34.11,5.16,0,.12,0,0-3.95,0-5.45.35-2.67.35-4.7.47-7.48.12-1.92.12-3.74.12-5.77s.35-5.34.23-7.58c0-.75-.35-.75-.35-1.39s0-1.07.82-1.07c1.41,0,3.05.21,4.46.21,2.35,0,4.46,0,5.63.11,1.06.11,1.88.21,2.7.43.12,0,0,2.88-.12,4.49-.12,3.53-.12,5.77,0,9.29,0,1.6-.12,3.31,0,4.91,0,.85-.47,6.52-.59,7.37,0,.75.47,1.39.7,1.39.82,0,2.23.32,3.05.32.7,0,1.52.32,3.05.32,1.41,0,2.93.11,4.57.11.7,0,1.41.11,1.41.11.7,2.14.7,5.34,0,6.73h-.7c-3.05.32-6.1.53-9.15.53-.7,0-1.99.11-2.81.11,0,.64-.12,1.39-.12,1.39v.96c0,1.28.12,2.24,0,3.42l.23,5.66-.47,4.81c.12,1.5-.35,8.01-.47,9.51,0,1.6-.12,3.31,0,4.91Z"/>
      <path class="cls-2" d="m415.24,321.84l-.75.11c-.75.11-.64,0-1.71,0-.32.11-3.1.75-4.39.11-.75,0-.75-.21-1.5-.21-.64-.53-.64-1.92-.64-2.67v-2.67l-.86,1.18-1.93,1.82c-1.39.96-2.14,1.6-3.43,2.24-2.14,1.28-4.82,1.6-6.96,1.6s-4.71-1.17-6.53-1.82c-.53-.11-1.07-.53-1.5-.85-.86-.75-2.03-1.5-2.78-2.14-.43-.32-.75-.75-1.28-.96-.43-.21-.75-.64-.96-1.07-.75-1.5-2.03-2.88-2.68-4.91-.43-1.5-1.39-2.99-1.39-4.27,0-.64-.21-2.99-.21-3.63,0-1.28.11-1.71.11-3.1,0-.64.21-1.39.54-2.67.21-1.5.32-3.63.64-4.7.96-1.82,1.18-1.82,1.5-2.88.32-.85.75-2.56,1.71-3.2.75-.53,3.85-3.42,4.28-3.53l1.93-.85c1.18-.43,2.68-.64,3.96-.64l3.32-.11c.75,0,1.82,0,2.14.11.64,0,1.39.64,2.14.64.64,0,1.93.64,2.68,1.28,1.39.53,2.14,1.5,2.78,2.14.64.75,1.39,1.28,2.03,2.03.11.43.75.75.75.75.21-.32.21-1.28.64-2.03.11-2.03.21-3.85.32-4.38-.11-.53.11-2.03.86-1.82.64-.21,4.5.64,6.42.64.11,0,.11.96,0,1.39l.64,10.26v11.54c0,.43-.11.85-.11,1.28.11,1.28.11,2.67.11,4.06.11.96,0,2.03,0,3.2,0,1.82.21,6.3.11,8.23v.53Zm-13.81-16.45c0-.85.86-3.95-.75-8.23-.43-1.07-1.18-2.67-3-3.31-.96-.21-1.82-.75-2.78-.64-.96.32-2.78,1.39-3.75,2.78-.64.75-.75,1.5-.86,2.67-.43,1.82-.64,2.56-.64,4.06,0,2.78,2.36,5.23,2.78,5.88.43.43.64.21,1.39.96,1.39.64,2.68,0,4.18-.75h.64c1.28-.64,2.03-1.28,2.78-2.67.11-.11,0-.75,0-.75Z"/>
      <path class="cls-2" d="m481.84,322.3c.32-3.31,0-5.98,0-7.9-.43-1.71-.54-3.53-.75-5.13-.64-2.03-.64-4.17-1.39-6.09,0-2.14-.75-4.17-2.68-5.55-1.5-.75-2.78-1.39-4.18-1.39-.64.43-2.89,1.5-3.53,2.99-.75,1.71-1.18,3.1-1.71,3.95-.86,1.39-.64,3.63-.75,5.23,0,.64-.64,4.91-.64,5.55l-.86,6.2c0,.96-.11,1.92-.11,2.88,0,.75-.21,1.39-.21,2.14h-.64c-1.71.21-3.53.32-6.1,0-.64-.11-1.28,0-1.28-1.39,0-1.71-.11-3.1-.11-4.59.11-2.14.21-4.27-.21-6.84,0-1.82-.64-4.17-.86-6.09-.21-1.82,0-3.85-.75-5.45-.43-1.39-.86-2.56-1.61-3.95-.11-.21-.32-.32-.43-.43l-.75-.32c-.86-.53-1.82-.85-2.89-1.07h-.43l-2.36.32c-1.39.21-2.46.64-3.43,1.5-2.14,2.14-3.43,4.81-4.07,8.23-.86,1.28-.86,2.67-1.07,3.95-.21,1.5-.32,3.2-.43,4.81,0,1.17-.54,2.35-.32,3.31,0,.64-.21,4.59-.32,5.13-.21.53-.11,2.88-.32,3.2-.75,0-1.71.32-2.68.53-.86.21-2.14,0-3.1-.21-2.14-.43-2.78-.21-4.28-.64.11-1.6-.64-6.09-.54-7.58.11-.75-.43-4.91-.43-5.66-.11-1.39-.11-2.46-.11-3.85.11-1.39.11-2.67.11-3.95v-8.87c0-.75.21-8.23.32-8.97.75,0,2.03-.21,2.78-.21,1.39,0,2.57-.11,3.85-.11,1.39,0,.96-.11,1.5,0,.43,1.28.21,1.28.43,2.24.11.75.43,1.92.43,2.56v.53c1.28-1.28,2.68-1.92,3.43-2.67,1.93-1.6,4.07-1.92,6.74-2.35l4.82-.53h.75c2.14.43,3.75.85,5.57,1.92l2.68,2.35c.32.21.64.43.86.75.64.53,1.39,1.28,1.93,2.67.75-.64,1.29-1.28,1.93-2.03.32-.32.86-.53,1.5-.85,1.07-.64,1.5-1.17,2.57-1.71.75-.32,1.71-.53,2.46-.96,3.43-1.39,6.1,0,8.78.75,2.14.75,3.53,2.14,4.93,4.17l2.03,4.06c.75,2.14,1.5,4.17,1.5,6.3.53,2.67,1.28,5.34,1.28,8.76.64,2.14,0,4.91.64,6.94v5.56c-1.39,0-1.93.75-3.43.75-.64,0-2.03.32-2.78.53-.64,0-1.28,0-1.28-.53v-2.88Z"/>
      <path class="cls-2" d="m522.97,316.16c0,.43-.11.75-.32.96-1.39.21-3.53.53-5.03.43-1.28-.11-2.78.21-3.32.21,0-.85-.21-1.39-.11-2.67.11-1.18,0-2.56,0-3.63v-5.23c-.11-3.31-.11-7.26-.21-8.44-.11-1.28.21-2.56.21-3.85-.11-2.03,0-4.06,0-6.09,0-1.71-.21-5.02,0-6.73,1.18-.21,3-.21,4.93-.32,1.61-.11,3.43-.11,4.07-.11.21,0,.11,1.18.11,1.39-.11,3.53.11,5.88-.11,8.76.11,2.88,0,4.59-.21,7.37-.11.85.32,8.44.21,10.9.21,2.78,0,5.13-.21,7.05Zm-8.89-46.15c0-.64-.11-1.28-.11-1.82,0-.21.11-.43.11-.64h7.71q.75,0,.75.64v6.94c-1.61.21-8.24.21-8.35-.21-.11-.32-.11-.64-.11-1.07-.11-.75,0-2.35,0-3.85Z"/>
      <path class="cls-2" d="m563.3,285.63c-.49-.75-.97-1.07-1.05-1.71-.73-2.14-1.86-3.42-2.18-5.45-.32-1.92-.65-4.17-.81-5.98,0-1.92-.16-3.53-.16-5.56,0-2.14.24-3.63.24-5.77,0-1.39-.08-2.99-.08-4.38v-1.5c0-1.28.24-2.67.24-4.06,1.29-.11,3.56,0,4.53,0,.32.11,1.86-.11,2.27-.11.49,0,2.99,0,3.48.11,0,0-.24,1.82-.24,2.46,0,1.92-.16,3.42-.16,5.13s.32,11.32.57,13.03c0,1.39.08,2.14.16,3.53.08,1.5.73,2.67.97,2.99l.49,1.71,1.13,1.92c.73,1.28,2.18,1.28,3.4,1.18l1.86-.21c.89-.11,2.1-2.03,2.91-2.67.48-.64.89-2.24,1.21-3.63.08-.21.97-5.45.97-5.77.08-1.17.24-2.67.16-3.85-.16-1.28.16-2.99.16-4.38,0-1.18.16-2.78.24-3.53,0,.21.16-3.2.08-3.53-.08-.85-.32-1.6-.32-2.46,0-.43.16-.85.16-1.28h1.7c.4,0,.81.21,1.05.21,1.05,0,1.86.11,2.35,0,.49-.21.73-.11,1.29-.21.81.21,1.29-.11,2.27,0,.08.75-.16,2.14-.16,3.42,0,2.67.08,5.56,0,8.33-.08,1.5,0,2.99-.16,4.38,0,.43-.08,3.63,0,3.95.4,3.1-.16,9.83-.08,12.93,0,2.14.16,4.17.16,6.3-2.59.64-4.93.43-7.52.64-.16-.32-.24-.64-.24-1.39s-.08-1.28-.16-1.92c-.08-.64-.16-1.6-.16-1.6-.16,0-.73,1.07-1.21,1.28-1.05.64-2.1,1.5-3.15,1.71-2.1,1.28-4.85,1.28-7.6,1.28-1.62,0-2.67-.85-3.72-1.6-1.7-.85-4.05-3.1-4.85-3.95Z"/>
      <path class="cls-2" d="m609.85,259.28c.11-.64.64-.64.64-.64,2.78-2.67,5.57-4.06,8.99-4.81,2.03-.75,4.18-.75,6.1,0,1.5,0,2.14.75,3.53.75,3.43.64,5.46,2.67,7.6,5.34,2.68,3.53,3.43,6.94,4.82,11.11v4.81c-.64,2.78-.64,4.81-1.39,6.84-.75,2.14-2.03,4.17-4.18,5.56-1.39,1.39-3.43,2.67-5.46,3.42-2.78,1.39-4.93,2.14-7.6,2.67h-11.67v2.88c0,3.42,0,6.84-.75,10.36v16.77c0,1.28-.64,2.03-2.14,2.03h-6.1c-.75-4.91-.75-9.29-.75-14.1v-20.62c-.64-6.84.32-11.86-.21-18.8,0-.75.11-3.95.11-3.95,0-4.17-.21-5.77.43-9.83,0-.64.32-2.67,0-3.63,0-2.14.21-1.71.53-2.35.75-.11,2.78.53,4.07.64.86-.11,2.14-.21,3.43.11v5.45Zm17.88,6.94s0-.75-.64-.75c-1.5-1.28-4.18-2.03-6.21-.64-2.14,2.03-3.53,4.81-3.53,7.58v3.42c0,1.28.75,3.42,1.39,4.81,0,.75.75.75,1.5,1.39,2.68.64,6.1,0,7.49-3.42.75-2.03.64-3.53,1.07-5.98-.11-2.46-.32-4.27-1.07-6.41Z"/>
      <path class="cls-2" d="m692.9,298.28c0,.85,0,2.88-.11,3.74.11.53-.53,1.18-.75,1.39h-2.78c-.75,0-1.71-.11-2.46-.11-1.07.43-4.6.11-5.03.11q-.64-.75-.64-1.39v-10.26l-.21-6.3.21-7.16-.11-6.2-.43-5.13c-1.71,0-4.6.32-5.89,0-2.46-.43-3.43,0-5.35,0v-6.84h.64c.64,0,1.28-.11,1.5,0,.75.53,2.57.11,2.46-.11,1.61-.11,1.39-.11,2.68-.11,1.18,0,3.96.11,4.71,0,.11,0,0-3.95,0-5.45.32-2.67.32-4.7.43-7.48.11-1.92.11-3.74.11-5.77s.32-5.34.21-7.58c0-.75-.32-.75-.32-1.39s0-1.07.75-1.07c1.28,0,2.78.21,4.07.21,2.14,0,4.07,0,5.14.11.96.11,1.71.21,2.46.43.11,0,0,2.88-.11,4.49-.11,3.53-.11,5.77,0,9.29,0,1.6-.11,3.31,0,4.91,0,.85-.43,6.52-.53,7.37,0,.75.43,1.39.64,1.39.75,0,2.03.32,2.78.32.64,0,1.39.32,2.78.32,1.29,0,2.68.11,4.18.11.64,0,1.28.11,1.28.11.64,2.14.64,5.34,0,6.73h-.64c-2.78.32-5.57.53-8.35.53-.64,0-1.82.11-2.57.11,0,.64-.11,1.39-.11,1.39v.96c0,1.28.11,2.24,0,3.42l.21,5.66-.43,4.81c.11,1.5-.32,8.01-.43,9.51,0,1.6-.11,3.31,0,4.91Z"/>
      <path class="cls-2" d="m718.77,266.52c1.82,0,3.32-.11,5.14-.11,1.39,0,2.78,0,3.96.43.21,0,.75.11,1.39.75,2.89.75,5.14,4.49,6.53,7.26.75,1.18.75,3.31,1.18,4.49,0,2.03.32,3.85.32,5.77,0,3.2-.21,6.09-.21,9.4l-.21,3.53c0,.53-.86,2.46-.96,3.1-.43,1.39-1.29,3.85-1.61,4.17-1.39,1.39-.75,2.35-2.46,3.2-.64.32-1.82,1.07-2.68,1.6-.64.32-.32.43-1.28.75l-1.93.43c-1.71.32-2.57,0-3.85,0-1.93,0-4.07-.43-6-1.17-1.29,0-2.68-.75-3.21-1.39-.64-.53-1.39-1.18-2.14-1.92-1.18-1.28-1.82-2.56-2.46-3.95-.64-1.6-1.71-3.2-2.04-5.13-.32-3.2-.53-5.88-.53-8.55v-4.38c-.11-.21-.11-1.5,0-1.71,0-.75.11-1.5.21-2.24.11-1.18-.11-2.35.64-3.42-.21.43,1.61-3.63,1.5-3.31l.75-1.39c.96-.96,1.28-1.92,6-5.13.96-.32,2.57-1.07,3.96-1.07Zm2.57,19.98c-.54,1.18-.75,2.03-.75,2.67,0,2.03.75,3.2,2.03,3.85.64,0,1.29-.64,1.29-1.18,0-1.39.75-3.31,0-5.34-.64-.64-.64-1.17-1.29-1.17-.53,0-1.18.75-1.28,1.17Z"/>
      <path class="cls-2" d="m759.87,287.16c0-.96.96-1.82.96-2.78,0-.85.43-1.18.86-1.92.64-1.07,1.39-2.56,1.82-3.63.75-1.07,1.39-2.24,1.82-3.31l2.57-5.45c.75-1.71,1.07-2.99,1.39-4.38v-2.56c0-1.07-.32-2.24-.75-3.31-.32-.64-1.93-2.14-2.46-2.56-.86-.64-1.82-1.17-3-1.39,0,0-1.18-.53-2.25-.75-.64-.11-1.39-.43-2.57-.43-.21,0-1.07.43-1.82.43-1.07,0-2.46.32-3.21.96-1.18.85-2.25,1.6-3,2.67-.86.64-2.14,2.56-2.46,3.2-.43.32-.43.43-.86.43-.32,0-.96-.43-1.39-.64-.64-.43-1.28-.96-1.82-1.17-.32-.11-1.07-.32-1.18-.75.11-.53.43-1.07.64-1.71.21-.53.21-1.28.32-1.5.43-1.28,1.07-2.03,1.71-2.99.75-1.18,1.39-2.14,2.57-3.31.21-.32.64-.64,1.07-1.07.21-.21,2.89-2.24,3.21-2.24,1.5-1.07,3-1.39,4.39-1.82.64,0,4.07-.32,4.82-.32,1.39.32,3,.32,4.39.75,1.07.32,1.71.53,2.89,1.07,1.28.64,1.5.53,2.57,1.18.75.64,1.5.96,2.25,1.39,1.5.75,3.1,2.14,3.64,4.06.86,1.28,3,4.91,3,6.52,0,1.82,0,4.06-.43,6.3,0,.64,0,1.82-.43,2.46-.32.75-.32,1.82-.64,2.56-.75,1.82-1.5,3.2-2.57,4.38l-1.18,1.82c-.64.75-1.07,1.07-1.82,1.82-1.39,1.5-2.57,3.31-3.64,4.81-.32.53-1.39,1.6-1.39,2.24-1.18,1.82-2.25,3.63-3,5.77-.43,1.5-1.07,2.88-1.39,4.38.11,1.07-.43.75-1.18,1.07-.32,0-.86.11-1.71.11-.64,0-1.18.21-1.93.32-1.18.21-1.82,0-1.5-.53l.43-.64c-.43-1.07.21-4.81.64-5.88.43-.96,1.18-2.46,1.61-3.63Zm4.39,19.12v1.82c0,.75.11,1.71.11,2.67v.96c0,.96-.11,1.07-.11,1.39l-.86.32c-.96.32-1.61.43-2.68.43-1.39,0-2.68-.32-3.53-.32-.64,0-1.07.21-1.07-.21-.11-.64,0-1.28,0-1.92,0-1.6-.11-3.2-.11-4.81,0-.64-.21-1.17-.21-1.82.53-.53,1.93-.43,3-.32.53.11.86,0,1.18.11.11,0,1.82.21,2.03.21.64,0,1.07,0,1.82.32.43.32.43.75.43,1.18Z"/>
    </g>
  </g>
</svg>