<?xml version="1.0" encoding="UTF-8"?>
<svg id="Layer_2" data-name="Layer 2" xmlns="http://www.w3.org/2000/svg" viewBox="0 0 941.59 323.07">
  <defs>
    <style>
      .cls-1 {
        fill: #bbe417;
      }

      .cls-1, .cls-2 {
        stroke-width: 0px;
      }

      .cls-2 {
        fill: #f6bcf4;
      }
    </style>
  </defs>
  <g id="Layer_1-2" data-name="Layer 1">
    <g>
      <path class="cls-2" d="m499.24,202.85c-.84,3.14-3.46,13-11.78,16.87-11.45,5.32-28.79-2.97-31.37-13.05-3.32-12.98,18.48-26.45,13.24-36.08-1.22-2.24-3.33-3.23-4.99-3.98-13.5-6.09-27.39,9.93-51.85,18.85-2.75,1-38.15,13.37-70.7-1.18-5.64-2.52-11.83-5.44-17.67-11.78-17.32-18.8-11.1-47.57-9.43-54.2.72-2.85,4.11-15.53,15.32-29.46,28.89-35.9,89.18-60.67,115-40.78,15.17,11.69,14.76,35.96,31.11,38.42,8.22,1.24,15.54-3.8,22.39,1.18,4.89,3.55,6.13,9.74,6.8,13.04,1.98,9.83-1.06,17.4-3.27,24.66-1.67,5.5-8.35,27.45-5.54,49.55,1.64,12.92,5.48,17.67,2.74,27.93Zm-119-92.42c-1.06,1.01-12.24,11.87-11.35,21.95,1.1,12.42,20.31,20.93,32.91,9.76,1.99-1.76,7.99-7.08,9.51-17.02.2-1.32,1.05-7.49-.69-12.66-3.99-11.82-19.5-12.36-30.37-2.02Z"/>
      <path class="cls-1" d="m566.4,160.63c-14.66,6.49-36.98-9.32-38.59-26.8-.74-8.01,2.64-18.91,11.26-23.05,10.71-5.15,22.58,3.47,26.28,6.22,4.44,3.3,13.82,10.3,13.92,22.18.07,8.89-5.16,18.03-12.86,21.44Z"/>
      <path class="cls-1" d="m457.57,120.79c-3.33,1.75-8.2-.36-11.05-2.6-5.82-4.58-4.49-10.72-7.42-19.16-6.51-18.74-25.36-23.76-22.8-32.08.97-3.16,4.36-4.61,4.88-4.83,10.96-4.67,32.15,12.08,38.42,32.05,2.95,9.39,3.87,23.53-2.03,26.63Z"/>
      <path class="cls-2" d="m568.29,203.39c.09-1.01.68-8.6-2.62-16.47-2.56-6.09-6.67-9.33-12.31-9.7-1.93-.13-3.74.1-5.42.68-4.8,1.65-7.46,5.79-8.41,7.29-5.36,8.51-4.54,24.29-4.58,30.18-.16,26.66-19,28.71-18.59,53,.03,2.06.74,23.46,17.69,37.75,13.91,11.73,30.17,11.41,37.06,11.28,9.07-.17,27.38-.46,36.19-14,.92-1.42,7.27-11.51,3.99-22.44-5.01-16.66-25.43-12.09-35.82-30.12-8.22-14.25-7.94-38.75-7.16-47.45Z"/>
      <path class="cls-2" d="m847.38,161.5c18.12,22.52,16.29,65.72-.37,77.68-6.87,4.93-15.38,4.01-19.06,3.61-18.16-1.96-28.64-18.65-32.09-24.14-4.98-7.94-4.49-11.01-8.51-20.2-3.32-7.6-15.38-39.17-35.32-40.85-10.25-.86-18.93,6.33-22.54,9.32-4.61,3.82-11.81,9.78-13.25,18.84-2.31,14.46,12.58,20.94,12.27,39.84,0,.5-.21,8.25-3.73,15.66-8.78,18.5-35.25,27.05-56.46,24.51-28.01-3.36-47.6-26.3-54.48-47.03-6.11-18.42-2.28-35.36-1.57-38.35,5.01-20.92,16.36-23.2,14.87-34.43-2.43-18.39-33.44-16.88-46.95-44.61-1.24-2.55-7.79-16.53-4.1-33.66.77-3.57,5.11-22.3,22.1-31.75,18.61-10.35,38.13-.6,44.9,2.86,14.89,7.63,35.47,25.72,34.32,46.1-.93,16.43-15.31,22.16-12.27,34.22,2.7,10.69,17.2,18.78,26.38,15.19,6.33-2.47,6.83-9.19,15.55-28.34,6.45-14.18,11.45-25.16,19.99-35.43,6.67-8.02,17.65-21.23,34.26-22.54,1.51-.12,22.44-1.44,30.8,14,3.89,7.18,4.36,16.7,1.38,24.61-8.2,21.8-39.7,23.71-39.09,30.93.42,4.9,15.07,5.43,32.88,10.28,17.89,4.87,43.92,13.58,60.09,33.68Z"/>
      <path class="cls-1" d="m878.31,301.71c.68-9.14,10.28-17.06,18.98-16.25,7.28.68,11.63,7.26,15.36,12.91,2.04,3.09,4.04,6.21,4.07,10.68.01,1.59-.26,7.26-4.35,10.97-6.12,5.56-16.47,2.33-21.52-.39-1.58-.85-13.33-7.15-12.53-17.93Z"/>
      <path class="cls-2" d="m880.57,235.52c.44,6.92,1.49,14.86,7.53,20.28.44.39,8.19,7.13,17.78,5.01,0,0,5.48-1.21,9.63-5.51,10.27-10.62-.3-29.78.82-51.81,1.65-32.35,26.66-34.95,25.19-61.35-1.39-25-25.07-44.85-44.11-51.95-6.47-2.41-18.29-6.81-28.2-1.12-11.7,6.72-13.23,23.21-13.52,26.32-2.96,31.9,29.3,38.9,29.53,71.82.1,14.68-6.24,23.53-4.66,48.29Z"/>
      <g>
        <path class="cls-2" d="m256.78,105.06c12.86,7.95,29.27,25.18,25.33,40.81-3.14,12.48-17.86,18.39-28.15,22.52-26.58,10.66-55.7,7.52-71.77,5.63-19.81-2.33-29.37-6.05-35.18,0-7.03,7.31-1.88,22.54,0,28.15,5.53,16.47,21.65,40.87,42.22,42.22,29.96,1.96,36.24-47.16,75.99-54.88,27.09-5.26,61.72,11.14,70.36,36.59,5.69,16.74-1.55,32.53-2.81,35.18-18.26,38.25-80.73,40.28-97.1,40.81-22.33.73-76.31,2.48-105.54-32.37-28.03-33.41-10.43-69.12-33.77-85.84-24.68-17.68-69.08,24.69-88.66,7.04-10.37-9.35-10.16-32.3,0-43.62,17.09-19.06,57.18.48,63.33-11.26,7.55-14.43-53.24-43.46-53.48-90.06-.09-17.26,8.13-37.26,22.52-43.62,25.87-11.44,72.41,20.94,86.15,60.04,10.86,30.91-2.27,56.12,9.55,62.39,11.32,6.01,24.15-16.69,60.51-25.33,9.76-2.32,37.13-8.82,60.51,5.63Z"/>
        <path class="cls-1" d="m96.34,40.03c5.49,6.1,12.37,13.76,11.26,23.05-1.74,14.46-22.16,27.11-40.73,23.58-15.16-2.88-26.84-16.12-28.94-31.09-1.74-12.39,2.7-28.63,14.47-34.3,18.89-9.11,41.65,16.2,43.95,18.76Z"/>
        <path class="cls-1" d="m260.35,239.95c-.74-2.44-5.68-19.74,4.82-29.48,10.82-10.04,28.37-3.08,30.38-2.29,12.28,4.87,25.82,18.23,24,35.04-1.08,9.94-7.52,21.04-17.93,24.59-16.87,5.76-36.17-11-41.27-27.87Z"/>
      </g>
      <path class="cls-1" d="m632.86,191.71c5.07.37,6.74,8.93,11.79,17.15,5.94,9.66,15.32,16.85,23.05,19.83,18,6.96,33.71-6.33,37.52-1.07,3.36,4.64-4.69,20.77-17.69,25.73-20.99,8.01-47.44-15.93-57.16-35.21-2.22-4.41-8.41-16.66-3.41-23.22.21-.27,2.7-3.45,5.9-3.22Z"/>
      <path class="cls-1" d="m780.91,89.1c-3.04-2.34.4-7.82-1.19-13.7-1.73-6.36-8.97-11.79-15.54-12.33-7-.57-11.57,4.56-14.47,2.14-1.51-1.25-1.93-4.01-1.07-5.9,3-6.56,24.71-9.17,34.84,2.14,7.01,7.83,5.27,18.73,5.06,19.89-.31,1.78-1.35,7.69-4.58,8.44-.99.23-2.18-.03-3.04-.7Z"/>
    </g>
  </g>
</svg>