<?xml version="1.0" encoding="UTF-8"?>
<svg id="Layer_2" data-name="Layer 2" xmlns="http://www.w3.org/2000/svg" viewBox="0 0 720.62 623.23">
  <defs>
    <style>
      .cls-1, .cls-2, .cls-3, .cls-4, .cls-5 {
        stroke-width: 0px;
      }

      .cls-2 {
        fill: #3dffcf;
      }

      .cls-3 {
        fill: #ddc557;
      }

      .cls-4 {
        fill: #979eff;
      }

      .cls-5 {
        fill: #f363d5;
      }
    </style>
  </defs>
  <g id="Layer_1-2" data-name="Layer 1">
    <g>
      <path class="cls-2" d="m304.2,480.94l69.46-172c33.07-1.82,86.74,5.63,119.99,13.65l-71.45,176.97c-32.42-8.02-85.59-17.78-118-18.61"/>
      <path class="cls-4" d="m616.45,391.81l-72.19,177.79c-24.14-19.84-90.3-57.56-122.05-70.04l71.45-176.97c32.33,11.5,101.38,46.14,122.8,69.21"/>
      <path class="cls-3" d="m687.16,227.11l-70.87,164.72c-23.16-21.17-90.14-57.31-122.8-69.21l71.61-177.3c32.67,10.92,100.8,57.56,122.05,81.78"/>
      <path class="cls-5" d="m373.64,309.04l70.45-174.07c33-1.16,87.99,4.05,121.14,10.42l-71.61,177.3c-32.83-9.02-87.16-14.3-119.99-13.65"/>
      <path class="cls-4" d="m135.06,372.97l-33.99-.58c2.31-6.87,5.29-14.56,8.18-21.01l34.31-.09c-2.48,7.03-5.46,14.63-8.51,21.67"/>
      <path class="cls-4" d="m187.55,401.34l-42.84-.25,11.99-29.1c14.14-.09,28.45,0,42.67.49l-11.83,28.86"/>
      <path class="cls-4" d="m258.68,394.14c-4.96,11.41-9.18,23.65-14.3,35.15l-48.21-.58,14.23-34.89,48.29.33"/>
      <path class="cls-4" d="m89.33,338.04l-24.73-.17c1.98-5.7,4.46-12.08,7.03-17.78,8.44-.09,16.87-.58,25.31-.25l-7.61,18.19"/>
      <path class="cls-4" d="m44.67,301.84c-6.36.17-12.81.82-19.19.66l6.2-15.05c6.36-.33,12.74-.66,19.1-.66l-6.12,15.05"/>
      <path class="cls-4" d="m157.49,317.09l-34.07-.42,8.18-20.92c11.57.33,23.16-.33,34.64.09l-8.77,21.25"/>
      <path class="cls-4" d="m209.78,345.87l-42.51-.17,11.5-28.94c14.3-.09,28.61-.17,42.92.17l-11.91,28.94"/>
      <path class="cls-4" d="m267.16,373.18l-48.38-1.08,14.05-34.31,48.21.49-13.89,34.89"/>
      <path class="cls-4" d="m112.83,280.25c-8.27-.25-16.78.42-25.14-.09l7.61-18.77,24.64.66c-1.82,5.87-4.39,12.32-7.11,18.19"/>
      <path class="cls-4" d="m67.94,244.27l-19.1.42,5.87-14.96c6.2-.58,12.9-.58,19.35-.58l-6.12,15.13"/>
      <path class="cls-5" d="m203.85,202.35l-34.15-.25,8.35-21.34c11.5.17,22.99,0,34.57.25l-8.77,21.34"/>
      <path class="cls-5" d="m213.81,231.14l11.5-29.27h42.59l-11.5,29.27h-42.59"/>
      <path class="cls-5" d="m314.15,256.54l-48.38-.33,13.98-34.82,48.29.17-13.89,34.98"/>
      <path class="cls-5" d="m159.4,165.09c-8.11.42-16.62,0-24.89.17l6.94-18.53c8.11-.66,16.71.33,24.89.09l-6.94,18.28"/>
      <path class="cls-5" d="m114.31,128.89c-6.36.17-12.74.82-19.19.58l6.29-15.05,18.93-.91-6.03,15.38"/>
      <path class="cls-5" d="m226.93,145.19c-11.41,0-22.83-.17-34.24-.66l8.44-20.92c11.5.17,22.99-.25,34.48.09l-8.68,21.5"/>
      <path class="cls-5" d="m279.22,173.98c-14.23,0-28.53.25-42.84-.17l11.91-29.1c14.3-.17,28.53.09,42.84.17l-11.91,29.1"/>
      <path class="cls-5" d="m336.16,201.71l-48.05-.49,13.98-34.98,48.38.33-14.3,35.15"/>
      <path class="cls-5" d="m182.26,107.93h-24.97l7.36-18.77c8.44.42,16.71,0,25.06.49l-7.44,18.28"/>
      <path class="cls-5" d="m137.59,71.52l-19.19.82,5.96-15.13c6.36-.75,12.81-.42,19.19-.82l-5.96,15.13"/>
      <path class="cls-1" d="m113.46,431.4c-13.48.17-27.04.09-40.6-.33l9.68-23.98c13.56,0,27.21.42,40.93.25l-10,24.07"/>
      <path class="cls-1" d="m424.02,165.51l-60.78.42,21.34-53.01c20.68-2.31,41.51-4.55,62.27-3.88l-22.83,56.48"/>
      <path class="cls-1" d="m161.52,17.11l-23.07.49L145.14.49c7.78-.17,15.54-.49,23.32-.49l-6.94,17.11"/>
      <path class="cls-1" d="m207.45,50.98c-10.26-.33-20.5-.25-30.85-.66l8.11-19.84c10.33.33,20.68-.17,31.01.49l-8.27,20.01"/>
      <path class="cls-1" d="m362.21,146.89l-57.47-.25,16.71-41.76,57.56.49-16.78,41.51"/>
      <path class="cls-1" d="m254.45,117.67l12.48-31.59,50.69.09-12.74,31.84-50.44-.33"/>
      <path class="cls-1" d="m251.91,88.67l-40.69-.33,9.42-23.82c13.56,0,27.21-.49,40.93,0l-9.68,24.14"/>
      <path class="cls-1" d="m401.79,220.77c-20.26.49-40.6.82-60.95.91l19.84-49.04,60.61-.25-19.52,48.38"/>
      <path class="cls-1" d="m378.92,277.07l-60.78.82-.33-.17,19.68-49.04,61.28-.91-19.84,49.29"/>
      <path class="cls-1" d="m69.64,188.16l6.7-16.95,23.4-.82-6.87,17.45-23.24.33"/>
      <path class="cls-1" d="m295.52,333.6l19.6-48.87,60.86-.75-19.43,48.96-61.03.66"/>
      <path class="cls-1" d="m137.81,223.31l-30.85-.42,8.11-19.84c10.33.33,20.59-.17,30.92.49l-8.18,19.77"/>
      <path class="cls-1" d="m292.77,318.57l-57.47-.42,16.54-41.51,57.63.49-16.71,41.43"/>
      <path class="cls-1" d="m235.4,290.2l-50.2-.17-.42-.17,12.81-31.51,50.6.09-12.81,31.76"/>
      <path class="cls-1" d="m182.26,261.2l-40.6-.42,9.35-23.82c13.72-.17,27.54-.09,41.27.17l-10,24.07"/>
      <path class="cls-1" d="m333.62,389.69l-.25.58-60.86.75,19.93-50.2,61.19-.66-20.01,49.53"/>
      <path class="cls-1" d="m310.76,446.22l-61.03,1.49-.42-.17,20.26-49.7,60.78-.58-19.6,48.96"/>
      <path class="cls-1" d="m23.07,360.27c-7.69-.25-15.38.49-23.07,0l6.7-16.38c7.85-.66,15.71-.49,23.65-.82l-7.27,17.2"/>
      <path class="cls-1" d="m286.42,506.34c-20.34-.49-40.6-.66-61.03.99l21.25-52.76,61.28-1.08-21.5,52.84"/>
      <path class="cls-1" d="m68.37,395.83l-31.09.17,7.69-19.77c10.5,0,20.84-.33,31.34-.09l-7.94,19.68"/>
      <path class="cls-1" d="m223.75,489.4l-57.22-.82,16.78-41.43,57.22.58-16.78,41.68"/>
      <path class="cls-1" d="m116.22,460.4l12.81-31.92,50.36.33-12.81,32-50.36-.42"/>
      <path class="cls-1" d="m655.61,236.22c-21.25-24.23-50.77-41.43-83.44-52.26l-51.11,126.44c32.58,11.99,61.35,28.45,84.51,49.53l50.03-123.71h0Zm-66.32,164.97c-21.41-23.07-52.1-39.45-84.35-50.93l-51.93,129.17c31.67,12.48,61.35,27.29,85.5,47.14l50.77-125.37h0Zm131.32-179.69l-162.32,401.73c-42.09-57.38-115.27-93.61-188.78-107.33-25.31-4.63-50.69-8.11-76-9.09l21.25-52.26c32.42.91,64.91,4.72,97.33,12.81l52.43-129.91c-33.24-8.02-66.4-9.02-99.48-7.2l17.04-42.67c32.75-.66,65.58,1.4,98.4,10.42l50.6-125.11c-33.16-6.45-66.32-8.77-99.31-7.61l22.65-56.56c75.25-.33,162.32,20.68,224.02,70.62,15.63,12.41,30.01,26.13,42.17,42.17"/>
    </g>
  </g>
</svg>