<?xml version="1.0" encoding="UTF-8"?>
<svg id="Layer_2" data-name="Layer 2" xmlns="http://www.w3.org/2000/svg" viewBox="0 0 470.52 176.3">
  <defs>
    <style>
      .cls-1 {
        fill: #f4cf18;
      }

      .cls-1, .cls-2, .cls-3, .cls-4, .cls-5, .cls-6, .cls-7, .cls-8, .cls-9, .cls-10, .cls-11, .cls-12, .cls-13, .cls-14, .cls-15, .cls-16, .cls-17, .cls-18, .cls-19, .cls-20, .cls-21, .cls-22, .cls-23, .cls-24, .cls-25, .cls-26, .cls-27, .cls-28, .cls-29, .cls-30, .cls-31, .cls-32, .cls-33, .cls-34, .cls-35, .cls-36, .cls-37, .cls-38, .cls-39, .cls-40, .cls-41, .cls-42, .cls-43, .cls-44, .cls-45, .cls-46, .cls-47, .cls-48, .cls-49, .cls-50, .cls-51, .cls-52, .cls-53, .cls-54, .cls-55, .cls-56, .cls-57, .cls-58, .cls-59, .cls-60, .cls-61, .cls-62, .cls-63, .cls-64, .cls-65, .cls-66, .cls-67, .cls-68, .cls-69, .cls-70, .cls-71, .cls-72, .cls-73, .cls-74, .cls-75, .cls-76, .cls-77, .cls-78, .cls-79, .cls-80, .cls-81, .cls-82, .cls-83, .cls-84, .cls-85, .cls-86, .cls-87, .cls-88, .cls-89, .cls-90, .cls-91, .cls-92, .cls-93, .cls-94, .cls-95, .cls-96, .cls-97, .cls-98, .cls-99, .cls-100, .cls-101, .cls-102, .cls-103, .cls-104, .cls-105, .cls-106, .cls-107, .cls-108, .cls-109, .cls-110, .cls-111, .cls-112, .cls-113, .cls-114, .cls-115, .cls-116, .cls-117, .cls-118, .cls-119, .cls-120, .cls-121, .cls-122, .cls-123, .cls-124, .cls-125, .cls-126, .cls-127, .cls-128, .cls-129, .cls-130, .cls-131, .cls-132, .cls-133, .cls-134, .cls-135, .cls-136, .cls-137, .cls-138, .cls-139, .cls-140, .cls-141, .cls-142, .cls-143, .cls-144, .cls-145, .cls-146, .cls-147, .cls-148, .cls-149, .cls-150, .cls-151, .cls-152, .cls-153, .cls-154, .cls-155, .cls-156, .cls-157, .cls-158, .cls-159, .cls-160, .cls-161, .cls-162 {
        stroke-width: 0px;
      }

      .cls-2 {
        fill: #f4d018;
      }

      .cls-3 {
        fill: #f4d118;
      }

      .cls-4 {
        fill: #f4cd17;
      }

      .cls-5 {
        fill: #f4ce17;
      }

      .cls-6 {
        fill: #f7de1d;
      }

      .cls-7 {
        fill: #f7dd1d;
      }

      .cls-8 {
        fill: #f7db1c;
      }

      .cls-9 {
        fill: #f7dc1d;
      }

      .cls-10 {
        fill: #f3cc16;
      }

      .cls-11 {
        fill: #f9e620;
      }

      .cls-12 {
        fill: #f9e520;
      }

      .cls-13 {
        fill: #f9e420;
      }

      .cls-14 {
        fill: #f9e31f;
      }

      .cls-15 {
        fill: #f8e21f;
      }

      .cls-16 {
        fill: #f9e721;
      }

      .cls-17 {
        fill: #f7da1c;
      }

      .cls-18 {
        fill: #f8e11e;
      }

      .cls-19 {
        fill: #f8df1e;
      }

      .cls-20 {
        fill: #f8e01e;
      }

      .cls-21 {
        fill: #c57e00;
      }

      .cls-22 {
        fill: #c47d00;
      }

      .cls-23 {
        fill: #c77f00;
      }

      .cls-24 {
        fill: #d08500;
      }

      .cls-25 {
        fill: #d28700;
      }

      .cls-26 {
        fill: #d38700;
      }

      .cls-27 {
        fill: #cc8200;
      }

      .cls-28 {
        fill: #cc8300;
      }

      .cls-29 {
        fill: #de8e00;
      }

      .cls-30 {
        fill: #d18600;
      }

      .cls-31 {
        fill: #ca8100;
      }

      .cls-32 {
        fill: #cb8200;
      }

      .cls-33 {
        fill: #cd8400;
      }

      .cls-34 {
        fill: #d98b00;
      }

      .cls-35 {
        fill: #c67f00;
      }

      .cls-36 {
        fill: #df8f00;
      }

      .cls-37 {
        fill: #e39100;
      }

      .cls-38 {
        fill: #e29100;
      }

      .cls-39 {
        fill: #dd8d00;
      }

      .cls-40 {
        fill: #c98100;
      }

      .cls-41 {
        fill: #c88000;
      }

      .cls-42 {
        fill: #e19000;
      }

      .cls-43 {
        fill: #d58900;
      }

      .cls-44 {
        fill: #d68900;
      }

      .cls-45 {
        fill: #dc8d00;
      }

      .cls-46 {
        fill: #d48800;
      }

      .cls-47 {
        fill: #d78a00;
      }

      .cls-48 {
        fill: #da8c00;
      }

      .cls-49 {
        fill: #e08f00;
      }

      .cls-50 {
        fill: #bc7900;
      }

      .cls-51 {
        fill: #db8c00;
      }

      .cls-52 {
        fill: #bf7a00;
      }

      .cls-53 {
        fill: #c17c00;
      }

      .cls-54 {
        fill: #be7a00;
      }

      .cls-55 {
        fill: #d88a00;
      }

      .cls-56 {
        fill: #b37300;
      }

      .cls-57 {
        fill: #bd7900;
      }

      .cls-58 {
        fill: #c07b00;
      }

      .cls-59 {
        fill: #cf8500;
      }

      .cls-60 {
        fill: #ce8400;
      }

      .cls-61 {
        fill: #b57400;
      }

      .cls-62 {
        fill: #b67500;
      }

      .cls-63 {
        fill: #b87600;
      }

      .cls-64 {
        fill: #b97700;
      }

      .cls-65 {
        fill: #ba7700;
      }

      .cls-66 {
        fill: #c37d00;
      }

      .cls-67 {
        fill: #b47400;
      }

      .cls-68 {
        fill: #b77500;
      }

      .cls-69 {
        fill: #c27c00;
      }

      .cls-70 {
        fill: #bb7800;
      }

      .cls-71 {
        fill: #fcf426;
      }

      .cls-72 {
        fill: #fcf225;
      }

      .cls-73 {
        fill: #fdf526;
      }

      .cls-74 {
        fill: #fdf727;
      }

      .cls-75 {
        fill: #fdf827;
      }

      .cls-76 {
        fill: #fdf627;
      }

      .cls-77 {
        fill: #edb00b;
      }

      .cls-78 {
        fill: #edb30c;
      }

      .cls-79 {
        fill: #edb20c;
      }

      .cls-80 {
        fill: #f2c915;
      }

      .cls-81 {
        fill: #f2c614;
      }

      .cls-82 {
        fill: #f2c714;
      }

      .cls-83 {
        fill: #f3cb16;
      }

      .cls-84 {
        fill: #e49200;
      }

      .cls-85 {
        fill: #ffff2a;
      }

      .cls-86 {
        fill: #f5d319;
      }

      .cls-87 {
        fill: #fffe2a;
      }

      .cls-88 {
        fill: #eeb40d;
      }

      .cls-89 {
        fill: #eeb50d;
      }

      .cls-90 {
        fill: #eeb60d;
      }

      .cls-91 {
        fill: #eeb70e;
      }

      .cls-92 {
        fill: #eeb80e;
      }

      .cls-93 {
        fill: #fffd29;
      }

      .cls-94 {
        fill: #e89d04;
      }

      .cls-95 {
        fill: #e9a206;
      }

      .cls-96 {
        fill: #e59200;
      }

      .cls-97 {
        fill: #e9a105;
      }

      .cls-98 {
        fill: #e99f05;
      }

      .cls-99 {
        fill: #e9a005;
      }

      .cls-100 {
        fill: #f0bf11;
      }

      .cls-101 {
        fill: #f0c011;
      }

      .cls-102 {
        fill: #f0bd10;
      }

      .cls-103 {
        fill: #f0be11;
      }

      .cls-104 {
        fill: #e69400;
      }

      .cls-105 {
        fill: #e69501;
      }

      .cls-106 {
        fill: #e69300;
      }

      .cls-107 {
        fill: #faeb22;
      }

      .cls-108 {
        fill: #e79802;
      }

      .cls-109 {
        fill: #e79902;
      }

      .cls-110 {
        fill: #fcf325;
      }

      .cls-111 {
        fill: #fcf125;
      }

      .cls-112 {
        fill: #fcf024;
      }

      .cls-113 {
        fill: #edb10c;
      }

      .cls-114 {
        fill: #fefa28;
      }

      .cls-115 {
        fill: #fef928;
      }

      .cls-116 {
        fill: #e79601;
      }

      .cls-117 {
        fill: #e79702;
      }

      .cls-118 {
        fill: #faea22;
      }

      .cls-119 {
        fill: #fbef24;
      }

      .cls-120 {
        fill: #fbee23;
      }

      .cls-121 {
        fill: #fbed23;
      }

      .cls-122 {
        fill: #fbec23;
      }

      .cls-123 {
        fill: #fae922;
      }

      .cls-124 {
        fill: #fae821;
      }

      .cls-125 {
        fill: #fefc29;
      }

      .cls-126 {
        fill: #fefb28;
      }

      .cls-127 {
        fill: #eba908;
      }

      .cls-128 {
        fill: #eba708;
      }

      .cls-129 {
        fill: #eba808;
      }

      .cls-130 {
        fill: #ebaa09;
      }

      .cls-131 {
        fill: #f2c814;
      }

      .cls-132 {
        fill: #efbb0f;
      }

      .cls-133 {
        fill: #efbc10;
      }

      .cls-134 {
        fill: #efba0f;
      }

      .cls-135 {
        fill: #ecab09;
      }

      .cls-136 {
        fill: #ecad0a;
      }

      .cls-137 {
        fill: #ecac0a;
      }

      .cls-138 {
        fill: #efb90f;
      }

      .cls-139 {
        fill: #ecae0a;
      }

      .cls-140 {
        fill: #ecaf0b;
      }

      .cls-141 {
        fill: #f1c212;
      }

      .cls-142 {
        fill: #f1c513;
      }

      .cls-143 {
        fill: #f1c312;
      }

      .cls-144 {
        fill: #f1c112;
      }

      .cls-145 {
        fill: #f1c413;
      }

      .cls-146 {
        fill: #f3c915;
      }

      .cls-147 {
        fill: #f6d91b;
      }

      .cls-148 {
        fill: #f6d81b;
      }

      .cls-149 {
        fill: #f6d71b;
      }

      .cls-150 {
        fill: #f6d61a;
      }

      .cls-151 {
        fill: #e99e04;
      }

      .cls-152 {
        fill: #e89c03;
      }

      .cls-153 {
        fill: #e89b03;
      }

      .cls-154 {
        fill: #e89a03;
      }

      .cls-155 {
        fill: #eaa407;
      }

      .cls-156 {
        fill: #f3ca16;
      }

      .cls-157 {
        fill: #eaa306;
      }

      .cls-158 {
        fill: #eaa607;
      }

      .cls-159 {
        fill: #eaa507;
      }

      .cls-160 {
        fill: #f5d51a;
      }

      .cls-161 {
        fill: #f5d219;
      }

      .cls-162 {
        fill: #f5d419;
      }
    </style>
  </defs>
  <g id="Layer_1-2" data-name="Layer 1">
    <g>
      <ellipse class="cls-56" cx="235.26" cy="88.15" rx="235.26" ry="88.15"/>
      <ellipse class="cls-67" cx="235.26" cy="88.15" rx="234.16" ry="87.74"/>
      <ellipse class="cls-61" cx="235.26" cy="88.15" rx="233.06" ry="87.33"/>
      <ellipse class="cls-62" cx="235.26" cy="88.15" rx="231.96" ry="86.91"/>
      <ellipse class="cls-68" cx="235.26" cy="88.15" rx="230.85" ry="86.5"/>
      <ellipse class="cls-63" cx="235.26" cy="88.15" rx="229.75" ry="86.09"/>
      <ellipse class="cls-64" cx="235.26" cy="88.15" rx="228.65" ry="85.67"/>
      <ellipse class="cls-65" cx="235.26" cy="88.15" rx="227.55" ry="85.26"/>
      <ellipse class="cls-70" cx="235.26" cy="88.15" rx="226.45" ry="84.85"/>
      <ellipse class="cls-50" cx="235.26" cy="88.15" rx="225.35" ry="84.44"/>
      <ellipse class="cls-57" cx="235.26" cy="88.15" rx="224.25" ry="84.02"/>
      <ellipse class="cls-54" cx="235.26" cy="88.15" rx="223.14" ry="83.61"/>
      <ellipse class="cls-52" cx="235.26" cy="88.15" rx="222.04" ry="83.2"/>
      <ellipse class="cls-58" cx="235.26" cy="88.15" rx="220.94" ry="82.79"/>
      <ellipse class="cls-53" cx="235.26" cy="88.15" rx="219.84" ry="82.37"/>
      <ellipse class="cls-69" cx="235.26" cy="88.15" rx="218.74" ry="81.96"/>
      <ellipse class="cls-66" cx="235.26" cy="88.15" rx="217.64" ry="81.55"/>
      <ellipse class="cls-22" cx="235.26" cy="88.15" rx="216.54" ry="81.14"/>
      <ellipse class="cls-21" cx="235.26" cy="88.15" rx="215.44" ry="80.72"/>
      <ellipse class="cls-35" cx="235.26" cy="88.15" rx="214.33" ry="80.31"/>
      <ellipse class="cls-23" cx="235.26" cy="88.15" rx="213.23" ry="79.9"/>
      <ellipse class="cls-41" cx="235.26" cy="88.15" rx="212.13" ry="79.48"/>
      <ellipse class="cls-40" cx="235.26" cy="88.15" rx="211.03" ry="79.07"/>
      <ellipse class="cls-31" cx="235.26" cy="88.15" rx="209.93" ry="78.66"/>
      <ellipse class="cls-32" cx="235.26" cy="88.15" rx="208.83" ry="78.25"/>
      <ellipse class="cls-27" cx="235.26" cy="88.15" rx="207.73" ry="77.83"/>
      <ellipse class="cls-28" cx="235.26" cy="88.15" rx="206.62" ry="77.42"/>
      <ellipse class="cls-33" cx="235.26" cy="88.15" rx="205.52" ry="77.01"/>
      <ellipse class="cls-60" cx="235.26" cy="88.15" rx="204.42" ry="76.6"/>
      <ellipse class="cls-59" cx="235.26" cy="88.15" rx="203.32" ry="76.18"/>
      <ellipse class="cls-24" cx="235.26" cy="88.15" rx="202.22" ry="75.77"/>
      <ellipse class="cls-30" cx="235.26" cy="88.15" rx="201.12" ry="75.36"/>
      <ellipse class="cls-25" cx="235.26" cy="88.15" rx="200.02" ry="74.94"/>
      <ellipse class="cls-26" cx="235.26" cy="88.15" rx="198.91" ry="74.53"/>
      <ellipse class="cls-46" cx="235.26" cy="88.15" rx="197.81" ry="74.12"/>
      <ellipse class="cls-43" cx="235.26" cy="88.15" rx="196.71" ry="73.71"/>
      <ellipse class="cls-44" cx="235.26" cy="88.15" rx="195.61" ry="73.29"/>
      <ellipse class="cls-47" cx="235.26" cy="88.15" rx="194.51" ry="72.88"/>
      <ellipse class="cls-55" cx="235.26" cy="88.15" rx="193.41" ry="72.47"/>
      <ellipse class="cls-34" cx="235.26" cy="88.15" rx="192.31" ry="72.06"/>
      <ellipse class="cls-48" cx="235.26" cy="88.15" rx="191.2" ry="71.64"/>
      <ellipse class="cls-51" cx="235.26" cy="88.15" rx="190.1" ry="71.23"/>
      <ellipse class="cls-45" cx="235.26" cy="88.15" rx="189" ry="70.82"/>
      <ellipse class="cls-39" cx="235.26" cy="88.15" rx="187.9" ry="70.41"/>
      <ellipse class="cls-29" cx="235.26" cy="88.15" rx="186.8" ry="69.99"/>
      <ellipse class="cls-36" cx="235.26" cy="88.15" rx="185.7" ry="69.58"/>
      <ellipse class="cls-49" cx="235.26" cy="88.15" rx="184.6" ry="69.17"/>
      <ellipse class="cls-42" cx="235.26" cy="88.15" rx="183.49" ry="68.75"/>
      <ellipse class="cls-38" cx="235.26" cy="88.15" rx="182.39" ry="68.34"/>
      <ellipse class="cls-37" cx="235.26" cy="88.15" rx="181.29" ry="67.93"/>
      <ellipse class="cls-84" cx="235.26" cy="88.15" rx="180.19" ry="67.52"/>
      <ellipse class="cls-96" cx="235.26" cy="88.15" rx="179.09" ry="67.1"/>
      <ellipse class="cls-106" cx="235.26" cy="88.15" rx="177.99" ry="66.69"/>
      <ellipse class="cls-104" cx="235.26" cy="88.15" rx="177.02" ry="66.26"/>
      <ellipse class="cls-105" cx="235.27" cy="88.16" rx="176.05" ry="65.83"/>
      <ellipse class="cls-116" cx="235.27" cy="88.16" rx="175.09" ry="65.39"/>
      <ellipse class="cls-117" cx="235.27" cy="88.16" rx="174.12" ry="64.96"/>
      <ellipse class="cls-108" cx="235.27" cy="88.16" rx="173.15" ry="64.53"/>
      <ellipse class="cls-109" cx="235.28" cy="88.17" rx="172.18" ry="64.09"/>
      <ellipse class="cls-154" cx="235.28" cy="88.17" rx="171.22" ry="63.66"/>
      <ellipse class="cls-153" cx="235.28" cy="88.17" rx="170.25" ry="63.23"/>
      <ellipse class="cls-152" cx="235.28" cy="88.18" rx="169.28" ry="62.79"/>
      <ellipse class="cls-94" cx="235.29" cy="88.18" rx="168.31" ry="62.36"/>
      <ellipse class="cls-151" cx="235.29" cy="88.18" rx="167.35" ry="61.93"/>
      <ellipse class="cls-98" cx="235.29" cy="88.18" rx="166.38" ry="61.49"/>
      <ellipse class="cls-99" cx="235.3" cy="88.19" rx="165.41" ry="61.06"/>
      <ellipse class="cls-97" cx="235.3" cy="88.19" rx="164.44" ry="60.63"/>
      <ellipse class="cls-95" cx="235.3" cy="88.19" rx="163.48" ry="60.2"/>
      <ellipse class="cls-157" cx="235.3" cy="88.19" rx="162.51" ry="59.76"/>
      <ellipse class="cls-155" cx="235.31" cy="88.2" rx="161.54" ry="59.33"/>
      <ellipse class="cls-159" cx="235.31" cy="88.2" rx="160.57" ry="58.9"/>
      <ellipse class="cls-158" cx="235.31" cy="88.2" rx="159.61" ry="58.46"/>
      <ellipse class="cls-128" cx="235.31" cy="88.2" rx="158.64" ry="58.03"/>
      <ellipse class="cls-129" cx="235.32" cy="88.21" rx="157.67" ry="57.6"/>
      <ellipse class="cls-127" cx="235.32" cy="88.21" rx="156.71" ry="57.16"/>
      <ellipse class="cls-130" cx="235.32" cy="88.21" rx="155.74" ry="56.73"/>
      <ellipse class="cls-135" cx="235.32" cy="88.21" rx="154.77" ry="56.3"/>
      <ellipse class="cls-137" cx="235.33" cy="88.22" rx="153.8" ry="55.87"/>
      <ellipse class="cls-136" cx="235.33" cy="88.22" rx="152.84" ry="55.43"/>
      <ellipse class="cls-139" cx="235.33" cy="88.22" rx="151.87" ry="55"/>
      <ellipse class="cls-140" cx="235.34" cy="88.23" rx="150.9" ry="54.57"/>
      <ellipse class="cls-77" cx="235.34" cy="88.23" rx="149.93" ry="54.13"/>
      <ellipse class="cls-113" cx="235.34" cy="88.23" rx="148.97" ry="53.7"/>
      <ellipse class="cls-79" cx="235.34" cy="88.23" rx="148" ry="53.27"/>
      <ellipse class="cls-78" cx="235.35" cy="88.24" rx="147.03" ry="52.83"/>
      <ellipse class="cls-88" cx="235.35" cy="88.24" rx="146.06" ry="52.4"/>
      <ellipse class="cls-89" cx="235.35" cy="88.24" rx="145.1" ry="51.97"/>
      <ellipse class="cls-90" cx="235.35" cy="88.24" rx="144.13" ry="51.54"/>
      <ellipse class="cls-91" cx="235.36" cy="88.25" rx="143.16" ry="51.1"/>
      <ellipse class="cls-92" cx="235.36" cy="88.25" rx="142.2" ry="50.67"/>
      <ellipse class="cls-138" cx="235.36" cy="88.25" rx="141.23" ry="50.24"/>
      <ellipse class="cls-134" cx="235.37" cy="88.25" rx="140.26" ry="49.8"/>
      <ellipse class="cls-132" cx="235.37" cy="88.26" rx="139.29" ry="49.37"/>
      <ellipse class="cls-133" cx="235.37" cy="88.26" rx="138.33" ry="48.94"/>
      <ellipse class="cls-102" cx="235.37" cy="88.26" rx="137.36" ry="48.5"/>
      <ellipse class="cls-103" cx="235.38" cy="88.27" rx="136.39" ry="48.07"/>
      <ellipse class="cls-100" cx="235.38" cy="88.27" rx="135.42" ry="47.64"/>
      <ellipse class="cls-101" cx="235.38" cy="88.27" rx="134.46" ry="47.2"/>
      <ellipse class="cls-144" cx="235.38" cy="88.27" rx="133.49" ry="46.77"/>
      <ellipse class="cls-141" cx="235.39" cy="88.28" rx="132.52" ry="46.34"/>
      <ellipse class="cls-143" cx="235.39" cy="88.28" rx="131.55" ry="45.91"/>
      <ellipse class="cls-145" cx="235.39" cy="88.28" rx="130.59" ry="45.47"/>
      <ellipse class="cls-142" cx="235.4" cy="88.28" rx="129.62" ry="45.04"/>
      <ellipse class="cls-81" cx="235.4" cy="88.29" rx="128.65" ry="44.61"/>
      <ellipse class="cls-82" cx="235.4" cy="88.29" rx="127.68" ry="44.17"/>
      <ellipse class="cls-131" cx="235.4" cy="88.29" rx="126.72" ry="43.74"/>
      <ellipse class="cls-80" cx="235.41" cy="88.29" rx="125.75" ry="43.31"/>
      <ellipse class="cls-146" cx="235.41" cy="88.3" rx="124.78" ry="42.87"/>
      <ellipse class="cls-156" cx="235.41" cy="88.3" rx="123.82" ry="42.44"/>
      <ellipse class="cls-83" cx="235.41" cy="88.3" rx="122.85" ry="42.01"/>
      <ellipse class="cls-10" cx="235.42" cy="88.31" rx="121.88" ry="41.58"/>
      <ellipse class="cls-4" cx="235.42" cy="88.31" rx="120.91" ry="41.14"/>
      <ellipse class="cls-5" cx="235.42" cy="88.31" rx="119.95" ry="40.71"/>
      <ellipse class="cls-1" cx="235.42" cy="88.31" rx="118.98" ry="40.28"/>
      <ellipse class="cls-2" cx="235.43" cy="88.32" rx="118.01" ry="39.84"/>
      <ellipse class="cls-3" cx="235.43" cy="88.32" rx="117.04" ry="39.41"/>
      <ellipse class="cls-161" cx="235.43" cy="88.32" rx="116.08" ry="38.98"/>
      <ellipse class="cls-86" cx="235.44" cy="88.32" rx="115.11" ry="38.54"/>
      <ellipse class="cls-162" cx="235.44" cy="88.33" rx="114.14" ry="38.11"/>
      <ellipse class="cls-160" cx="235.44" cy="88.33" rx="113.17" ry="37.68"/>
      <ellipse class="cls-150" cx="235.44" cy="88.33" rx="112.21" ry="37.25"/>
      <ellipse class="cls-149" cx="235.45" cy="88.33" rx="111.24" ry="36.81"/>
      <ellipse class="cls-148" cx="235.45" cy="88.34" rx="110.27" ry="36.38"/>
      <ellipse class="cls-147" cx="235.45" cy="88.34" rx="109.31" ry="35.95"/>
      <ellipse class="cls-17" cx="235.45" cy="88.34" rx="108.34" ry="35.51"/>
      <ellipse class="cls-8" cx="235.46" cy="88.35" rx="107.37" ry="35.08"/>
      <ellipse class="cls-9" cx="235.46" cy="88.35" rx="106.4" ry="34.65"/>
      <ellipse class="cls-7" cx="235.46" cy="88.35" rx="105.44" ry="34.21"/>
      <ellipse class="cls-6" cx="235.47" cy="88.35" rx="104.47" ry="33.78"/>
      <ellipse class="cls-19" cx="235.47" cy="88.36" rx="103.5" ry="33.35"/>
      <ellipse class="cls-20" cx="235.47" cy="88.36" rx="102.53" ry="32.91"/>
      <ellipse class="cls-18" cx="235.47" cy="88.36" rx="101.57" ry="32.48"/>
      <ellipse class="cls-15" cx="235.48" cy="88.36" rx="100.6" ry="32.05"/>
      <ellipse class="cls-14" cx="235.48" cy="88.37" rx="99.63" ry="31.62"/>
      <ellipse class="cls-13" cx="235.48" cy="88.37" rx="98.66" ry="31.18"/>
      <ellipse class="cls-12" cx="235.48" cy="88.37" rx="97.7" ry="30.75"/>
      <ellipse class="cls-11" cx="235.49" cy="88.37" rx="96.73" ry="30.32"/>
      <ellipse class="cls-16" cx="235.49" cy="88.38" rx="95.76" ry="29.88"/>
      <ellipse class="cls-124" cx="235.49" cy="88.38" rx="94.8" ry="29.45"/>
      <ellipse class="cls-123" cx="235.49" cy="88.38" rx="93.83" ry="29.02"/>
      <ellipse class="cls-118" cx="235.5" cy="88.38" rx="92.86" ry="28.58"/>
      <ellipse class="cls-107" cx="235.5" cy="88.39" rx="91.89" ry="28.15"/>
      <ellipse class="cls-122" cx="235.5" cy="88.39" rx="90.93" ry="27.72"/>
      <ellipse class="cls-121" cx="235.51" cy="88.39" rx="89.96" ry="27.29"/>
      <ellipse class="cls-120" cx="235.51" cy="88.4" rx="88.99" ry="26.85"/>
      <ellipse class="cls-119" cx="235.51" cy="88.4" rx="88.02" ry="26.42"/>
      <ellipse class="cls-112" cx="235.51" cy="88.4" rx="87.06" ry="25.99"/>
      <ellipse class="cls-111" cx="235.52" cy="88.4" rx="86.09" ry="25.55"/>
      <ellipse class="cls-72" cx="235.52" cy="88.41" rx="85.12" ry="25.12"/>
      <ellipse class="cls-110" cx="235.52" cy="88.41" rx="84.15" ry="24.69"/>
      <ellipse class="cls-71" cx="235.52" cy="88.41" rx="83.19" ry="24.25"/>
      <ellipse class="cls-73" cx="235.53" cy="88.41" rx="82.22" ry="23.82"/>
      <ellipse class="cls-76" cx="235.53" cy="88.42" rx="81.25" ry="23.39"/>
      <ellipse class="cls-74" cx="235.53" cy="88.42" rx="80.28" ry="22.96"/>
      <ellipse class="cls-75" cx="235.54" cy="88.42" rx="79.32" ry="22.52"/>
      <ellipse class="cls-115" cx="235.54" cy="88.42" rx="78.35" ry="22.09"/>
      <ellipse class="cls-114" cx="235.54" cy="88.43" rx="77.38" ry="21.66"/>
      <ellipse class="cls-126" cx="235.54" cy="88.43" rx="76.42" ry="21.22"/>
      <ellipse class="cls-125" cx="235.55" cy="88.43" rx="75.45" ry="20.79"/>
      <ellipse class="cls-93" cx="235.55" cy="88.44" rx="74.48" ry="20.36"/>
      <ellipse class="cls-87" cx="235.55" cy="88.44" rx="73.51" ry="19.92"/>
      <ellipse class="cls-85" cx="235.55" cy="88.44" rx="72.55" ry="19.49"/>
    </g>
  </g>
</svg>